<svg id="Group_2970" data-name="Group 2970" xmlns="http://www.w3.org/2000/svg" width="27.4" height="27.422" viewBox="0 0 27.4 27.422">
    <path id="Path_666" data-name="Path 666" d="M772.37,473.658a13.71,13.71,0,0,1,2.809,27.18,13.549,13.549,0,0,1-8.075-.933,1.1,1.1,0,0,0-.609-.063c-1.117.207-2.228.453-3.345.661a3.029,3.029,0,0,1-3.634-3.7c.223-1.1.457-2.207.666-3.314a1.036,1.036,0,0,0-.065-.581,13.742,13.742,0,0,1,12.252-19.249Zm11.515,13.709c-.054-.571-.08-1.146-.166-1.711a11.2,11.2,0,0,0-12.1-9.442,10.607,10.607,0,0,0-7.748,4.2,10.919,10.919,0,0,0-1.273,11.91,1.7,1.7,0,0,1,.138,1.1c-.265,1.274-.516,2.552-.768,3.829-.128.65.151.923.8.793,1.258-.251,2.517-.494,3.772-.76a1.791,1.791,0,0,1,1.21.159,11.009,11.009,0,0,0,6.612,1.009A11.254,11.254,0,0,0,783.885,487.367Z" transform="translate(-758.945 -473.658)" fill="#20a6ed"/>
    <path id="Path_667" data-name="Path 667" d="M787.448,504.661c.133.031.246.052.356.084a1.249,1.249,0,0,1,.9,1.225,1.192,1.192,0,0,1-1.021,1.174,8.621,8.621,0,0,1-1.628.014,1.182,1.182,0,0,1-1.082-1.263c-.006-1.516,0-3.033,0-4.549v-.362c-.1-.024-.2-.043-.287-.066a1.251,1.251,0,0,1-.965-1.259,1.2,1.2,0,0,1,1.064-1.168,8.587,8.587,0,0,1,1.6,0,1.183,1.183,0,0,1,1.069,1.274c.005,1.526,0,3.053,0,4.579Z" transform="translate(-772.512 -487.239)" fill="#20a6ed"/>
    <path id="Path_668" data-name="Path 668" d="M788.967,491.449a1.238,1.238,0,1,1-1.243-1.243A1.239,1.239,0,0,1,788.967,491.449Z" transform="translate(-774.033 -482.723)" fill="#20a6ed"/>
</svg>