<svg xmlns="http://www.w3.org/2000/svg" width="115.162" height="84.5" viewBox="0 0 115.162 84.5">
  <g id="Group_2822" data-name="Group 2822" transform="translate(-237.408 -837.062)">
    <path id="Path_225" data-name="Path 225" d="M920.626,1009.137l0-.023-.019-.027Z" transform="translate(-611.635 -154.004)" fill="#d1e4f0"/>
    <path id="Path_226" data-name="Path 226" d="M909.179,961.516q.076-.706.137-1.413a12.8,12.8,0,0,0-1.976-.662A11.817,11.817,0,0,1,909.179,961.516Z" transform="translate(-599.754 -109.559)" fill="#d1e4f0"/>
    <path id="Path_227" data-name="Path 227" d="M623.327,1520.238a5.246,5.246,0,0,1,.03-.6c-.158,0-.317,0-.474,0-.413.016-.818.038-1.22.057q.782.259,1.566.509Z" transform="translate(-344.003 -611.072)" fill="#d1e4f0"/>
    <path id="Path_228" data-name="Path 228" d="M995.892,1494.08c0,.105,0,.208,0,.314h.021C995.91,1494.3,995.9,1494.193,995.892,1494.08Z" transform="translate(-679.029 -588.192)" fill="#d1e4f0"/>
    <path id="Path_229" data-name="Path 229" d="M780,1339.425q-.412.1-.832.186c1.113.4,2.18.821,3.191,1.264q.7.307,1.374.625c.425-.289,1.091-.543,1.523-.829l.159-.1a41.241,41.241,0,0,0-4.037-1.5q-.52.144-1.056.275Z" transform="translate(-485.005 -449.423)" fill="#d1e4f0"/>
    <path id="Path_230" data-name="Path 230" d="M831.912,1370.025l-.043-.019c-1.162.477-2.283.965-3.346,1.461-.654.3-1.291.61-1.905.919.661-.324,1.348-.646,2.052-.966C829.7,1370.948,830.792,1370.483,831.912,1370.025Z" transform="translate(-527.488 -477.115)" fill="#d1e4f0"/>
    <path id="Path_231" data-name="Path 231" d="M329.906,1370.709S331.113,1372,331,1375.7c-.041,1.361-.1,2.639-.666,3.134l-.079.059c.026.268.051.54.079.8a25.756,25.756,0,0,1-8.051,4.2,23.37,23.37,0,0,1-7.413,1.033q-.461,0-.891-.019c-.278.056-.57.109-.873.159a32.636,32.636,0,0,1-8.85.254,33.554,33.554,0,0,1-10.133-2.764c-.014-.3-.034-.612-.053-.919-.435-.119-.871-.227-1.311-.318-1.473-.306-2.974-.483-4.495-.669s-3.056-.4-4.555-.708c-.521.616-1.163,1.2-1.739,1.106-.389-.066-.615-.472-.982-.6-.436-.152-1.225.218-1.533-.126-.158-.176,0-.493-.158-.673-.187-.218-.591-.184-.852-.2-.351-.02-.539.1-.772-.233-.141-.2-.039-.429-.258-.589-.183-.134-.641-.141-.885-.269a2.906,2.906,0,0,1-.939-.738,5.545,5.545,0,0,1-1.22-3.629,16.879,16.879,0,0,0,.051-2.231c-1.82-.753-3.617-1.619-5.461-2.471-1.087-.5-3.281-1.306-3.917-2.413a1.62,1.62,0,0,1-.161-.429l-.026-.155a2.707,2.707,0,0,1-.038-.342l-.005-.135c-.189-.118-.374-.232-.558-.341-.106-.062-.213-.127-.315-.186-.529-.308-1.037-.632-1.548-.949-.494-.306-.992-.606-1.516-.879a31.194,31.194,0,0,1-4.767-2.875c-.244-.189-.484-.383-.718-.586-.111-.1-1.171-1.061-1.573-1.475l-.011-.011a4.357,4.357,0,0,0-1.471,5.286c.9,2.387,3.407,3.771,5.125,5.463,1.909,1.88,3.155,4.161,4.887,6.155,4.533,5.216,12.227,7.312,18.73,8.544,9.533,1.806,19.308,4.344,29.063,4.409,4.67.032,9.349.051,14-.266,4.162-.284,8.321-1.053,12.48-1.457,4-.388,7.994-.89,11.949-1.615,4.856-.89,12.926-1.708,16.417-5.709,2.578-2.953-3.469-6.462-5.742-7.231-3.493-1.182-7.41-1.22-11-2.084-3.8-.913-7.462-2.122-11.225-3.16-2.343-.646-4.556-1.62-6.816-2.481-.181,2.033-.3,4.192-.31,6.473Z" transform="translate(-13.044 -466.832)" fill="#d1e4f0"/>
    <path id="Path_232" data-name="Path 232" d="M359.325,1166.06a6.11,6.11,0,0,0,.89,1.885c.174.273.358.541.523.819.151.253.286.516.461.754a1.341,1.341,0,0,0,1.3.636,2.85,2.85,0,0,0,.925-.379c.366-.206.722-.431,1.076-.656,1.007-.641,1.989-1.319,2.983-1.981-.266-.244-.55-.484-.831-.724-.125-.107-.242-.213-.371-.323-.566-.485-1.141-.94-1.732-1.389a17.211,17.211,0,0,1-2.594-2.475c-.529.382-1.128.676-1.644,1.078A2.643,2.643,0,0,0,359.325,1166.06Z" transform="translate(-109.08 -291.102)" fill="#fbbd96"/>
    <path id="Path_233" data-name="Path 233" d="M351.043,1160.041c.013.132.029.263.037.4.012.164.016.326.016.487s0,.331-.011.5c-.02.336-.047.689-.095,1.043a5.382,5.382,0,0,1-.093.579l-.024.1c.488.756.987,1.5,1.4,2.209.388.668.818,1.454,1.29,2.246.223.375.453.75.7,1.116a27.27,27.27,0,0,1,5.543-3.753c.134-.067.277-.134.415-.2h0c.161-.071.327-.126.489-.191-.149-.162-.3-.316-.459-.467-.06-.058-.12-.116-.181-.172l-.084-.08,0,0c-.993.661-1.976,1.34-2.983,1.981-.354.225-.71.45-1.076.656a2.85,2.85,0,0,1-.925.379,1.342,1.342,0,0,1-1.3-.636c-.175-.238-.31-.5-.461-.754-.166-.278-.349-.546-.523-.819a6.11,6.11,0,0,1-.89-1.885,2.643,2.643,0,0,1,.986-2.755c.517-.4,1.116-.7,1.644-1.078h0c-.108-.124-.211-.257-.317-.383-.771.415-1.62.654-2.4,1.056A6.494,6.494,0,0,0,351.043,1160.041Z" transform="translate(-101.579 -287.822)" fill="#f2ad82"/>
    <path id="Path_234" data-name="Path 234" d="M347.614,1141.806l-.038-.011a3.843,3.843,0,0,1-1.079-.409c-.13-.069-.259-.138-.39-.211-.2-.112-.4-.223-.6-.324l-.455-.232c-.128-.066-.257-.135-.391-.2l-.33-.174c.045.128.1.252.137.381s.093.269.138.408l.04.121c.12.368.226.738.312,1.108.036.146.065.286.092.435a9.112,9.112,0,0,1,.136.945,6.457,6.457,0,0,1,.692-.422c.782-.4,1.631-.641,2.4-1.056l.075-.036a1.934,1.934,0,0,0,.332-.612,1.248,1.248,0,0,1-.7.309A1.263,1.263,0,0,1,347.614,1141.806Z" transform="translate(-95.727 -271.421)" fill="#272727"/>
    <path id="Path_235" data-name="Path 235" d="M263.071,1057.073a21.873,21.873,0,0,0-5.36,4.776,10.31,10.31,0,0,0,.617.953,21.92,21.92,0,0,1,5.608-4.809c-.072-.091-.153-.178-.231-.268a19.343,19.343,0,0,1,1.05-2.56c-.354-.205-.721-.4-1.1-.585a19.051,19.051,0,0,0-.912,2.22Q262.915,1056.932,263.071,1057.073Z" transform="translate(-18.177 -194.732)" fill="#a99f7e"/>
    <path id="Path_236" data-name="Path 236" d="M256.24,1050.408a22.453,22.453,0,0,0-4.481,4.168,3.517,3.517,0,0,0,.206.73q.1.238.206.466a22.329,22.329,0,0,1,5.235-4.656c-.11-.088-.228-.163-.344-.241a19.385,19.385,0,0,1,.891-2.15c-.361-.169-.73-.326-1.111-.468l-.039-.014a19.194,19.194,0,0,0-.83,2.065C256.062,1050.34,256.153,1050.368,256.24,1050.408Z" transform="translate(-12.848 -189.059)" fill="#a99f7e"/>
    <path id="Path_237" data-name="Path 237" d="M271.673,1065.133a21.627,21.627,0,0,0-5.605,4.821c.224.295.464.58.7.864a21.5,21.5,0,0,1,5.585-4.642l0,0a19.374,19.374,0,0,1,1.294-3.325c-.346-.237-.7-.462-1.055-.674a19.29,19.29,0,0,0-1.1,2.727C271.559,1064.984,271.62,1065.059,271.673,1065.133Z" transform="translate(-25.658 -201.537)" fill="#a99f7e"/>
    <path id="Path_238" data-name="Path 238" d="M280.894,1074.353a21.173,21.173,0,0,0-5.523,4.6l.065.074c.227.257.449.513.666.773a21.248,21.248,0,0,1,5.373-4.349c.065.125.125.254.182.377a20.968,20.968,0,0,0-5.284,4.3c.237.3.459.613.667.931a20.717,20.717,0,0,1,5.113-4.081c.055.133.107.264.153.394a20.66,20.66,0,0,0-5.035,4.046c.206.33.4.671.589,1.016a20.975,20.975,0,0,1,4.873-3.881c-.042-.129-.092-.253-.137-.381l.33.174a21,21,0,0,1,1.742-5.616c-.278-.259-.574-.505-.879-.743l-.1-.078a20,20,0,0,0-1.618,4.878c-.093-.229-.192-.454-.293-.678a20.226,20.226,0,0,1,1.567-4.461c-.333-.257-.673-.5-1.016-.74a19.534,19.534,0,0,0-1.349,3.6Z" transform="translate(-33.987 -209.353)" fill="#a99f7e"/>
    <path id="Path_239" data-name="Path 239" d="M351.674,1096.989c.2.1.4.212.6.324a21.206,21.206,0,0,1,1.515-5.052,9.4,9.4,0,0,0-.894-1.013,20.716,20.716,0,0,0-1.671,5.509Z" transform="translate(-101.889 -227.559)" fill="#a99f7e"/>
    <path id="Path_240" data-name="Path 240" d="M366.052,1109.968a21.564,21.564,0,0,1,1.105-3.944c-.158-.319-.334-.626-.506-.917-.084-.141-.172-.281-.268-.416a20.894,20.894,0,0,0-1.41,4.868A3.851,3.851,0,0,0,366.052,1109.968Z" transform="translate(-114.202 -239.593)" fill="#a99f7e"/>
    <path id="Path_241" data-name="Path 241" d="M379.974,1125.627a1.956,1.956,0,0,0,.627-1.511,4.491,4.491,0,0,0-.389-1.619,21.7,21.7,0,0,0-.934,3.439A1.248,1.248,0,0,0,379.974,1125.627Z" transform="translate(-127.01 -255.534)" fill="#a99f7e"/>
    <path id="Path_242" data-name="Path 242" d="M277.766,1046.66a19.51,19.51,0,0,1,.828-2.059,7.3,7.3,0,0,0-1.231-.278,19.284,19.284,0,0,0-.816,2.206A4.421,4.421,0,0,1,277.766,1046.66Z" transform="translate(-35.039 -185.549)" fill="#a99f7e"/>
    <path id="Path_243" data-name="Path 243" d="M242.9,1047.116a3.76,3.76,0,0,0,.132,3.279,4.37,4.37,0,0,1,.522-1.265,2.945,2.945,0,0,1,.208-.277,21.772,21.772,0,0,1,.9-3.213l-.161.066A2.833,2.833,0,0,0,242.9,1047.116Z" transform="translate(-4.629 -186.729)" fill="#a99f7e"/>
    <path id="Path_244" data-name="Path 244" d="M260.339,1046.031a19.935,19.935,0,0,1,.828-2.291,5.212,5.212,0,0,0-1.362.066,20.337,20.337,0,0,0-.86,2.8A3.111,3.111,0,0,1,260.339,1046.031Z" transform="translate(-19.28 -185.012)" fill="#a99f7e"/>
    <path id="Path_245" data-name="Path 245" d="M375.31,1121.369a1.263,1.263,0,0,0,.382.016,21.709,21.709,0,0,1,.934-3.439,5.536,5.536,0,0,0-.248-.532,21.564,21.564,0,0,0-1.105,3.944Z" transform="translate(-123.422 -250.983)" fill="#dad1bd"/>
    <path id="Path_246" data-name="Path 246" d="M361.637,1106.184a20.9,20.9,0,0,1,1.41-4.868c-.09-.134-.184-.266-.286-.395a21.205,21.205,0,0,0-1.515,5.052C361.378,1106.046,361.508,1106.115,361.637,1106.184Z" transform="translate(-110.867 -236.218)" fill="#dad1bd"/>
    <path id="Path_247" data-name="Path 247" d="M347.881,1094.112a20.715,20.715,0,0,1,1.671-5.509c-.106-.108-.208-.208-.32-.309a21,21,0,0,0-1.742,5.616C347.623,1093.977,347.753,1094.047,347.881,1094.112Z" transform="translate(-98.551 -224.914)" fill="#dad1bd"/>
    <path id="Path_248" data-name="Path 248" d="M336.827,1083.11a20,20,0,0,1,1.618-4.878c-.116-.089-.229-.175-.343-.261a20.222,20.222,0,0,0-1.567,4.461C336.635,1082.656,336.733,1082.881,336.827,1083.11Z" transform="translate(-88.742 -215.672)" fill="#dad1bd"/>
    <path id="Path_249" data-name="Path 249" d="M278.361,1071.941a21.5,21.5,0,0,0-5.585,4.642c.089.107.183.212.272.319a21.168,21.168,0,0,1,5.523-4.6l.086.163a19.534,19.534,0,0,1,1.349-3.6q-.169-.123-.348-.24a19.374,19.374,0,0,0-1.294,3.325Z" transform="translate(-31.663 -207.301)" fill="#dad1bd"/>
    <path id="Path_250" data-name="Path 250" d="M272.719,1319.531a7.259,7.259,0,0,0,.551,2.491A7.259,7.259,0,0,1,272.719,1319.531Z" transform="translate(-31.612 -431.928)" fill="#fbbd96"/>
    <path id="Path_251" data-name="Path 251" d="M281.933,1233.712c-.079-.431-.148-.864-.2-1.3a9.27,9.27,0,0,1-1.336.108c-.381,0-.754-.029-1.133-.061a2.17,2.17,0,0,0-.893.065,2.073,2.073,0,0,0-1.16,1.621,21.553,21.553,0,0,0-.276,2.36c-.109.957-.153,1.92-.238,2.878a8.493,8.493,0,0,0-.156,1.774.784.784,0,0,0,1.041.714,3.884,3.884,0,0,0,1.4-.973c1.334-1.193,2.56-2.519,3.929-3.674.083.272.165.543.241.819-.2-.719-.419-1.418-.657-2.121A15.653,15.653,0,0,1,281.933,1233.712Z" transform="translate(-35.019 -353.934)" fill="#fbbd96"/>
    <path id="Path_252" data-name="Path 252" d="M273.044,1235.438c.2-.259.424-.506.641-.756.1-.114.191-.236.293-.349.325-.359.664-.7,1.011-1.041.121-.119.248-.231.371-.347.21-.2.419-.4.635-.586.244-.217.492-.428.741-.639.079-.066.156-.134.236-.2q.48-.4.968-.786l-.008.009c.183-.147.364-.3.549-.444.328-.254.665-.5,1.009-.733l-.015-.055c-.076-.276-.158-.548-.241-.82-1.369,1.155-2.595,2.48-3.929,3.674a3.886,3.886,0,0,1-1.4.973.784.784,0,0,1-1.041-.714,8.5,8.5,0,0,1,.156-1.774c.085-.958.129-1.921.238-2.878a21.56,21.56,0,0,1,.276-2.36,2.074,2.074,0,0,1,1.16-1.621,2.174,2.174,0,0,1,.893-.065c.379.031.752.065,1.133.061a9.287,9.287,0,0,0,1.336-.108c-.019-.161-.031-.327-.047-.489-.871-.088-1.708-.366-2.582-.471a11.252,11.252,0,0,0-1.585-.021,2.613,2.613,0,0,0-.97.177c-.071.607-.108,1.241-.126,1.881,0,.074,0,.148,0,.223-.011.442-.018.885-.026,1.318-.01.507-.025,1-.057,1.472-.041.6-.1,1.266-.153,1.964-.034.466-.063.945-.078,1.425-.007.24-.012.48-.01.719,0,.313.011.623.032.927A7.259,7.259,0,0,0,273,1235.5Z" transform="translate(-31.341 -345.402)" fill="#f2ad82"/>
    <path id="Path_253" data-name="Path 253" d="M257.346,1139.7a2.618,2.618,0,0,1,.97-.178,11.271,11.271,0,0,1,1.585.021c.874.1,1.711.383,2.582.471l.083.011a1.937,1.937,0,0,0,.617-.321,1.257,1.257,0,0,1-1.056-.361l-.025-.029a3.878,3.878,0,0,1-.665-.943c-.068-.13-.137-.26-.2-.394-.1-.2-.2-.406-.312-.6l-.247-.448c-.069-.126-.138-.256-.21-.386-.186-.348-.369-.7-.559-1.045-.068-.13-.142-.256-.214-.387-.187-.344-.383-.686-.589-1.016-.074-.123-.153-.241-.231-.36-.208-.318-.43-.63-.667-.931-.053-.068-.106-.132-.163-.2l-.107-.128c-.218-.26-.44-.516-.666-.773l-.065-.074c-.089-.108-.183-.212-.272-.319-.239-.284-.478-.569-.7-.865-.071-.094-.141-.187-.209-.281a4.777,4.777,0,0,1-.942-.414c.157.357.367.957.414,1.081a6.978,6.978,0,0,1,.33,1.29l.027-.054a.581.581,0,0,1,.32-.251l.058-.018a.217.217,0,1,1,.123.416l-.08.008c-.067-.006-.17.1-.222.248a1.021,1.021,0,0,0-.057.471v.01l-.037.1c.011.089.024.177.035.266l.045-.091a.581.581,0,0,1,.32-.251l.059-.017a.217.217,0,0,1,.123.416l-.08.008c-.067-.005-.17.1-.222.248a1.021,1.021,0,0,0-.057.471v.009l-.078.123c.013.1.031.2.045.3l.075-.153a.583.583,0,0,1,.32-.251l.058-.017a.217.217,0,0,1,.123.416l-.08.008c-.067-.006-.17.1-.222.249a1.023,1.023,0,0,0-.057.471v.01l-.066.116c.031.144.056.288.1.431.141.521.283,1.023.416,1.524a17.2,17.2,0,0,1,.49,2.379Z" transform="translate(-15.816 -262.025)" fill="#272727"/>
    <path id="Path_254" data-name="Path 254" d="M327.443,1202.876a4.4,4.4,0,0,0,.561-1.456l.024-.1a21.74,21.74,0,0,0-2.7,2.325,1.245,1.245,0,0,0,.748.134A1.957,1.957,0,0,0,327.443,1202.876Z" transform="translate(-78.71 -326.097)" fill="#a99f7e"/>
    <path id="Path_255" data-name="Path 255" d="M306.013,1147.9l-.04-.121a20.448,20.448,0,0,0-4.8,3.859c.19.349.373.7.559,1.045a20.991,20.991,0,0,1,4.59-3.675C306.24,1148.633,306.133,1148.263,306.013,1147.9Z" transform="translate(-57.088 -278.163)" fill="#a99f7e"/>
    <path id="Path_256" data-name="Path 256" d="M313.163,1165c-.008-.132-.024-.264-.037-.4a9.126,9.126,0,0,0-.136-.945,20.738,20.738,0,0,0-4.471,3.627l.247.448c.109.2.212.4.312.6A21.163,21.163,0,0,1,313.163,1165Z" transform="translate(-63.662 -292.383)" fill="#a99f7e"/>
    <path id="Path_257" data-name="Path 257" d="M319.6,1182.638c.048-.354.075-.707.095-1.043.009-.164.014-.329.011-.5a20.911,20.911,0,0,0-3.9,3.243,3.879,3.879,0,0,0,.665.943A21.523,21.523,0,0,1,319.6,1182.638Z" transform="translate(-70.185 -307.998)" fill="#a99f7e"/>
    <path id="Path_258" data-name="Path 258" d="M255.247,1066.054a2.868,2.868,0,0,0-2.289.233,3.951,3.951,0,0,0-1.779,3.531A23.019,23.019,0,0,1,255.247,1066.054Z" transform="translate(-12.327 -204.882)" fill="#a99f7e"/>
    <path id="Path_259" data-name="Path 259" d="M325.185,1196.365a5.389,5.389,0,0,0,.093-.579,21.522,21.522,0,0,0-3.125,2.648l.025.029a1.25,1.25,0,0,0,.308.227A21.732,21.732,0,0,1,325.185,1196.365Z" transform="translate(-75.868 -321.146)" fill="#dad1bd"/>
    <path id="Path_260" data-name="Path 260" d="M317.954,1176.939c0-.161,0-.323-.016-.487a21.162,21.162,0,0,0-4.085,3.336c.068.134.136.264.2.394A20.9,20.9,0,0,1,317.954,1176.939Z" transform="translate(-68.437 -303.837)" fill="#dad1bd"/>
    <path id="Path_261" data-name="Path 261" d="M311.1,1159.506a20.988,20.988,0,0,0-4.59,3.675c.072.131.141.261.21.386a20.738,20.738,0,0,1,4.471-3.627C311.168,1159.792,311.14,1159.652,311.1,1159.506Z" transform="translate(-61.867 -288.666)" fill="#dad1bd"/>
    <path id="Path_262" data-name="Path 262" d="M304.143,1144.285c-.046-.139-.092-.274-.138-.408a20.974,20.974,0,0,0-4.873,3.88c.072.131.146.257.214.387A20.448,20.448,0,0,1,304.143,1144.285Z" transform="translate(-55.258 -274.674)" fill="#dad1bd"/>
    <path id="Path_263" data-name="Path 263" d="M296.563,1129.228q-.07-.2-.153-.394a20.719,20.719,0,0,0-5.113,4.081c.079.119.157.238.231.36A20.66,20.66,0,0,1,296.563,1129.228Z" transform="translate(-48.244 -261.207)" fill="#dad1bd"/>
    <path id="Path_264" data-name="Path 264" d="M287.9,1114.635c-.057-.124-.117-.253-.182-.378a21.245,21.245,0,0,0-5.373,4.349l.107.128c.057.069.11.133.163.2A20.966,20.966,0,0,1,287.9,1114.635Z" transform="translate(-40.234 -248.157)" fill="#dad1bd"/>
    <path id="Path_265" data-name="Path 265" d="M240.41,1053.576a21.627,21.627,0,0,1,5.605-4.821c-.054-.074-.114-.149-.173-.224a19.29,19.29,0,0,1,1.1-2.727c-.116-.071-.238-.144-.362-.211a19.352,19.352,0,0,0-1.05,2.56c.078.089.158.177.231.268a21.921,21.921,0,0,0-5.608,4.809,10.31,10.31,0,0,1-.617-.953,21.876,21.876,0,0,1,5.36-4.776q-.156-.142-.326-.274a19.047,19.047,0,0,1,.912-2.22c-.122-.064-.246-.121-.376-.181a19.377,19.377,0,0,0-.891,2.15c.116.079.234.154.344.241a22.321,22.321,0,0,0-5.235,4.656c-.074-.152-.142-.307-.206-.466a3.514,3.514,0,0,1-.206-.73,22.455,22.455,0,0,1,4.481-4.168c-.087-.041-.178-.068-.268-.1a19.206,19.206,0,0,1,.83-2.065c-.128-.046-.262-.095-.4-.132a19.5,19.5,0,0,0-.828,2.059,4.417,4.417,0,0,0-1.219-.131,19.282,19.282,0,0,1,.816-2.206c-.144-.021-.29-.036-.438-.046a19.929,19.929,0,0,0-.828,2.291,3.111,3.111,0,0,0-1.395.576,20.337,20.337,0,0,1,.86-2.8,3.386,3.386,0,0,0-.491.118,21.772,21.772,0,0,0-.9,3.213,2.95,2.95,0,0,0-.208.277,4.37,4.37,0,0,0-.522,1.265,3.76,3.76,0,0,1-.132-3.279,2.834,2.834,0,0,1,1.6-1.409l-.018-.015a3.331,3.331,0,0,0-2.443,3.207,4.663,4.663,0,0,0,.859,2.442,4.53,4.53,0,0,0,.931,3.08l.059.03a4.763,4.763,0,0,0,.942.414C240.269,1053.389,240.339,1053.482,240.41,1053.576Zm.221-7.012a2.867,2.867,0,0,1,2.289-.233,23.014,23.014,0,0,0-4.068,3.763A3.951,3.951,0,0,1,240.631,1046.564Z" transform="translate(0 -185.159)" fill="#dad1bd"/>
    <path id="Path_266" data-name="Path 266" d="M261.3,1150.369a1.021,1.021,0,0,1,.057-.471c.052-.149.155-.254.222-.248l.08-.008a.217.217,0,1,0-.123-.417l-.058.018a.581.581,0,0,0-.32.251l-.027.054a1,1,0,0,0-.1.262,1.3,1.3,0,0,0,.024.62.124.124,0,0,0,.136.089l.07-.041.038-.1Z" transform="translate(-21.132 -279.455)" fill="#dad1bd"/>
    <path id="Path_267" data-name="Path 267" d="M263.091,1161.442v-.009a1.02,1.02,0,0,1,.057-.471c.052-.149.155-.254.222-.248l.08-.008a.217.217,0,0,0-.123-.416l-.059.018a.581.581,0,0,0-.32.25l-.045.091a1.043,1.043,0,0,0-.078.225,1.3,1.3,0,0,0,.024.62.123.123,0,0,0,.136.089l.029-.016Z" transform="translate(-22.73 -289.359)" fill="#dad1bd"/>
    <path id="Path_268" data-name="Path 268" d="M264.877,1172.5v-.01a1.023,1.023,0,0,1,.057-.471c.052-.149.155-.255.222-.249l.08-.008a.217.217,0,0,0-.123-.416l-.058.017a.583.583,0,0,0-.32.251l-.075.153-.047.163a1.305,1.305,0,0,0,.024.62.125.125,0,0,0,.136.089l.042-.024Z" transform="translate(-24.329 -299.26)" fill="#dad1bd"/>
    <path id="Path_269" data-name="Path 269" d="M269.518,1358.627c.4.414,1.463,1.378,1.573,1.475.234.2.474.4.718.586-.244-.189-.484-.383-.718-.587C270.982,1360,269.92,1359.04,269.518,1358.627Z" transform="translate(-28.747 -466.928)" fill="#9e732a"/>
    <path id="Path_270" data-name="Path 270" d="M268.873,1345.922l-.006,0c-.285.373-.562.755-.826,1.145l.058.084-.057-.083C268.308,1346.676,268.587,1346.3,268.873,1345.922Z" transform="translate(-27.424 -455.551)" fill="#9e732a"/>
    <path id="Path_271" data-name="Path 271" d="M351.371,1414.139c.511.318,1.019.642,1.548.949.1.059.21.124.315.186-.105-.062-.213-.128-.314-.188C352.39,1414.78,351.883,1414.456,351.371,1414.139Z" transform="translate(-102.025 -516.625)" fill="#9e732a"/>
    <path id="Path_272" data-name="Path 272" d="M444.341,1216.507c.066-.351.13-.7.206-1.05a23.812,23.812,0,0,1-3.225-2.2c-.246.082-.485.186-.727.283-.162.065-.329.12-.489.191.151.13.3.251.458.373A24.666,24.666,0,0,0,444.341,1216.507Z" transform="translate(-181.464 -336.786)" fill="#9e732a"/>
    <path id="Path_273" data-name="Path 273" d="M278.411,1336.291l0,0c.205-.259.42-.51.637-.76C278.835,1335.784,278.615,1336.032,278.411,1336.291Z" transform="translate(-36.708 -446.254)" fill="#9e732a"/>
    <path id="Path_274" data-name="Path 274" d="M298.674,1233.411a3.59,3.59,0,0,0,1.223-.04,5.427,5.427,0,0,1,1.732-.075,1.013,1.013,0,0,1,.716.9c.062.351-.168,1.188.09,1.481.4.455,1.26-.738,1.818-.484s.375,1.518.626,2.045c.232.487.556.463.918.114a4.511,4.511,0,0,0,.562-.794c.715-1.112,1.249-2.282,1.85-3.451a19.105,19.105,0,0,1,3.12-4.6,14.652,14.652,0,0,1,2.343-1.914,17.669,17.669,0,0,0,2.345-1.768,3.876,3.876,0,0,0,1.21-2.167,25.136,25.136,0,0,1-3.954-2.5c-.205-.163-.415-.331-.617-.5a27.265,27.265,0,0,0-5.543,3.753c-.358.3-.71.6-1.062.9a7.937,7.937,0,0,0,.793.959,13.567,13.567,0,0,0,1.575,1.373c.268.2.547.387.828.569-.954-.334-1.912-.655-2.879-.945l.018.037c-.613-.159-1.25-.365-1.884-.533a2.2,2.2,0,0,0-.268-.054,12.373,12.373,0,0,0-1.65.965c-.344.234-.681.479-1.009.733-.185.145-.366.3-.549.444-1.03,1.241-2.19,2.352-2.6,3.962C298.287,1232.37,297.912,1233.184,298.674,1233.411Z" transform="translate(-54.434 -342.519)" fill="#9e732a"/>
    <path id="Path_275" data-name="Path 275" d="M369.108,1265.237v0l.3-.255C369.308,1265.069,369.207,1265.153,369.108,1265.237Z" transform="translate(-117.904 -383.096)" fill="#9e732a"/>
    <path id="Path_276" data-name="Path 276" d="M369.417,1264.152l-.3.255.033.068c.056.109.11.22.16.332.026.059.051.118.076.177.126.293.247.588.385.875l.072.153h0c.967.29,1.925.611,2.879.945-.281-.182-.56-.368-.828-.569a13.556,13.556,0,0,1-1.575-1.373,7.918,7.918,0,0,1-.793-.959h0Z" transform="translate(-117.915 -382.263)" fill="#8f6428"/>
    <path id="Path_277" data-name="Path 277" d="M269.783,1348.76c.233.2.474.4.718.587a31.184,31.184,0,0,0,4.767,2.875c.524.272,1.022.573,1.516.879.512.317,1.019.641,1.549.948.1.059.209.125.314.188.185.109.37.223.558.341l0-.055c0-.12.008-.241.02-.366.006-.062.011-.124.019-.187.019-.146.043-.294.072-.442l.022-.123c.04-.19.085-.379.134-.566l.042-.153c.032-.116.063-.231.1-.342-.628-.209-1.249-.436-1.859-.684a5.326,5.326,0,0,0-1.176,1.042l-.338-.248a4.617,4.617,0,0,1,.692-.71c.105-.09.223-.184.353-.281a18.365,18.365,0,0,1-1.927-.959,33.117,33.117,0,0,1-3.536-2.349c-.361-.277-.73-.537-1.095-.793a21.828,21.828,0,0,1-1.84-1.405c-.286.375-.565.753-.83,1.143l.057.083.035.037.041.044.01.01.011.011C268.611,1347.7,269.673,1348.664,269.783,1348.76Z" transform="translate(-27.438 -455.587)" fill="#8f6428"/>
    <path id="Path_278" data-name="Path 278" d="M299.3,1250.677c.352-.206.708-.386,1.065-.552a4.862,4.862,0,0,1-.348-1.53c-.162-.082-.324-.162-.485-.246a3.875,3.875,0,0,1-1.21,2.167,17.659,17.659,0,0,1-2.345,1.768,14.65,14.65,0,0,0-2.343,1.914,19.109,19.109,0,0,0-3.12,4.6c-.6,1.17-1.135,2.339-1.85,3.451a4.511,4.511,0,0,1-.562.794c-.362.349-.686.373-.918-.114-.251-.527-.072-1.793-.626-2.045s-1.418.938-1.818.484c-.258-.293-.028-1.131-.09-1.481a1.013,1.013,0,0,0-.716-.9,5.427,5.427,0,0,0-1.732.075,3.584,3.584,0,0,1-1.223.04c-.761-.228-.386-1.041-.248-1.589.408-1.61,1.567-2.72,2.6-3.962l.008-.009q-.488.387-.968.786c-.079.066-.157.133-.236.2-.249.211-.5.422-.741.639-.216.191-.425.389-.635.586-.124.116-.25.228-.371.347-.347.337-.685.682-1.011,1.041-.1.113-.193.234-.293.349-.217.25-.432.5-.637.76a20.879,20.879,0,0,0,1.825,1.393c.369.261.742.525,1.107.806a33.385,33.385,0,0,0,3.49,2.32A18.4,18.4,0,0,0,287,1263.8a7.823,7.823,0,0,1,2.605-1.046A21.928,21.928,0,0,1,299.3,1250.677Z" transform="translate(-36.743 -368.202)" fill="#8f6428"/>
    <path id="Path_279" data-name="Path 279" d="M366.33,1391.7l0-.009v0c.08-.259.157-.5.215-.7s.131-.42.2-.629a7.532,7.532,0,0,0-1.961.78C365.293,1391.34,365.81,1391.522,366.33,1391.7Z" transform="translate(-114.034 -495.337)" fill="#8f6428"/>
    <path id="Path_280" data-name="Path 280" d="M480.951,1235.516a2.3,2.3,0,0,1,.125-.542,3.684,3.684,0,0,1,.187-.4l-.15-.093-.062-.039-.307-.191h0c-.076.348-.14.7-.206,1.05C480.675,1235.378,480.814,1235.446,480.951,1235.516Z" transform="translate(-217.661 -355.585)" fill="#8f6428"/>
    <path id="Path_281" data-name="Path 281" d="M362.577,1398.488l.038-.125c-.52-.174-1.037-.356-1.545-.556-.157.091-.3.181-.435.272.61.248,1.231.474,1.859.684l.019-.064Z" transform="translate(-110.319 -502.005)" fill="#b0894b"/>
    <path id="Path_282" data-name="Path 282" d="M277.775,1344.5c.365.256.734.516,1.095.793a33.138,33.138,0,0,0,3.536,2.349,18.338,18.338,0,0,0,1.928.959c.124-.092.263-.186.41-.28a18.4,18.4,0,0,1-2.128-1.04,33.379,33.379,0,0,1-3.49-2.32c-.365-.281-.738-.545-1.107-.806a20.879,20.879,0,0,1-1.825-1.393l0,0-.045.058-.055.07-.036.046-.124.157.006,0A21.828,21.828,0,0,0,277.775,1344.5Z" transform="translate(-34.486 -452.719)" fill="#b0894b"/>
    <path id="Path_283" data-name="Path 283" d="M440.671,1220.982c.161.084.323.164.485.246a2.961,2.961,0,0,1,.013-.462c-.137-.07-.276-.138-.413-.21a24.682,24.682,0,0,1-3.778-2.4c-.155-.122-.306-.243-.458-.373h0c-.138.063-.281.13-.415.2.2.172.411.34.617.5A25.14,25.14,0,0,0,440.671,1220.982Z" transform="translate(-177.879 -340.836)" fill="#b0894b"/>
    <path id="Path_284" data-name="Path 284" d="M350.092,1386.338c.05-.157.1-.315.151-.471a7.823,7.823,0,0,0-2.605,1.046c-.148.094-.286.188-.41.28s-.248.191-.353.281a4.618,4.618,0,0,0-.692.71l.338.248a5.327,5.327,0,0,1,1.176-1.042c.133-.091.278-.181.435-.272A7.528,7.528,0,0,1,350.092,1386.338Z" transform="translate(-97.381 -491.315)" fill="#b0894b"/>
    <path id="Path_285" data-name="Path 285" d="M374.485,1427.77l.005.135c0-.062,0-.126,0-.19Z" transform="translate(-122.718 -528.779)" fill="#cc0015"/>
    <path id="Path_286" data-name="Path 286" d="M386.077,1364.065a21.64,21.64,0,0,1,2.441-4.012,10.271,10.271,0,0,0-2.587,2.9,11.093,11.093,0,0,0-1.541,3.319c-.067.256-.818,4.848-1.735,3.777-.225-.263-.1-.927-.064-1.217a14.744,14.744,0,0,1,.573-2.4c.4-1.324.87-2.62,1.235-3.956.068-.25.686-2.407-.183-1.531a13.165,13.165,0,0,0-2.125,3.918c-.49,1.109-.937,2.3-1.528,3.36-.412.74-1.524,1.253-1.807.143a21.155,21.155,0,0,1-.064-2.469c-.027-.2-.138-.926-.36-1.005-.239-.086-.272.584-.3.7-.107.511-.213,1.02-.339,1.527-.056.223-.09.852-.275,1.011-.453.388-.414-.458-.5-.743-.4-1.321-.923.659-1.2.942a2.425,2.425,0,0,1-.9-2.249q.084-.77.225-1.533v0l0,.009-.038.124-.064.212-.019.064c-.033.111-.064.226-.1.342l-.042.152c-.049.186-.094.376-.134.566l-.022.122c-.029.148-.053.3-.072.442-.008.063-.013.124-.019.187-.012.124-.018.246-.02.366,0,.064,0,.127,0,.19a2.706,2.706,0,0,0,.038.342l.026.155a1.621,1.621,0,0,0,.161.429c.637,1.107,2.83,1.91,3.917,2.413,1.844.853,3.641,1.719,5.461,2.472-.014-.553-.034-1.109-.029-1.677A17.481,17.481,0,0,1,386.077,1364.065Z" transform="translate(-122.741 -468.205)" fill="#b30014"/>
    <path id="Path_287" data-name="Path 287" d="M492.2,1273.225q-.46-.143-.906-.3c-.073-.027-.148-.051-.221-.079q-.528-.2-1.033-.424c-.08-.035-.157-.073-.236-.109q-.414-.191-.81-.4c-.077-.041-.155-.08-.231-.123q-.475-.262-.922-.551c-.058-.038-.113-.078-.171-.117q-.372-.249-.721-.52c-.072-.056-.145-.11-.215-.167-.273-.22-.538-.448-.789-.688l-.092-.093c-.15-.147-.3-.294-.44-.449a2.828,2.828,0,0,1-.685.432c-2.2.942-5.079-1.774-6.07-4.329-.354.165-.707.343-1.056.548,0,0,.282,1.3.34,1.466a3.627,3.627,0,0,0,1.053,1.344,7.118,7.118,0,0,0,3.171,1.66,2.858,2.858,0,0,0,1.979-.369,20.3,20.3,0,0,0,7.39,4.224c-.709.436-1.838-.181-2.6-.078a7.084,7.084,0,0,1-.163,1.5c-.089.566.35.888.587,1.415.288.638.422,1.321.644,1.983.39,1.16.756,2.318,1.165,3.472.691,1.947,1.255,3.89,1.769,5.888.156.605.549,1.564.189,2.159a1.8,1.8,0,0,1-2.513-.046c-.344-.54.118-1.312-.228-1.84-.356-.545-1.266-.064-1.552-.433-.214-.276.227-.741-.039-1.106s-.788-.226-1.018-.668.006-1.052.117-1.483a19.216,19.216,0,0,0,.655-3.122,28.55,28.55,0,0,1-.965,3.184c-.223.615-1.185,2.393-.75,3,.2.28.6.1.779.4l.022.041c.161.33-.228.543.185.8.278.173.616-.009.886.147.033.019.171.261.236.314.178.144.281-.057.4.187.11.225-.022.581-.22.944l.536.178,2.772.92.26.085c.4-.02.807-.041,1.22-.057.157-.006.316,0,.473,0a3.394,3.394,0,0,1,.685-1.843,66.851,66.851,0,0,0-4.323-14.265l.4-.95c.843.023,1.714.059,2.608.11-.183-.51-.367-1-.551-1.484-.243-.064-.484-.13-.722-.2C492.393,1273.284,492.3,1273.254,492.2,1273.225Z" transform="translate(-215.038 -383.379)" fill="#b30014"/>
    <path id="Path_288" data-name="Path 288" d="M573.205,1515.85a5.451,5.451,0,0,0,1.831.257l1.413.068c.452.021.916.015,1.365.075a1.7,1.7,0,0,0,.744.028.9.9,0,0,0,.514-.487,2.957,2.957,0,0,0-.038-1.53,20.576,20.576,0,0,1-.232-2.214l0-.085c.177.057.355.112.532.169q-.784-.251-1.566-.509l-.26-.085-2.772-.92c-.363.837-.8,1.646-1.24,2.447C573.085,1513.8,571.94,1515.322,573.205,1515.85Z" transform="translate(-300.103 -602.996)" fill="#fbbd96"/>
    <path id="Path_289" data-name="Path 289" d="M564.253,1513.753a8.043,8.043,0,0,1-.722-3.115l-.1-.031c-.177-.057-.355-.111-.532-.169l0,.085a20.566,20.566,0,0,0,.232,2.214,2.956,2.956,0,0,1,.038,1.53.9.9,0,0,1-.514.488,1.7,1.7,0,0,1-.744-.028c-.449-.06-.913-.054-1.365-.075l-1.413-.068a5.451,5.451,0,0,1-1.831-.258c-1.265-.528-.12-2.053.286-2.787.443-.8.876-1.61,1.239-2.447l-.536-.178c-.261.478-.64.97-.768,1.2a29.217,29.217,0,0,1-1.865,3.443c-.184.244-.466.646-.8,1.036,1.5.305,3.024.52,4.555.708s3.022.363,4.495.669c.44.091.877.2,1.311.318-.013-.217-.024-.432-.04-.652A11.869,11.869,0,0,1,564.253,1513.753Z" transform="translate(-284.207 -601.472)" fill="#f2ad82"/>
    <path id="Path_290" data-name="Path 290" d="M398.553,1292.019c.128-.228.507-.72.768-1.2.2-.363.33-.719.22-.944-.119-.244-.222-.042-.4-.187-.065-.053-.2-.294-.236-.314-.27-.156-.608.026-.886-.147-.413-.255-.024-.468-.184-.8l-.023-.041c-.184-.3-.578-.116-.779-.4-.434-.606.528-2.384.75-3a28.563,28.563,0,0,0,.965-3.184,19.226,19.226,0,0,1-.655,3.122c-.112.431-.344,1.048-.117,1.483s.755.308,1.018.668-.175.829.039,1.106c.286.369,1.2-.111,1.552.433.346.529-.116,1.3.228,1.84a1.8,1.8,0,0,0,2.513.046c.36-.594-.033-1.553-.189-2.159-.515-2-1.078-3.94-1.769-5.888-.41-1.154-.776-2.312-1.166-3.472-.222-.662-.357-1.345-.644-1.983-.237-.527-.677-.848-.587-1.415a7.09,7.09,0,0,0,.163-1.5c.762-.1,1.891.514,2.6.078a20.3,20.3,0,0,1-7.39-4.224,2.858,2.858,0,0,1-1.979.369,7.117,7.117,0,0,1-3.171-1.66,3.627,3.627,0,0,1-1.053-1.344c-.058-.166-.34-1.466-.34-1.466.349-.205.7-.383,1.056-.548h0c-.357.166-.712.346-1.065.552a21.927,21.927,0,0,0-9.7,12.078c-.053.156-.1.313-.151.471-.067.209-.136.417-.2.629s-.135.443-.215.7q-.142.762-.225,1.533a2.425,2.425,0,0,0,.9,2.249c.28-.283.8-2.264,1.2-.942.086.284.047,1.131.5.743.186-.159.219-.788.275-1.011.127-.507.232-1.016.339-1.527.025-.119.059-.789.3-.7.222.079.333.8.36,1.005a21.158,21.158,0,0,0,.064,2.469c.283,1.109,1.395.6,1.807-.143.591-1.061,1.038-2.252,1.528-3.36a13.167,13.167,0,0,1,2.125-3.918c.869-.876.251,1.28.183,1.531-.365,1.335-.837,2.631-1.235,3.956a14.747,14.747,0,0,0-.573,2.4c-.035.29-.161.954.064,1.217.917,1.071,1.667-3.522,1.735-3.777a11.093,11.093,0,0,1,1.541-3.319,10.273,10.273,0,0,1,2.587-2.9,21.64,21.64,0,0,0-2.441,4.012,17.481,17.481,0,0,0-1.99,7.4c-.005.568.015,1.123.029,1.677a16.879,16.879,0,0,1-.051,2.231,5.544,5.544,0,0,0,1.22,3.629,2.9,2.9,0,0,0,.939.738c.244.129.7.136.885.27.219.16.117.385.258.589.233.336.421.213.772.233.261.016.666-.019.852.2.154.18,0,.5.158.673.307.343,1.1-.026,1.533.126.367.128.594.535.982.6.576.1,1.218-.491,1.739-1.106.33-.39.612-.791.8-1.036A29.217,29.217,0,0,0,398.553,1292.019Z" transform="translate(-125.229 -383.379)" fill="#cc0015"/>
    <path id="Path_291" data-name="Path 291" d="M595.5,1041.566l-.03-.036c.021-.077.039-.155.06-.231a30.765,30.765,0,0,0-3.178-17.307c-.01.083-.018.151-.018.178a9.346,9.346,0,0,1-.113,1.692c-.131.711-.47,1.368-.589,2.078a20.888,20.888,0,0,0-.039-2.947q-.039-.118-.081-.236a11.47,11.47,0,0,1-3.391,5.663,31.923,31.923,0,0,1-5.6,4.518c-2.071,1.3-4.289,1.427-6.531,2.193a14.981,14.981,0,0,0,2.083-3.244,19.973,19.973,0,0,0,1.266-2.815,12.886,12.886,0,0,0,.844-2.223,6.765,6.765,0,0,1-1.824,1.9,13.543,13.543,0,0,1-1.406.973,3.077,3.077,0,0,1,.143,2.4,23.813,23.813,0,0,0-3.842-.65,12.147,12.147,0,0,1-5.583.852,2.488,2.488,0,0,0,.957-.958c-.121.01-.242.02-.356.033-.99.114-2.489,1.643-2.489,1.643a7.278,7.278,0,0,1,1.931-2.51,5.686,5.686,0,0,1,1.886-.789,39.347,39.347,0,0,0,1.979-4.194c-.82.808-1.408,1.888-2.272,2.7a20.14,20.14,0,0,1-3.708,2.691,6.044,6.044,0,0,0-2.144,1.647,14.317,14.317,0,0,0-2.02,5.914,22.105,22.105,0,0,0,.277,6.232c.158,1.069.334,2.135.465,3.207a5.744,5.744,0,0,0,.75,2.331,8.187,8.187,0,0,0,1.535,1.771,11.648,11.648,0,0,0,2.151,1.578,13.983,13.983,0,0,0,4.1,1.456c-.122-.361-.244-.718-.366-1.063.877.048,1.793.122,2.739.222-.119-.394-.238-.784-.357-1.16a42.671,42.671,0,0,1,8.331,1.478c.853.239,1.675.505,2.48.781.953-.086,1.9-.2,2.849-.35,4.181-1.17,7.559-2.97,8.992-5.053a10.442,10.442,0,0,0,1.871-4.807,7.11,7.11,0,0,0-.945-4.466,6.683,6.683,0,0,0-.718-.979l-.127.156C595.481,1041.746,595.487,1041.656,595.5,1041.566Zm-8.145-9.988s3.084-1.27,4.734.441a9.774,9.774,0,0,1,1.385,2.378s-1.005-1.434-1.518-1.5a7.388,7.388,0,0,0-4.279,1.155A5.773,5.773,0,0,1,587.354,1031.578Zm-2.847,15.437a2.016,2.016,0,0,1-.781,1.423A2.4,2.4,0,0,0,584.2,1047a.974.974,0,0,0-.187-.633.6.6,0,0,0-.556-.154c-.455.033-.881.465-1.523.484a.615.615,0,0,1-.46-.2.867.867,0,0,1-.169-.424,1.616,1.616,0,0,1,.111-.813,1.83,1.83,0,0,0,.075.771.674.674,0,0,0,.168.291.361.361,0,0,0,.268.069c.448-.044.853-.473,1.475-.567a.963.963,0,0,1,.9.307A1.223,1.223,0,0,1,584.507,1047.015Zm-3.213,1.905a.333.333,0,0,1-.164-.205.523.523,0,0,1,0-.273.491.491,0,0,1,.155-.228.319.319,0,0,1,.255-.066.541.541,0,0,0-.258.339A.634.634,0,0,0,581.294,1048.92Zm-14.675-10.589.032-.039a5.841,5.841,0,0,1,2.97-2.172,4.173,4.173,0,0,1,1.941-.128,5.054,5.054,0,0,1,1.807.706,5.676,5.676,0,0,1,1.44,1.267,6.479,6.479,0,0,1,.935,1.645,8.028,8.028,0,0,1,.477,3.654v0a7.074,7.074,0,0,1-1.657.537,6.1,6.1,0,0,1-5-1.028A9.153,9.153,0,0,1,566.619,1038.331Zm1.094,8.7c.015-.931,1.462-1.633,3.235-1.57s3.2.868,3.185,1.8-1.46,1.635-3.233,1.571S567.7,1047.965,567.713,1047.034Zm12.147,8.042a8.327,8.327,0,0,0,2.048-.073,5.932,5.932,0,0,0,.983-.241,8.332,8.332,0,0,0,.955-.4,3.473,3.473,0,0,1-1.89.93A3.84,3.84,0,0,1,579.86,1055.076Zm-9.352-5.746a.216.216,0,0,1-.1.421A.216.216,0,0,1,570.508,1049.33Zm1.259,1.185a.216.216,0,0,1-.1.421A.216.216,0,0,1,571.767,1050.514Zm1.754-1.118a.216.216,0,0,1,.1-.421A.216.216,0,0,1,573.52,1049.4Zm-5.035,1.418a.216.216,0,0,1,.1-.421A.216.216,0,0,1,568.486,1050.814Zm-.981-1.874a.216.216,0,0,1,.1-.421A.216.216,0,0,1,567.505,1048.94Zm18.448,1.766-.013-.012a9.237,9.237,0,0,1-1.469,1.656h0l-.018.016c-.114.1-.234.2-.359.3l-.016.013c-.118.091-.242.179-.369.264l-.063.046c-.117.078-.241.149-.365.22l-.1.061c-.117.063-.24.119-.363.175l-.139.066c-.115.048-.236.087-.355.127-.06.02-.117.046-.178.063-.119.035-.244.058-.367.084-.066.013-.129.033-.2.044-.126.02-.257.026-.388.035-.068.005-.134.017-.2.018a4.255,4.255,0,0,1-.618-.032q-.317-.04-.611-.094l-.138-.03c-.146-.029-.291-.058-.429-.091l-.125-.035c-.137-.036-.272-.072-.4-.113l-.087-.03c-.137-.045-.271-.091-.4-.141l-.059-.025c-.133-.054-.263-.109-.387-.168l-.035-.018c-.13-.062-.255-.127-.375-.2l-.014-.009c-.125-.071-.246-.146-.36-.223l0,0c-.118-.08-.231-.162-.338-.247h0a6.344,6.344,0,0,1-1.745-2.216,1.7,1.7,0,0,1-.486.274,1.556,1.556,0,0,1-.62.1,4.277,4.277,0,0,0,.978-.606,3.406,3.406,0,0,0,.4-.393c.131-.139.235-.3.36-.459a1.678,1.678,0,0,1-.595,1.05h0a12.077,12.077,0,0,0,1.839.711,14.744,14.744,0,0,0,1.536.378l.1.017c.25.046.508.088.778.122l.17.019c.256.03.519.055.79.071.065,0,.131.006.2.01.273.012.553.019.839.015l.2,0c.3-.007.6-.026.906-.054l.182-.017q.493-.052,1-.146l.129-.022c.384-.074.774-.166,1.169-.28q.549-.159,1.11-.375a.887.887,0,0,1-.2-.249,1.154,1.154,0,0,1-.142-.484,2.245,2.245,0,0,0,.572.594,1.689,1.689,0,0,0,.349.19,3.529,3.529,0,0,0,.4.127A.974.974,0,0,1,585.953,1050.707Zm2.217-1.755c-.251.079-.367-.336-.115-.414S588.42,1048.874,588.17,1048.952Zm1.824,1.427c-.251.079-.366-.336-.115-.414S590.244,1050.3,589.993,1050.379Zm1.11-1.256c-.251.078-.366-.336-.116-.414S591.354,1049.046,591.1,1049.124Zm1.865.949c-.251.078-.366-.337-.115-.415S593.219,1049.994,592.969,1050.073Zm.809-1.928c-.251.078-.366-.336-.116-.415S594.028,1048.066,593.778,1048.144Zm-3.187.091c-1.657.167-3.055-.449-3.12-1.379s1.22-1.812,2.879-1.981,3.053.449,3.122,1.378S592.248,1048.068,590.591,1048.235Zm1.611-5.462a4.052,4.052,0,0,1-3.96,1.028,4.879,4.879,0,0,1-1.309-.537v0a9.992,9.992,0,0,1,.378-3.654,7.071,7.071,0,0,1,.74-1.645,5.03,5.03,0,0,1,1.141-1.267,3.567,3.567,0,0,1,1.431-.706,2.648,2.648,0,0,1,1.537.128,4.863,4.863,0,0,1,2.35,2.167l.028.044A9.516,9.516,0,0,1,592.2,1042.773Z" transform="translate(-289.977 -167.348)" fill="#fbbd96"/>
    <path id="Path_292" data-name="Path 292" d="M700.815,1019.031a12.886,12.886,0,0,1-.844,2.223,19.972,19.972,0,0,1-1.266,2.815,14.977,14.977,0,0,1-2.083,3.244c2.242-.767,4.46-.89,6.531-2.193a31.926,31.926,0,0,0,5.6-4.518,11.47,11.47,0,0,0,3.391-5.663,8.427,8.427,0,0,0-.89-1.914c.7,6.039-5.155,10.961-10.816,12.406,1.061-1.428,3.166-7.848,1.568-12.013.19,2.967-2.73,6.337-5.943,8.226.887.07,1.471.156,1.471.156l.055.1a13.521,13.521,0,0,0,1.406-.973A6.765,6.765,0,0,0,700.815,1019.031Z" transform="translate(-410.604 -157.53)" fill="#f2ad82"/>
    <path id="Path_293" data-name="Path 293" d="M846.2,1009.4c.119-.71.458-1.367.589-2.078a9.346,9.346,0,0,0,.113-1.692c0-.027.008-.1.017-.178-.394-.765-.81-1.493-1.247-2.17a15.863,15.863,0,0,1,.879,4.4c-.134-.418-.258-.828-.39-1.23A20.9,20.9,0,0,1,846.2,1009.4Z" transform="translate(-544.549 -148.807)" fill="#f2ad82"/>
    <path id="Path_294" data-name="Path 294" d="M773.544,1339.3c.2.067.4.132.589.2q.42-.089.832-.186l.322-.077q.535-.131,1.056-.275l.052-.013h0C775.448,1339.1,774.5,1339.212,773.544,1339.3Z" transform="translate(-479.973 -449.311)" fill="#f2ad82"/>
    <path id="Path_295" data-name="Path 295" d="M622.018,1113.93a12.145,12.145,0,0,0,5.583-.852,27.015,27.015,0,0,0-4.626-.106A2.487,2.487,0,0,1,622.018,1113.93Z" transform="translate(-344.32 -246.955)" fill="#f2ad82"/>
    <path id="Path_296" data-name="Path 296" d="M502.186,844.286a4.543,4.543,0,0,0-4.648,1.37,13.973,13.973,0,0,1,3.158-4.411,7.446,7.446,0,0,0-4.148,3.132c.4-.989.576-2.152.9-3.122.269-.814.6-1.648.852-2.438a12.643,12.643,0,0,0-3.7,5.94q-.127-.176-.267-.353a18.535,18.535,0,0,1-.112-2.248,13.623,13.623,0,0,1,.237-2.532,5.72,5.72,0,0,0-.777,2.377,9.267,9.267,0,0,0-.038,1.6,24.751,24.751,0,0,0-3.693-3.193c-2.61-1.85-5.664-3.549-8.974-3.325a27.441,27.441,0,0,0-13.421,4.281,15.961,15.961,0,0,0-3.643,3.538,13.221,13.221,0,0,0-1.891,3.525,10.279,10.279,0,0,0-.557,2.664c-.715-.727-1.5-1.385-1.918-1.741-.74-.638-2.406-1.374-1.85.248a10.034,10.034,0,0,0,1.887,3.007c-.359-.151-.717-.28-1.03-.4-.588-.225-2.291-1.128-2.91-.816-1.16.585,1.73,2.139,2.16,2.386a9.6,9.6,0,0,0,1.81.889,2.024,2.024,0,0,0-.352.348,16.735,16.735,0,0,0-2.793,7.212,37.335,37.335,0,0,0-.653,7.708c.012.273.175.927.049,1.165a23.868,23.868,0,0,1,1.065-2.568,12.789,12.789,0,0,0-.014,6.4,8.416,8.416,0,0,1,.786-2.716,28.44,28.44,0,0,0,.326,3.1,11.643,11.643,0,0,0,.7,2.468q.149.36.315.716c1.639-2.121,5.068-.425,5.068-.425a4.752,4.752,0,0,1,1.46,1.43c-.157-.4-.342-.788-.445-1.159-.349-1.254-.461-2.554-.741-3.821a3.616,3.616,0,0,0,1.111,1.785,9.855,9.855,0,0,0-.559-1.714c-.237-.9-.218-1.841-.413-2.746.225.623.642,1.923,1.266,2.265a8.963,8.963,0,0,1-.514-2.81c0-.563.015-1.122.046-1.683a22.643,22.643,0,0,1,.244-2.288,9.111,9.111,0,0,1,.5-2.173,7.434,7.434,0,0,0,1.012-.13c3.162-.619,6.607-3.251,8.765-5.476a12.328,12.328,0,0,0,2.536-4.035,16.2,16.2,0,0,1-1.308,8.551,13.256,13.256,0,0,0-2.31.328,5.688,5.688,0,0,0-1.886.789,7.28,7.28,0,0,0-1.931,2.51s1.5-1.53,2.489-1.643c.114-.013.235-.022.356-.033a27.015,27.015,0,0,1,4.626.106,23.823,23.823,0,0,1,3.842.65,3.077,3.077,0,0,0-.143-2.4l-.055-.1s-.584-.086-1.471-.156c3.213-1.889,6.133-5.259,5.943-8.226,1.6,4.165-.506,10.585-1.568,12.013,5.661-1.445,11.52-6.367,10.816-12.406a8.426,8.426,0,0,1,.89,1.914q.041.118.081.236c.132.4.256.813.39,1.23a15.863,15.863,0,0,0-.879-4.4c.437.676.853,1.4,1.247,2.17a30.765,30.765,0,0,1,3.178,17.307c-.011.089-.019.177-.03.267s-.018.18-.03.27l.127-.156c3.139-3.653,4.191-10.293,4.2-14.27a14.993,14.993,0,0,0-.825-4.93l-.015-.051.019.027a7.258,7.258,0,0,1,.472.688,14.108,14.108,0,0,1,2.248,5.212c-.267-2.152-.118-4.292-.885-6.38a12.033,12.033,0,0,0-3.244-4.748,12.8,12.8,0,0,1,1.977.662c2.005.85,4.134,2.289,4.876,4.1-.164-.7-.206-1.455-.42-2.129a16.283,16.283,0,0,0-1.592-3.64,12.214,12.214,0,0,0-2.545-3,9.866,9.866,0,0,0-1.927-1.265A4.568,4.568,0,0,0,502.186,844.286Zm-19.636-5.309a12.484,12.484,0,0,1,5.62,2.735.21.21,0,0,1-.135.371l-.134-.049a12.1,12.1,0,0,0-5.444-2.648.21.21,0,1,1,.092-.409Zm-5.637,5.328-.091.021a.21.21,0,0,1-.091-.4,21.991,21.991,0,0,1,7.017-1.888.21.21,0,1,1,.052.416A21.6,21.6,0,0,0,476.913,844.3ZM462.959,855.6a10.359,10.359,0,0,1,1.529-2.138.21.21,0,0,1,.3.3,10,10,0,0,0-1.461,2.048.21.21,0,0,1-.183.106l-.1-.027A.209.209,0,0,1,462.959,855.6Zm11.881-13.374a.21.21,0,0,1-.09.282,20.31,20.31,0,0,0-5.552,4l-.151.064-.145-.059a.21.21,0,0,1-.006-.3,20.7,20.7,0,0,1,5.662-4.078A.209.209,0,0,1,474.841,842.225Zm-5.387,9.4a.21.21,0,0,1-.182.106l-.1-.027a.21.21,0,0,1-.078-.286c1.153-2.014,3.122-3.225,5.388-4.49a.21.21,0,1,1,.2.366C472.472,848.522,470.553,849.7,469.454,851.62Zm1.275,4.031a15.391,15.391,0,0,1-3.142,3.695l-.337.321-.145.058-.152-.065a.209.209,0,0,1,.007-.3l.338-.323a15.056,15.056,0,0,0,3.06-3.586.21.21,0,0,1,.371.2Zm1.72-15.106a2.338,2.338,0,0,0,.683-.29c.1-.058.206-.114.31-.164a17.7,17.7,0,0,1,4.917-1.414.208.208,0,0,1,.241.172.21.21,0,0,1-.173.241,17.342,17.342,0,0,0-4.8,1.38c-.1.047-.193.1-.289.153a2.663,2.663,0,0,1-.81.336l-.038,0a.21.21,0,0,1-.038-.416ZM469.055,843a.21.21,0,0,1-.018.3c-1.985,1.753-4.235,3.74-4.944,6.622a.21.21,0,0,1-.2.159l-.05-.006a.21.21,0,0,1-.153-.254c.74-3.009,3.042-5.042,5.073-6.835A.211.211,0,0,1,469.055,843Zm-7.619,30.682c.039.144.078.287.115.429a.21.21,0,0,1-.151.256l-.052.007a.21.21,0,0,1-.2-.158c-.036-.141-.074-.283-.113-.424a9.43,9.43,0,0,1-.341-1.628.21.21,0,1,1,.418-.037A9.141,9.141,0,0,0,461.436,873.686Zm-.778-7.877c0,.348,0,.693,0,1.033a.21.21,0,0,1-.21.209h0a.21.21,0,0,1-.209-.211c0-.339,0-.683,0-1.028a20.835,20.835,0,0,1,.382-5.076.21.21,0,0,1,.407.1A20.522,20.522,0,0,0,460.658,865.809Zm.056-10.354a.21.21,0,1,1,.37.2,20.1,20.1,0,0,0-1.7,5.033.21.21,0,0,1-.2.162l-.048-.006a.21.21,0,0,1-.157-.251A20.452,20.452,0,0,1,460.714,855.454Zm-2.192,10.408a.209.209,0,0,1,.419.014,26.349,26.349,0,0,0,.649,5.7c.057.3.115.609.17.913a.21.21,0,0,1-.168.244l-.038,0a.209.209,0,0,1-.206-.172q-.083-.455-.17-.911A26.618,26.618,0,0,1,458.522,865.862Zm4.036,4.491a51.664,51.664,0,0,1,1.05-9.008.21.21,0,0,1,.413.076,51.3,51.3,0,0,0-1.043,8.934.21.21,0,0,1-.21.208h0A.21.21,0,0,1,462.558,870.353Zm2.512-13.593a8.522,8.522,0,0,0-1.841,2.876c-.147.312-.287.609-.425.873a.211.211,0,0,1-.186.113l-.1-.024a.211.211,0,0,1-.089-.283c.135-.259.273-.551.417-.857a8.8,8.8,0,0,1,1.952-3.02.21.21,0,1,1,.268.323Zm1.234-2.535a25.475,25.475,0,0,0,.707-4.135c.012-.1.019-.2.026-.3a2.4,2.4,0,0,1,.257-1.069.21.21,0,0,1,.367.2,2.036,2.036,0,0,0-.206.9c-.008.1-.016.206-.028.315a25.789,25.789,0,0,1-.72,4.2.21.21,0,0,1-.2.153l-.057-.008A.209.209,0,0,1,466.3,854.226Zm7.159,3.339c-.257.277-.52.572-.792.875-1.687,1.885-3.6,4.021-6.045,4.569l-.046.006a.21.21,0,0,1-.046-.414c2.315-.519,4.179-2.6,5.824-4.441.273-.3.538-.6.8-.88a.21.21,0,0,1,.308.285Zm5.771-6.961c-2.048.181-4.672,1.056-5.9,2.97a.21.21,0,0,1-.177.1l-.113-.034a.21.21,0,0,1-.063-.289c1.307-2.042,4.067-2.972,6.214-3.161a.21.21,0,0,1,.037.417Zm1.1,8.04a10.653,10.653,0,0,1-.551,2.594.209.209,0,0,1-.195.132l-.077-.015a.21.21,0,0,1-.118-.273,10.359,10.359,0,0,0,.525-2.492c.042-.331.084-.659.137-.978a.207.207,0,0,1,.241-.173.21.21,0,0,1,.173.241C480.416,857.994,480.375,858.318,480.334,858.644Zm-3.978-10.4-.131.046a.21.21,0,0,1-.132-.373,13.851,13.851,0,0,1,5.109-2.153c.424-.116.841-.23,1.243-.351a.21.21,0,0,1,.12.4c-.4.121-.824.236-1.252.354A13.533,13.533,0,0,0,476.356,848.24Zm6.72,11.417a.209.209,0,0,1-.2.142l-.068-.011a.209.209,0,0,1-.131-.266c.893-2.626-.2-5.449-1.261-7.615a.21.21,0,1,1,.377-.184C482.887,853.962,484.019,856.887,483.076,859.658Zm3.861-6.61-.1.024a.209.209,0,0,1-.186-.112c-.439-.836-2.042-3.618-4.214-4.309a.21.21,0,1,1,.127-.4c2.324.739,4,3.641,4.458,4.513A.209.209,0,0,1,486.937,853.047Zm2.46,9.665-.032.266a.21.21,0,0,1-.208.186h-.024a.21.21,0,0,1-.184-.233l.032-.267a12.151,12.151,0,0,0,.046-3.926.21.21,0,0,1,.41-.088A12.643,12.643,0,0,1,489.4,862.712Zm.922-6.879-.041,0a.21.21,0,0,1-.206-.169,20.063,20.063,0,0,0-2.221-5.846.21.21,0,1,1,.369-.2,20.465,20.465,0,0,1,2.264,5.965A.21.21,0,0,1,490.319,855.833Zm.67-7.227-.133.046-.15-.078c-1.329-1.826-3.31-4.541-5.805-4.474a.21.21,0,1,1-.012-.419c2.72-.068,4.775,2.749,6.135,4.617A.226.226,0,0,1,490.99,848.606Zm1.665,10.789a.21.21,0,0,1-.208.18l-.03,0a.21.21,0,0,1-.178-.237c.257-1.793.734-5.132-.349-7.043a.21.21,0,0,1,.365-.207C493.408,854.121,492.918,857.552,492.654,859.4Zm3.858-9.641-.1.028a.21.21,0,0,1-.182-.106c-.936-1.645-2.43-3.9-4.586-4.537a.21.21,0,0,1,.118-.4c2.3.675,3.861,3.024,4.833,4.733A.209.209,0,0,1,496.512,849.754Zm3.757,8.769-.049.006a.209.209,0,0,1-.2-.162c-.49-2.086-1.159-4.445-2.925-6.021a.21.21,0,1,1,.279-.313c1.857,1.658,2.55,4.09,3.055,6.239A.21.21,0,0,1,500.27,858.523Zm1.9,8.229h0a.209.209,0,0,1-.209-.209,15.937,15.937,0,0,0-.66-5.535.209.209,0,1,1,.393-.146,16.229,16.229,0,0,1,.686,5.679A.21.21,0,0,1,502.166,866.752Zm1.555-6.206a.21.21,0,0,1-.193.225h-.016a.209.209,0,0,1-.209-.194,21.373,21.373,0,0,0-1.557-6.071.21.21,0,1,1,.392-.149A21.736,21.736,0,0,1,503.72,860.546Zm-.716-7.14a.21.21,0,0,1-.038.294l-.128.044a.209.209,0,0,1-.166-.081c-2.151-2.772-3.485-3.275-4.227-3.209a.21.21,0,1,1-.038-.418C499.639,849.931,501.184,851.061,503,853.406Zm.477-4.653a.209.209,0,0,1-.195.132l-.078-.014a13.335,13.335,0,0,0-5.156-.808.21.21,0,0,1,0-.42,13.726,13.726,0,0,1,5.31.838A.21.21,0,0,1,503.481,848.753Z" transform="translate(-195.128 0)" fill="#231a14"/>
    <path id="Path_297" data-name="Path 297" d="M484.47,1037.091a2.288,2.288,0,0,0-.125.541,2.963,2.963,0,0,0-.012.462,4.862,4.862,0,0,0,.348,1.53h0c.99,2.555,3.872,5.271,6.07,4.329a2.824,2.824,0,0,0,.685-.432c.141.154.29.3.44.449l.092.093c.251.241.516.468.789.688.07.057.143.112.215.167q.35.27.721.52c.058.039.113.079.171.117q.447.29.922.551c.076.043.154.082.231.123q.4.21.81.4c.079.036.156.074.236.109q.506.225,1.033.424c.073.028.147.052.221.079q.446.161.906.3c.095.029.188.059.284.088.238.071.479.137.722.2-.067-.176-.134-.355-.2-.527.9.035,1.83.091,2.789.166l-.015-.044a13.986,13.986,0,0,1-4.1-1.456,11.653,11.653,0,0,1-2.151-1.578,8.186,8.186,0,0,1-1.535-1.771,5.743,5.743,0,0,1-.75-2.332c-.13-1.073-.307-2.138-.465-3.207a22.106,22.106,0,0,1-.277-6.232,14.317,14.317,0,0,1,2.02-5.914,6.044,6.044,0,0,1,2.144-1.647,20.139,20.139,0,0,0,3.708-2.691c.863-.812,1.452-1.892,2.272-2.7a39.346,39.346,0,0,1-1.979,4.194,13.268,13.268,0,0,1,2.31-.328,16.2,16.2,0,0,0,1.308-8.551,12.328,12.328,0,0,1-2.536,4.036c-2.158,2.225-5.6,4.857-8.765,5.476a7.424,7.424,0,0,1-1.012.13,9.114,9.114,0,0,0-.5,2.173,22.645,22.645,0,0,0-.244,2.288c-.03.561-.046,1.12-.046,1.683a8.962,8.962,0,0,0,.514,2.81c-.624-.342-1.041-1.642-1.266-2.265.2.9.176,1.845.413,2.746a9.854,9.854,0,0,1,.559,1.714,3.616,3.616,0,0,1-1.111-1.785c.279,1.268.392,2.567.741,3.821.1.371.288.761.445,1.159a4.752,4.752,0,0,0-1.46-1.43s-3.429-1.7-5.068.425a3.18,3.18,0,0,0-.311.5A3.664,3.664,0,0,0,484.47,1037.091Zm3.225-.117a3.337,3.337,0,0,1,1.431.442,4.884,4.884,0,0,1,1.972,2.148,4.936,4.936,0,0,1,.438,1.391,3.7,3.7,0,0,1-.077,1.436,4.64,4.64,0,0,0-.647-2.677,5.5,5.5,0,0,0-.653-.9,1.27,1.27,0,0,0-.43.551,2.317,2.317,0,0,0-.027,1.857c.1.3.329.566.463.87-.164-.288-.411-.516-.559-.829a2.739,2.739,0,0,1-.294-.976,2.842,2.842,0,0,1,.123-1.032,1.647,1.647,0,0,1,.457-.738,4.257,4.257,0,0,0-.97-.736,3.015,3.015,0,0,0-1.261-.414,1.943,1.943,0,0,0-1.256.25,1.993,1.993,0,0,0-.8,2.38,2.029,2.029,0,0,1-.208-1.419,2.092,2.092,0,0,1,.835-1.23A2.166,2.166,0,0,1,487.7,1036.974Z" transform="translate(-221.055 -157.701)" fill="#f2ad82"/>
    <path id="Path_298" data-name="Path 298" d="M494.108,1241.521a2.029,2.029,0,0,0,.208,1.419,1.993,1.993,0,0,1,.8-2.38,1.944,1.944,0,0,1,1.256-.25,3.015,3.015,0,0,1,1.261.414,4.26,4.26,0,0,1,.97.736,1.647,1.647,0,0,0-.457.738,2.843,2.843,0,0,0-.123,1.032,2.74,2.74,0,0,0,.294.976c.148.313.4.541.559.829-.134-.3-.358-.566-.463-.87a2.317,2.317,0,0,1,.027-1.857,1.271,1.271,0,0,1,.43-.551,5.5,5.5,0,0,1,.653.9,4.64,4.64,0,0,1,.647,2.677,3.7,3.7,0,0,0,.077-1.436,4.936,4.936,0,0,0-.438-1.391,4.884,4.884,0,0,0-1.972-2.148,3.338,3.338,0,0,0-1.431-.442,2.166,2.166,0,0,0-1.465.376A2.092,2.092,0,0,0,494.108,1241.521Z" transform="translate(-229.766 -360.643)" fill="#eba176"/>
    <path id="Path_299" data-name="Path 299" d="M692.975,1275.667a2.719,2.719,0,0,1-.393-.966,12.073,12.073,0,0,1-1.839-.711l-.041.029a6.345,6.345,0,0,0,1.745,2.217A2.153,2.153,0,0,1,692.975,1275.667Z" transform="translate(-405.809 -391.157)" fill="#231a14"/>
    <path id="Path_300" data-name="Path 300" d="M779.129,1294.863c-.114.1-.234.2-.359.3C778.9,1295.062,779.015,1294.963,779.129,1294.863Z" transform="translate(-484.652 -409.844)" fill="#231a14"/>
    <path id="Path_301" data-name="Path 301" d="M780.258,1278.608a2.673,2.673,0,0,1-.559,1,1.986,1.986,0,0,1,.279.353,9.241,9.241,0,0,0,1.469-1.656l-.079-.07Q780.807,1278.449,780.258,1278.608Z" transform="translate(-485.484 -394.956)" fill="#231a14"/>
    <path id="Path_302" data-name="Path 302" d="M715.49,1280.883h0c-.4.115-.785.206-1.169.28l-.129.022q-.51.094-1,.146l-.182.017q-.462.042-.906.054l-.2,0c-.286,0-.566,0-.839-.015-.066,0-.132-.006-.2-.01-.271-.016-.534-.041-.79-.071l-.17-.019c-.269-.034-.528-.076-.778-.122l-.1-.018a14.742,14.742,0,0,1-1.536-.378,2.718,2.718,0,0,0,.393.966,2.153,2.153,0,0,0-.528.569h0c.108.085.22.167.338.247l0,0c.115.077.235.152.36.223l.014.009c.12.069.245.134.375.2l.035.018c.124.059.254.114.387.168l.059.025c.128.05.262.1.4.141l.087.03c.128.041.264.077.4.113l.125.035c.138.034.283.063.429.091l.138.03q.294.053.611.094a4.237,4.237,0,0,0,.618.032c.07,0,.136-.013.2-.018.13-.009.261-.015.388-.035.067-.011.13-.031.2-.044.123-.026.248-.049.367-.084.061-.017.118-.043.178-.063.119-.04.24-.079.355-.127l.139-.066c.122-.056.246-.112.363-.175l.1-.061c.124-.071.248-.143.365-.22l.063-.046c.127-.086.251-.173.369-.264l.016-.013c.125-.1.245-.2.359-.3l.018-.016h0a1.983,1.983,0,0,0-.279-.353A2.674,2.674,0,0,0,715.49,1280.883Z" transform="translate(-420.716 -397.231)" fill="#fff"/>
    <path id="Path_303" data-name="Path 303" d="M681.291,1265a1.677,1.677,0,0,0,.594-1.05c-.125.158-.229.32-.36.459a3.406,3.406,0,0,1-.4.393,4.279,4.279,0,0,1-.978.606,1.551,1.551,0,0,0,.62-.1,1.7,1.7,0,0,0,.486-.274l.041-.029Z" transform="translate(-396.357 -382.172)" fill="#eba176"/>
    <path id="Path_304" data-name="Path 304" d="M792.951,1271.827a2.243,2.243,0,0,1-.572-.594,1.152,1.152,0,0,0,.142.484.883.883,0,0,0,.2.249l.079.07.013.012a.974.974,0,0,0,.884.1,3.509,3.509,0,0,1-.4-.127A1.7,1.7,0,0,1,792.951,1271.827Z" transform="translate(-496.835 -388.689)" fill="#eba176"/>
    <path id="Path_305" data-name="Path 305" d="M742.332,1313.922a8.359,8.359,0,0,1-.955.4,5.946,5.946,0,0,1-.983.241,8.327,8.327,0,0,1-2.048.073,3.84,3.84,0,0,0,2.1.218A3.472,3.472,0,0,0,742.332,1313.922Z" transform="translate(-448.462 -426.906)" fill="#eba176"/>
    <path id="Path_306" data-name="Path 306" d="M625.575,1232.3c1.773.064,3.222-.639,3.233-1.571s-1.411-1.733-3.185-1.8-3.22.64-3.235,1.57S623.8,1232.234,625.575,1232.3Z" transform="translate(-344.651 -350.813)" fill="#eba176"/>
    <path id="Path_307" data-name="Path 307" d="M619.022,1258.5a.216.216,0,0,0,.1-.421A.216.216,0,0,0,619.022,1258.5Z" transform="translate(-341.494 -376.909)" fill="#eba176"/>
    <path id="Path_308" data-name="Path 308" d="M646.856,1265.816a.216.216,0,0,0-.1.421A.216.216,0,0,0,646.856,1265.816Z" transform="translate(-366.325 -383.834)" fill="#eba176"/>
    <path id="Path_309" data-name="Path 309" d="M676.546,1262.432a.216.216,0,0,0-.1.421A.216.216,0,0,0,676.546,1262.432Z" transform="translate(-392.905 -380.805)" fill="#eba176"/>
    <path id="Path_310" data-name="Path 310" d="M658.881,1277.123a.216.216,0,0,0-.1.421A.216.216,0,0,0,658.881,1277.123Z" transform="translate(-377.091 -393.957)" fill="#eba176"/>
    <path id="Path_311" data-name="Path 311" d="M628.389,1276.387a.216.216,0,0,0,.1-.421A.216.216,0,0,0,628.389,1276.387Z" transform="translate(-349.88 -392.921)" fill="#eba176"/>
    <path id="Path_312" data-name="Path 312" d="M813.852,1223.114c-1.659.169-2.947,1.055-2.878,1.981s1.464,1.546,3.12,1.379,2.947-1.054,2.88-1.982S815.508,1222.947,813.852,1223.114Z" transform="translate(-513.48 -345.587)" fill="#eba176"/>
    <path id="Path_313" data-name="Path 313" d="M868.907,1250.5c-.25.079-.135.493.116.415S869.158,1250.426,868.907,1250.5Z" transform="translate(-565.222 -370.123)" fill="#eba176"/>
    <path id="Path_314" data-name="Path 314" d="M843.38,1259.861c-.25.078-.135.493.116.414S843.631,1259.782,843.38,1259.861Z" transform="translate(-542.369 -378.499)" fill="#eba176"/>
    <path id="Path_315" data-name="Path 315" d="M815.37,1258.224c-.251.078-.135.493.115.414S815.621,1258.146,815.37,1258.224Z" transform="translate(-517.292 -377.034)" fill="#eba176"/>
    <path id="Path_316" data-name="Path 316" d="M832.781,1271.849c-.251.078-.136.493.115.414S833.031,1271.771,832.781,1271.849Z" transform="translate(-532.879 -389.232)" fill="#eba176"/>
    <path id="Path_317" data-name="Path 317" d="M861.185,1268.913c-.251.078-.136.493.115.415S861.435,1268.834,861.185,1268.913Z" transform="translate(-558.308 -386.603)" fill="#eba176"/>
    <path id="Path_318" data-name="Path 318" d="M754.166,1227.611c-.621.094-1.026.523-1.475.567a.361.361,0,0,1-.268-.069.675.675,0,0,1-.168-.291,1.83,1.83,0,0,1-.075-.771,1.616,1.616,0,0,0-.111.813.868.868,0,0,0,.169.424.615.615,0,0,0,.46.2c.642-.019,1.068-.451,1.523-.484a.6.6,0,0,1,.556.154.974.974,0,0,1,.188.633,2.4,2.4,0,0,1-.475,1.437,2.017,2.017,0,0,0,.781-1.423,1.223,1.223,0,0,0-.206-.881A.963.963,0,0,0,754.166,1227.611Z" transform="translate(-460.738 -349.132)" fill="#eba176"/>
    <path id="Path_319" data-name="Path 319" d="M750.715,1254.552a.319.319,0,0,0-.255.066.49.49,0,0,0-.155.228.522.522,0,0,0,0,.273.332.332,0,0,0,.164.2.634.634,0,0,1-.013-.432A.541.541,0,0,1,750.715,1254.552Z" transform="translate(-459.153 -373.751)" fill="#eba176"/>
    <path id="Path_320" data-name="Path 320" d="M614.84,1147.782a3.926,3.926,0,0,1,.017-1.535l0-.007a.79.79,0,0,0,.259.052.815.815,0,0,0,.815-.815.8.8,0,0,0-.371-.667l.009-.011a2.291,2.291,0,0,1,1.321-.767c1.464-.269,2.92.973,3.251,2.776a3.743,3.743,0,0,1-.252,2.236,7.074,7.074,0,0,0,1.657-.537v-.006a9.546,9.546,0,0,0-.231-1.805,8.329,8.329,0,0,0-.552-1.721,5.943,5.943,0,0,0-2.3-2.68,4.362,4.362,0,0,0-3.43-.623,5.287,5.287,0,0,0-1.664.728,7.4,7.4,0,0,0-1.424,1.173l.03-.039-.032.039a9.152,9.152,0,0,0,2.949,4.443C614.874,1147.937,614.857,1147.862,614.84,1147.782Z" transform="translate(-335.304 -272.592)" fill="#fff"/>
    <path id="Path_321" data-name="Path 321" d="M613.387,1139.181a5.289,5.289,0,0,1,1.664-.728,4.362,4.362,0,0,1,3.43.623,5.942,5.942,0,0,1,2.3,2.68,8.323,8.323,0,0,1,.552,1.721,9.537,9.537,0,0,1,.231,1.805v.006a8.028,8.028,0,0,0-.477-3.654,6.483,6.483,0,0,0-.935-1.645,5.675,5.675,0,0,0-1.441-1.267,5.054,5.054,0,0,0-1.807-.706,4.173,4.173,0,0,0-1.941.128,5.842,5.842,0,0,0-2.97,2.172l-.03.039A7.406,7.406,0,0,1,613.387,1139.181Z" transform="translate(-335.319 -269.372)" fill="#eba176"/>
    <path id="Path_322" data-name="Path 322" d="M644.3,1167.7c-.331-1.8-1.787-3.045-3.251-2.776a2.291,2.291,0,0,0-1.321.768l-.008.01a.8.8,0,0,1,.371.667.815.815,0,0,1-.815.815.789.789,0,0,1-.259-.052l0,.007a3.926,3.926,0,0,0-.017,1.535c.017.08.034.155.055.235a6.1,6.1,0,0,0,5,1.028A3.742,3.742,0,0,0,644.3,1167.7Z" transform="translate(-359.463 -293.487)" fill="#231a14"/>
    <path id="Path_323" data-name="Path 323" d="M813.44,1143.531l.027.044a6.431,6.431,0,0,0-1.128-1.173,3.816,3.816,0,0,0-1.318-.728,2.875,2.875,0,0,0-2.716.623,5.776,5.776,0,0,0-1.821,2.68,9.969,9.969,0,0,0-.437,1.721,11.864,11.864,0,0,0-.183,1.8v.007a4.878,4.878,0,0,0,1.309.537,4.654,4.654,0,0,1-.2-2.236c.263-1.8,1.415-3.045,2.574-2.776a1.79,1.79,0,0,1,1.046.767l.007.011a.867.867,0,0,0-.294.667.746.746,0,0,0,.646.815.51.51,0,0,0,.2-.051l0,.011a4.823,4.823,0,0,1,.014,1.531c-.01.08-.024.155-.04.235a9.515,9.515,0,0,0,2.335-4.443Z" transform="translate(-508.908 -272.592)" fill="#fff"/>
    <path id="Path_324" data-name="Path 324" d="M805.751,1143.477a9.97,9.97,0,0,1,.437-1.721,5.776,5.776,0,0,1,1.821-2.68,2.875,2.875,0,0,1,2.716-.623,3.817,3.817,0,0,1,1.318.728,6.435,6.435,0,0,1,1.128,1.173l-.027-.044a4.864,4.864,0,0,0-2.35-2.167,2.648,2.648,0,0,0-1.537-.128,3.567,3.567,0,0,0-1.431.706,5.031,5.031,0,0,0-1.14,1.267,7.071,7.071,0,0,0-.74,1.645,9.991,9.991,0,0,0-.378,3.654v-.007A11.866,11.866,0,0,1,805.751,1143.477Z" transform="translate(-508.612 -269.372)" fill="#eba176"/>
    <path id="Path_325" data-name="Path 325" d="M820.219,1168.677a4.823,4.823,0,0,0-.014-1.531l0-.011a.508.508,0,0,1-.2.051.746.746,0,0,1-.646-.815.867.867,0,0,1,.294-.667l-.007-.01a1.79,1.79,0,0,0-1.046-.768c-1.159-.269-2.312.973-2.574,2.776a4.654,4.654,0,0,0,.2,2.236,4.052,4.052,0,0,0,3.96-1.028C820.2,1168.832,820.209,1168.757,820.219,1168.677Z" transform="translate(-517.954 -293.487)" fill="#231a14"/>
    <path id="Path_326" data-name="Path 326" d="M814.132,1093.86c.513.062,1.518,1.5,1.518,1.5a9.774,9.774,0,0,0-1.385-2.379c-1.65-1.711-4.734-.441-4.734-.441a5.774,5.774,0,0,0,.323,2.479A7.388,7.388,0,0,1,814.132,1093.86Z" transform="translate(-512.153 -228.307)" fill="#231a14"/>
    <path id="Path_327" data-name="Path 327" d="M524.215,1076.628a.21.21,0,0,0,.21-.208,51.3,51.3,0,0,1,1.043-8.934.21.21,0,0,0-.412-.076,51.665,51.665,0,0,0-1.05,9.008.209.209,0,0,0,.208.211Z" transform="translate(-256.575 -206.064)" fill="#3d2f28"/>
    <path id="Path_328" data-name="Path 328" d="M489.913,1017.071l.048.006a.209.209,0,0,0,.2-.162,20.1,20.1,0,0,1,1.7-5.033.21.21,0,1,0-.37-.2,20.451,20.451,0,0,0-1.739,5.135A.21.21,0,0,0,489.913,1017.071Z" transform="translate(-225.909 -156.23)" fill="#3d2f28"/>
    <path id="Path_329" data-name="Path 329" d="M502.467,1061.537a.209.209,0,0,0-.254.153,20.833,20.833,0,0,0-.382,5.076c0,.346,0,.69,0,1.028a.21.21,0,0,0,.209.211h0a.21.21,0,0,0,.21-.209c0-.34,0-.685,0-1.033a20.517,20.517,0,0,1,.37-4.973A.209.209,0,0,0,502.467,1061.537Z" transform="translate(-236.721 -200.955)" fill="#3d2f28"/>
    <path id="Path_330" data-name="Path 330" d="M486.232,1116.956a.209.209,0,0,0,.206.172l.038,0a.209.209,0,0,0,.168-.244c-.055-.3-.112-.608-.17-.913a26.35,26.35,0,0,1-.649-5.7.209.209,0,0,0-.419-.014,26.616,26.616,0,0,0,.656,5.787Q486.148,1116.5,486.232,1116.956Z" transform="translate(-222.012 -244.395)" fill="#3d2f28"/>
    <path id="Path_331" data-name="Path 331" d="M506.355,1170a.21.21,0,0,0-.19.228,9.431,9.431,0,0,0,.341,1.628c.039.142.077.284.113.424a.21.21,0,0,0,.2.158l.052-.007a.21.21,0,0,0,.151-.256c-.037-.142-.076-.286-.115-.429a9.139,9.139,0,0,1-.328-1.555A.209.209,0,0,0,506.355,1170Z" transform="translate(-240.603 -298.062)" fill="#3d2f28"/>
    <path id="Path_332" data-name="Path 332" d="M567.185,1029.481c-.258.279-.524.576-.8.88-1.645,1.838-3.509,3.922-5.824,4.441a.21.21,0,0,0,.046.414l.046-.006c2.446-.548,4.358-2.684,6.045-4.569.271-.3.535-.6.792-.875a.21.21,0,0,0-.308-.285Z" transform="translate(-289.159 -172.202)" fill="#3d2f28"/>
    <path id="Path_333" data-name="Path 333" d="M568.86,1011.686a15.06,15.06,0,0,1-3.06,3.586l-.338.323a.209.209,0,0,0-.007.3l.152.065.145-.058.337-.321a15.392,15.392,0,0,0,3.142-3.695.21.21,0,0,0-.371-.2Z" transform="translate(-293.631 -156.231)" fill="#3d2f28"/>
    <path id="Path_334" data-name="Path 334" d="M524.972,1021.613a8.8,8.8,0,0,0-1.952,3.02c-.144.306-.282.6-.417.857a.21.21,0,0,0,.089.283l.1.024a.211.211,0,0,0,.186-.113c.137-.264.278-.561.425-.873a8.524,8.524,0,0,1,1.841-2.876.21.21,0,1,0-.268-.323Z" transform="translate(-255.298 -165.175)" fill="#3d2f28"/>
    <path id="Path_335" data-name="Path 335" d="M527.783,995.534a.21.21,0,0,0,.183-.106,10,10,0,0,1,1.461-2.048.21.21,0,0,0-.3-.3,10.357,10.357,0,0,0-1.529,2.138.209.209,0,0,0,.078.286Z" transform="translate(-259.77 -139.622)" fill="#3d2f28"/>
    <path id="Path_336" data-name="Path 336" d="M534.717,900a.209.209,0,0,0,.153.254l.05.006a.21.21,0,0,0,.2-.159c.709-2.882,2.959-4.869,4.944-6.622a.21.21,0,1,0-.277-.314C537.759,894.958,535.457,896.991,534.717,900Z" transform="translate(-266.16 -50.179)" fill="#3d2f28"/>
    <path id="Path_337" data-name="Path 337" d="M591.792,931.04a.21.21,0,0,0-.285-.081c-2.266,1.265-4.235,2.476-5.388,4.49a.21.21,0,0,0,.078.286l.1.027a.21.21,0,0,0,.182-.106c1.1-1.921,3.018-3.1,5.228-4.332A.21.21,0,0,0,591.792,931.04Z" transform="translate(-312.157 -84.037)" fill="#3d2f28"/>
    <path id="Path_338" data-name="Path 338" d="M629.45,962.336c-2.147.189-4.906,1.12-6.214,3.161a.21.21,0,0,0,.063.289l.113.034a.21.21,0,0,0,.177-.1c1.225-1.914,3.85-2.788,5.9-2.97a.21.21,0,1,0-.037-.417Z" transform="translate(-345.381 -112.151)" fill="#3d2f28"/>
    <path id="Path_339" data-name="Path 339" d="M584.016,889.656l.145.059.151-.064a20.312,20.312,0,0,1,5.552-4,.21.21,0,0,0-.193-.373,20.7,20.7,0,0,0-5.662,4.078A.211.211,0,0,0,584.016,889.656Z" transform="translate(-310.242 -43.147)" fill="#3d2f28"/>
    <path id="Path_340" data-name="Path 340" d="M659.012,917.072a.21.21,0,0,0-.12-.4c-.4.121-.819.234-1.243.351a13.852,13.852,0,0,0-5.108,2.153.21.21,0,0,0,.132.373l.131-.046a13.532,13.532,0,0,1,4.956-2.075C658.187,917.308,658.608,917.193,659.012,917.072Z" transform="translate(-371.576 -71.261)" fill="#3d2f28"/>
    <path id="Path_341" data-name="Path 341" d="M616.99,854.718l.038,0a2.663,2.663,0,0,0,.81-.336c.1-.053.192-.106.289-.153a17.339,17.339,0,0,1,4.8-1.38.209.209,0,1,0-.068-.413,17.706,17.706,0,0,0-4.917,1.414c-.1.051-.207.107-.31.164a2.338,2.338,0,0,1-.683.29.21.21,0,0,0,.038.416Z" transform="translate(-339.632 -13.758)" fill="#3d2f28"/>
    <path id="Path_342" data-name="Path 342" d="M665.359,884.967a.21.21,0,1,0-.052-.416,21.993,21.993,0,0,0-7.017,1.888.21.21,0,0,0,.091.4l.091-.021A21.6,21.6,0,0,1,665.359,884.967Z" transform="translate(-376.686 -42.513)" fill="#3d2f28"/>
    <path id="Path_343" data-name="Path 343" d="M712.573,855.7a12.1,12.1,0,0,1,5.443,2.648l.134.049a.21.21,0,0,0,.135-.371,12.485,12.485,0,0,0-5.62-2.735.21.21,0,1,0-.092.409Z" transform="translate(-425.242 -16.319)" fill="#3d2f28"/>
    <path id="Path_344" data-name="Path 344" d="M735.447,900.237a.21.21,0,1,0,.011.419c2.5-.068,4.476,2.648,5.805,4.474l.149.078.133-.046a.226.226,0,0,0,.036-.308C740.223,902.986,738.168,900.169,735.447,900.237Z" transform="translate(-445.685 -56.556)" fill="#3d2f28"/>
    <path id="Path_345" data-name="Path 345" d="M712.682,943.787a.21.21,0,0,0-.127.4c2.172.691,3.774,3.473,4.214,4.309a.209.209,0,0,0,.186.113l.1-.024a.209.209,0,0,0,.088-.283C716.682,947.429,715.006,944.526,712.682,943.787Z" transform="translate(-425.242 -95.536)" fill="#3d2f28"/>
    <path id="Path_346" data-name="Path 346" d="M703.963,975.912a.21.21,0,0,0-.1.281c1.056,2.166,2.154,4.989,1.261,7.615a.209.209,0,0,0,.131.266l.068.011a.21.21,0,0,0,.2-.142c.943-2.771-.189-5.7-1.281-7.934A.209.209,0,0,0,703.963,975.912Z" transform="translate(-417.576 -124.285)" fill="#3d2f28"/>
    <path id="Path_347" data-name="Path 347" d="M685.492,1031.556a.207.207,0,0,0-.241.173c-.053.319-.094.647-.137.978a10.36,10.36,0,0,1-.524,2.492.209.209,0,0,0,.117.272l.077.015a.209.209,0,0,0,.195-.132,10.653,10.653,0,0,0,.551-2.594c.042-.326.082-.649.134-.963A.21.21,0,0,0,685.492,1031.556Z" transform="translate(-400.324 -174.117)" fill="#3d2f28"/>
    <path id="Path_348" data-name="Path 348" d="M765.327,955.936a.21.21,0,0,0-.084.284,20.06,20.06,0,0,1,2.221,5.846.21.21,0,0,0,.206.169l.041,0a.209.209,0,0,0,.165-.246,20.467,20.467,0,0,0-2.264-5.965A.21.21,0,0,0,765.327,955.936Z" transform="translate(-472.519 -106.399)" fill="#3d2f28"/>
    <path id="Path_349" data-name="Path 349" d="M776.163,1041.554a.209.209,0,0,0-.161.249,12.151,12.151,0,0,1-.046,3.926l-.032.267a.21.21,0,0,0,.184.233h.024a.21.21,0,0,0,.208-.186l.032-.266a12.643,12.643,0,0,0,.04-4.064A.209.209,0,0,0,776.163,1041.554Z" transform="translate(-482.102 -183.066)" fill="#3d2f28"/>
    <path id="Path_350" data-name="Path 350" d="M804.145,979.566a.21.21,0,0,0-.365.207c1.082,1.911.605,5.25.349,7.043a.21.21,0,0,0,.178.237l.03,0a.21.21,0,0,0,.208-.18C804.808,985.033,805.3,981.6,804.145,979.566Z" transform="translate(-507.018 -127.481)" fill="#3d2f28"/>
    <path id="Path_351" data-name="Path 351" d="M800.453,910.245a.21.21,0,0,0-.118.4c2.156.633,3.65,2.892,4.587,4.537a.21.21,0,0,0,.182.106l.1-.028a.209.209,0,0,0,.079-.286C804.315,913.269,802.756,910.92,800.453,910.245Z" transform="translate(-503.823 -65.508)" fill="#3d2f28"/>
    <path id="Path_352" data-name="Path 352" d="M856.4,985.755c-.5-2.149-1.2-4.581-3.055-6.239a.21.21,0,0,0-.279.313c1.766,1.576,2.436,3.935,2.925,6.021a.209.209,0,0,0,.2.162l.049-.006A.21.21,0,0,0,856.4,985.755Z" transform="translate(-551.101 -127.483)" fill="#3d2f28"/>
    <path id="Path_353" data-name="Path 353" d="M898.089,1000.881a.21.21,0,0,0-.121.271,21.374,21.374,0,0,1,1.557,6.071.209.209,0,0,0,.209.194h.016a.21.21,0,0,0,.193-.225A21.733,21.733,0,0,0,898.36,1001,.209.209,0,0,0,898.089,1000.881Z" transform="translate(-591.351 -146.646)" fill="#3d2f28"/>
    <path id="Path_354" data-name="Path 354" d="M894.08,1063.091a.209.209,0,1,0-.393.146,15.938,15.938,0,0,1,.66,5.534.209.209,0,0,0,.209.209h0a.21.21,0,0,0,.209-.211A16.23,16.23,0,0,0,894.08,1063.091Z" transform="translate(-587.519 -202.228)" fill="#3d2f28"/>
    <path id="Path_355" data-name="Path 355" d="M864.6,960.856a.21.21,0,0,0,.037.418c.742-.066,2.076.438,4.227,3.209a.209.209,0,0,0,.166.081l.128-.044a.209.209,0,0,0,.038-.294C867.378,961.881,865.833,960.75,864.6,960.856Z" transform="translate(-561.322 -110.82)" fill="#3d2f28"/>
    <path id="Path_356" data-name="Path 356" d="M861.055,938.066h0a.21.21,0,0,0,0,.42,13.335,13.335,0,0,1,5.156.808l.078.014a.21.21,0,0,0,.078-.4A13.727,13.727,0,0,0,861.055,938.066Z" transform="translate(-558.129 -90.423)" fill="#3d2f28"/>
    <path id="Path_357" data-name="Path 357" d="M559.9,953.225a.21.21,0,0,0,.2-.153,25.783,25.783,0,0,0,.72-4.2c.012-.109.02-.213.028-.315a2.035,2.035,0,0,1,.206-.9.21.21,0,0,0-.367-.2,2.4,2.4,0,0,0-.257,1.069c-.008.1-.015.2-.026.3a25.478,25.478,0,0,1-.707,4.135.209.209,0,0,0,.145.258Z" transform="translate(-288.52 -98.733)" fill="#3d2f28"/>
    <path id="Path_358" data-name="Path 358" d="M645.375,1306.862q-.67-.318-1.374-.625c-1.011-.443-2.078-.867-3.191-1.264-.193-.069-.393-.134-.589-.2-.805-.276-1.627-.541-2.48-.781a42.688,42.688,0,0,0-8.331-1.478c.119.376.238.766.357,1.16-.945-.1-1.862-.174-2.739-.222.122.345.244.7.366,1.063l.015.044c-.96-.076-1.892-.131-2.789-.166.067.172.134.351.2.527.184.482.368.974.551,1.484a85.756,85.756,0,0,1,9.313,1.041,87.959,87.959,0,0,1,8.917,1.98c.746.206,1.474.416,2.178.632.614-.309,1.251-.615,1.905-.919,1.063-.5,2.184-.984,3.346-1.461,1.439-.59,2.946-1.163,4.534-1.7.49-.165.975-.321,1.456-.473,2.422-.789,4.742-1.428,6.937-1.945.127-.674.258-1.331.393-1.959-.815.155-1.658.336-2.525.54.066-.39.133-.775.2-1.148-.795.166-1.621.363-2.471.588.056-.407.113-.808.171-1.2a37.035,37.035,0,0,0-7.412,2.585,42.744,42.744,0,0,0-5.259,2.965l-.159.1C646.466,1306.319,645.8,1306.573,645.375,1306.862Zm-11.874-2.688c1.115.192,2.224.425,3.329.679,1.1.276,2.2.569,3.276.925a25.736,25.736,0,0,1,3.162,1.279c-1.05-.439-2.122-.806-3.2-1.143s-2.176-.62-3.276-.88-2.2-.5-3.313-.721-2.22-.426-3.337-.606C631.265,1303.821,632.386,1303.981,633.5,1304.174Zm9.237,3.636c-.683-.271-1.381-.5-2.078-.726-1.4-.433-2.811-.834-4.242-1.144-1.426-.33-2.864-.6-4.308-.834-.722-.117-1.446-.223-2.171-.315s-1.451-.184-2.18-.248c1.461.066,2.919.217,4.371.421s2.893.479,4.327.794,2.848.727,4.245,1.189a32.833,32.833,0,0,1,4.08,1.7C644.1,1308.361,643.433,1308.049,642.738,1307.811Zm18.571-5.6c-.632.155-1.259.328-1.883.517s-1.248.377-1.867.582c-1.239.412-2.469.859-3.68,1.363-1.218.485-2.407,1.058-3.584,1.661-.584.313-1.169.625-1.735.978-.581.323-1.13.716-1.693,1.079a27.839,27.839,0,0,1,3.375-2.188,37.613,37.613,0,0,1,3.581-1.706c1.22-.491,2.452-.942,3.7-1.325A36.877,36.877,0,0,1,661.309,1302.212Zm-10.685,2.759c.9-.487,1.831-.914,2.763-1.325.938-.39,1.883-.758,2.839-1.088s1.919-.627,2.892-.879c-.958.318-1.908.662-2.855,1.016s-1.889.723-2.82,1.126-1.857.822-2.768,1.28a30.226,30.226,0,0,0-2.672,1.531A21.826,21.826,0,0,1,650.624,1304.971Z" transform="translate(-346.65 -414.785)" fill="#e8e3d7"/>
    <path id="Path_359" data-name="Path 359" d="M607.43,1380.135a7.7,7.7,0,0,1,.853,2.433c.173-.041.438-.07.609-.1.371-.072.742-.122,1.107-.177.733-.1,1.451-.175,2.123-.229l.085-.006a.669.669,0,0,1,.672.648.734.734,0,0,1-.193.578,2.94,2.94,0,0,1-.549.434c.449-.051.888-.1,1.308-.129l.085-.007a.67.67,0,0,1,.672.648.734.734,0,0,1-.193.578,3.067,3.067,0,0,1-.816.581c.264-.026.524-.051.777-.071l.085-.007a.669.669,0,0,1,.672.647.735.735,0,0,1-.193.578,3.41,3.41,0,0,1-1.162.743,6,6,0,0,1-.6.209c-.2.044-.394.1-.591.129a1.235,1.235,0,0,1,.84.635,12.035,12.035,0,0,0,1.791.154,9.644,9.644,0,0,0,5.815-1.666c1.722-1.31,2.289-3.5,2.409-5.624a27.186,27.186,0,0,0-.521-6.842,20.1,20.1,0,0,0-1.606-4.886c.85.2,1.7.41,2.542.635l2.8,20.605c-.52.067-1.043.122-1.562.163a31.577,31.577,0,0,1-5.859-.084,32.171,32.171,0,0,1-7.447-1.728,6.165,6.165,0,0,1-1.555-.226,2.612,2.612,0,0,1-1.446-1.175c.016.22.027.435.04.652.019.308.039.618.053.919a33.553,33.553,0,0,0,10.133,2.764,32.635,32.635,0,0,0,8.85-.254l-3.074-22.589a90.057,90.057,0,0,0-9.1-2.021,87.712,87.712,0,0,0-12.169-1.175,66.851,66.851,0,0,1,4.323,14.265Z" transform="translate(-327.389 -473.414)" fill="#6ec8f2"/>
    <path id="Path_360" data-name="Path 360" d="M847.389,1339.89l.519,22.791a23.373,23.373,0,0,0,7.413-1.033,25.753,25.753,0,0,0,8.051-4.2c-.028-.263-.052-.535-.079-.8a1.609,1.609,0,0,1-1.449.436,24.526,24.526,0,0,1-6.883,3.41,22.708,22.708,0,0,1-4.873.932c-.439.035-.883.057-1.326.066l-.654-20.775c.67-.345,1.348-.674,2.027-1a23.183,23.183,0,0,0-.629,5.063,32.127,32.127,0,0,0,.557,6.84c.408,2.081,1.2,4.164,2.824,5.209a7.109,7.109,0,0,0,5.089.8,10.75,10.75,0,0,0,3.91-1.669l.009-.01a3.345,3.345,0,0,1-.34-.018,2.457,2.457,0,0,1-.363-.089,1.862,1.862,0,0,1-.764-.476.931.931,0,0,1-.218-.488c-.057-.351.046-.661.23-.692l.046-.008c.138-.024.282-.044.428-.064a1.82,1.82,0,0,1-.549-.388.932.932,0,0,1-.217-.488c-.057-.351.046-.661.229-.692l.046-.008c.23-.039.473-.072.722-.1a1.85,1.85,0,0,1-.378-.3.935.935,0,0,1-.217-.488c-.057-.351.046-.661.229-.692l.046-.008c.368-.062.766-.111,1.175-.143.205-.011.412-.027.624-.023.091,0,.224-.013.323-.008,0-.106,0-.209,0-.314a10.351,10.351,0,0,1-.018-1.873c.014-2.281.129-4.439.31-6.473a77.422,77.422,0,0,1,1.227-8.459C860.236,1334.686,850.006,1338.7,847.389,1339.89Z" transform="translate(-546.083 -444.578)" fill="#6ec8f2"/>
    <path id="Path_361" data-name="Path 361" d="M867.731,1408.544a.94.94,0,0,1,.3-.852,10.75,10.75,0,0,1-3.91,1.669,7.11,7.11,0,0,1-5.089-.8c-1.626-1.045-2.417-3.128-2.824-5.209a32.131,32.131,0,0,1-.557-6.84,23.188,23.188,0,0,1,.629-5.063c-.679.322-1.357.651-2.027,1l.654,20.775c.444-.009.888-.031,1.326-.066a22.707,22.707,0,0,0,4.873-.932,24.525,24.525,0,0,0,6.883-3.41A.361.361,0,0,1,867.731,1408.544Z" transform="translate(-552.227 -496.309)" fill="#4db7ea"/>
    <path id="Path_362" data-name="Path 362" d="M682.053,1418.993a32.164,32.164,0,0,0,7.447,1.728,31.566,31.566,0,0,0,5.859.084c.519-.041,1.042-.1,1.562-.163l-2.8-20.605c-.843-.225-1.691-.434-2.542-.635a20.094,20.094,0,0,1,1.606,4.886,27.189,27.189,0,0,1,.521,6.842c-.12,2.123-.687,4.314-2.409,5.624a9.645,9.645,0,0,1-5.815,1.666,12.068,12.068,0,0,1-1.791-.154.67.67,0,0,1,.038.166C683.758,1418.737,683.064,1419.009,682.053,1418.993Z" transform="translate(-398.066 -503.431)" fill="#4db7ea"/>
    <path id="Path_363" data-name="Path 363" d="M637.066,1330.15c-1.849.622-3.592,1.284-5.253,1.963-1.12.458-2.209.923-3.242,1.395-.7.32-1.39.643-2.052.966-.7-.216-1.432-.426-2.178-.632a87.962,87.962,0,0,0-8.917-1.98,85.756,85.756,0,0,0-9.313-1.041c-.894-.051-1.765-.088-2.608-.11l-.4.95a87.675,87.675,0,0,1,12.169,1.175,89.991,89.991,0,0,1,9.1,2.021l3.074,22.589c.3-.05.6-.1.873-.159q.429.017.891.019l-.519-22.791c2.617-1.193,12.847-5.2,17.075-6.229a1.3,1.3,0,0,0,.33-.629c-.46.1-.929.208-1.4.319-2.2.517-4.515,1.155-6.937,1.945C637.53,1330,637.3,1330.072,637.066,1330.15Z" transform="translate(-327.389 -439.203)" fill="#aedff9"/>
    <path id="Path_364" data-name="Path 364" d="M843.951,1320.14a37.6,37.6,0,0,0-3.581,1.706,27.825,27.825,0,0,0-3.376,2.188c.563-.364,1.111-.757,1.693-1.079.566-.354,1.151-.666,1.735-.978,1.177-.6,2.365-1.176,3.584-1.661,1.211-.5,2.441-.952,3.68-1.363.619-.2,1.241-.4,1.867-.582s1.251-.363,1.883-.517a36.912,36.912,0,0,0-3.784.961C846.4,1319.2,845.17,1319.649,843.951,1320.14Z" transform="translate(-536.777 -430.426)" fill="#dad1bd"/>
    <path id="Path_365" data-name="Path 365" d="M850.509,1316.2q1.367-.687,2.768-1.28c.931-.4,1.874-.768,2.82-1.126s1.9-.7,2.855-1.016c-.973.251-1.937.549-2.892.879s-1.9.7-2.839,1.088c-.932.41-1.858.838-2.763,1.325a21.814,21.814,0,0,0-2.62,1.662A30.267,30.267,0,0,1,850.509,1316.2Z" transform="translate(-546.484 -425.88)" fill="#dad1bd"/>
    <path id="Path_366" data-name="Path 366" d="M663.28,1341.321c-1.434-.315-2.876-.59-4.327-.794s-2.909-.355-4.371-.421c.729.064,1.455.148,2.18.248s1.449.2,2.171.315c1.444.234,2.882.5,4.308.834,1.431.31,2.841.711,4.242,1.144.7.228,1.395.454,2.078.726.7.238,1.363.551,2.043.832a32.85,32.85,0,0,0-4.08-1.7C666.129,1342.048,664.712,1341.646,663.28,1341.321Z" transform="translate(-373.474 -450.347)" fill="#dad1bd"/>
    <path id="Path_367" data-name="Path 367" d="M683.971,1333.467q1.65.39,3.276.88c1.08.337,2.153.7,3.2,1.143a25.737,25.737,0,0,0-3.162-1.28c-1.08-.356-2.176-.649-3.276-.925-1.1-.255-2.214-.488-3.329-.68s-2.236-.353-3.36-.466c1.116.18,2.228.389,3.337.606S682.873,1333.2,683.971,1333.467Z" transform="translate(-393.83 -443.216)" fill="#dad1bd"/>
    <path id="Path_368" data-name="Path 368" d="M972.951,1479.873c.113-3.7-1.094-4.995-1.094-4.995l-.017.139a10.353,10.353,0,0,0,.018,1.873c.009.113.018.221.025.313h-.021c-.1-.005-.232.009-.323.008-.212,0-.419.012-.624.023-.409.033-.807.081-1.175.143l-.046.008c-.184.031-.286.341-.229.692a.935.935,0,0,0,.217.488,1.856,1.856,0,0,0,.378.3c-.249.028-.492.061-.722.1l-.046.008c-.184.031-.286.341-.229.692a.931.931,0,0,0,.217.488,1.82,1.82,0,0,0,.549.388c-.146.019-.289.04-.427.064l-.046.008c-.184.031-.287.341-.23.692a.93.93,0,0,0,.217.488,1.861,1.861,0,0,0,.764.476,2.461,2.461,0,0,0,.363.089,3.345,3.345,0,0,0,.34.018l-.009.011a.94.94,0,0,0-.3.852.36.36,0,0,0,.258.266,1.609,1.609,0,0,0,1.449-.436l.079-.059C972.854,1482.512,972.91,1481.234,972.951,1479.873Z" transform="translate(-654.995 -571.001)" fill="#fbbd96"/>
    <path id="Path_369" data-name="Path 369" d="M638.265,1507.59a11.858,11.858,0,0,0,.939,1.879,2.612,2.612,0,0,0,1.446,1.175,6.164,6.164,0,0,0,1.555.226c1.011.016,1.706-.256,1.676-.562a.674.674,0,0,0-.038-.166,1.235,1.235,0,0,0-.84-.635c.2-.031.394-.084.591-.129a5.967,5.967,0,0,0,.6-.209,3.41,3.41,0,0,0,1.162-.743.734.734,0,0,0,.193-.578.669.669,0,0,0-.672-.647l-.085.007c-.253.02-.513.044-.777.071a3.069,3.069,0,0,0,.816-.581.733.733,0,0,0,.194-.578.67.67,0,0,0-.672-.648l-.085.007c-.42.034-.86.078-1.308.129a2.944,2.944,0,0,0,.549-.434.734.734,0,0,0,.193-.578.669.669,0,0,0-.672-.648l-.085.006c-.672.054-1.39.131-2.123.229-.365.055-.736.1-1.107.177-.171.033-.436.062-.609.1a7.7,7.7,0,0,0-.853-2.433l0,0a3.4,3.4,0,0,0-.685,1.843,5.246,5.246,0,0,0-.03.6A8.042,8.042,0,0,0,638.265,1507.59Z" transform="translate(-358.219 -595.308)" fill="#fbbd96"/>
  </g>
</svg>
