<svg id="Group_2803" data-name="Group 2803" xmlns="http://www.w3.org/2000/svg" width="16.578"
    height="16.564" viewBox="0 0 16.578 16.564">
  <path id="Path_213" data-name="Path 213"
      d="M1439.343,315.591a5.383,5.383,0,0,1,.27-.838,2.515,2.515,0,0,1,2.24-1.455c.289-.016.58,0,.887,0,0-.208,0-.4,0-.593a.649.649,0,1,1,1.293-.006c0,.193,0,.386,0,.588h2.913c0-.215-.007-.434,0-.651a.645.645,0,0,1,1.289,0c.006.21,0,.42,0,.643h2.946c0-.215-.008-.434,0-.652a.643.643,0,0,1,.987-.527.624.624,0,0,1,.3.541c.005.209,0,.419,0,.652.19,0,.371,0,.552,0a3.17,3.17,0,0,1,1.193.164,2.568,2.568,0,0,1,1.678,2.323c.019,1.261.009,2.523.005,3.785a.645.645,0,1,1-1.29-.015c0-1.2,0-2.394,0-3.591a1.273,1.273,0,0,0-.732-1.232,1.3,1.3,0,0,0-.479-.127c-.3-.02-.6-.006-.924-.006,0,.2,0,.387,0,.579a.649.649,0,1,1-1.294,0c0-.188,0-.376,0-.575h-2.944c0,.178,0,.354,0,.53,0,.455-.253.749-.643.752a.66.66,0,0,1-.651-.744c0-.177,0-.354,0-.54h-2.913c0,.213.007.432,0,.65a.645.645,0,0,1-1.29-.018c0-.209,0-.417,0-.658a8.22,8.22,0,0,0-1.108.063,1.257,1.257,0,0,0-.994,1.219c0,.043,0,.086,0,.13q0,4.949,0,9.9a1.262,1.262,0,0,0,.734,1.244,1.6,1.6,0,0,0,.655.137c1.59.011,3.181.007,4.772,0a.718.718,0,0,1,.546.2.644.644,0,0,1-.186,1.034c-.048.023-.1.043-.146.064h-5.37a.334.334,0,0,0-.072-.029,2.514,2.514,0,0,1-1.97-1.462,5.8,5.8,0,0,1-.255-.806Z"
      transform="translate(-1439.343 -312)" fill="#fff" />
  <path id="Path_214" data-name="Path 214"
      d="M1478.6,355.453a10.654,10.654,0,0,1-1.106-.28,3.889,3.889,0,0,1-2.431-4.235,3.748,3.748,0,0,1,2.656-3.109,3.9,3.9,0,0,1,4.942,4.832,3.779,3.779,0,0,1-3.083,2.731c-.11.022-.221.041-.332.062Zm.318-6.535a2.62,2.62,0,1,0,2.626,2.618A2.629,2.629,0,0,0,1478.915,348.919Z"
      transform="translate(-1466.271 -338.889)" fill="#fff" />
  <path id="Path_215" data-name="Path 215"
      d="M1453.868,337.1a.646.646,0,1,1-.651.645A.649.649,0,0,1,1453.868,337.1Z"
      transform="translate(-1449.819 -330.953)" fill="#fff" />
  <path id="Path_216" data-name="Path 216"
      d="M1466,337.753a.646.646,0,1,1-.643-.652A.65.65,0,0,1,1466,337.753Z"
      transform="translate(-1458.496 -330.953)" fill="#fff" />
  <path id="Path_217" data-name="Path 217"
      d="M1476.846,337.1a.646.646,0,1,1-.645.65A.65.65,0,0,1,1476.846,337.1Z"
      transform="translate(-1467.173 -330.953)" fill="#fff" />
  <path id="Path_218" data-name="Path 218"
      d="M1488.341,338.393a.646.646,0,1,1,.644-.652A.649.649,0,0,1,1488.341,338.393Z"
      transform="translate(-1475.851 -330.953)" fill="#fff" />
  <path id="Path_219" data-name="Path 219"
      d="M1453.858,348.593a.646.646,0,1,1-.641.655A.649.649,0,0,1,1453.858,348.593Z"
      transform="translate(-1449.819 -339.63)" fill="#fff" />
  <path id="Path_220" data-name="Path 220"
      d="M1465.352,348.593a.646.646,0,1,1-.643.653A.649.649,0,0,1,1465.352,348.593Z"
      transform="translate(-1458.496 -339.63)" fill="#fff" />
  <path id="Path_221" data-name="Path 221"
      d="M1453.867,360.085a.646.646,0,1,1-.65.646A.649.649,0,0,1,1453.867,360.085Z"
      transform="translate(-1449.819 -348.308)" fill="#fff" />
  <path id="Path_222" data-name="Path 222"
      d="M1465.349,360.085a.646.646,0,1,1-.64.656A.649.649,0,0,1,1465.349,360.085Z"
      transform="translate(-1458.496 -348.308)" fill="#fff" />
  <path id="Path_223" data-name="Path 223"
      d="M1489.629,356.922c.128,0,.23-.006.332,0a.646.646,0,0,1,.608.653.637.637,0,0,1-.61.633c-.339.012-.678.013-1.017,0a.621.621,0,0,1-.6-.607q-.018-.694,0-1.389a.643.643,0,0,1,1.286,0C1489.637,356.439,1489.629,356.67,1489.629,356.922Z"
      transform="translate(-1476.334 -344.917)" fill="#fff" />
</svg>
