<svg id="Group_2971" data-name="Group 2971" xmlns="http://www.w3.org/2000/svg" width="29.898" height="29.885" viewBox="0 0 29.898 29.885">
    <path id="Path_669" data-name="Path 669" d="M882.593,467.692c-.3.614-.582,1.242-.916,1.838-.791,1.407-1.6,2.8-2.419,4.194a.55.55,0,0,0-.046.459,5.59,5.59,0,0,1,.218,1.255c.017,3.766.013,7.531.009,11.3a3.528,3.528,0,0,1-3.559,3.556q-6.438.008-12.874,0a.446.446,0,0,0-.452.263c-.705,1.243-1.424,2.478-2.14,3.715-.35.6-.837.6-1.189-.006-.711-1.229-1.427-2.454-2.124-3.69a.465.465,0,0,0-.5-.279,3.552,3.552,0,0,1-2.47-.7,3.428,3.428,0,0,1-1.428-2.835q-.014-5.678,0-11.356a3.527,3.527,0,0,1,3.493-3.537c1.975-.021,3.951-.006,5.926,0a.609.609,0,0,1,.673.478.563.563,0,0,1-.349.636,1.394,1.394,0,0,1-.43.05c-1,0-2,0-3.007,0-.876,0-1.752,0-2.628,0a2.379,2.379,0,0,0-2.513,2.506q0,5.546,0,11.093a2.369,2.369,0,0,0,2.484,2.5c.263,0,.526.009.788,0a.716.716,0,0,1,.708.41c.59,1.04,1.193,2.072,1.792,3.107.052.09.109.177.18.292.068-.105.122-.182.168-.263.588-1.018,1.186-2.032,1.758-3.059a.856.856,0,0,1,.841-.491q6.554.015,13.107.006a2.38,2.38,0,0,0,2.578-2.581q0-5.342,0-10.684v-.289l-.046-.025c-.052.082-.108.162-.156.246q-2.108,3.648-4.221,7.294a1.99,1.99,0,0,1-.516.575c-1.107.827-2.229,1.632-3.342,2.45a.681.681,0,0,1-.776.15.631.631,0,0,1-.289-.73.844.844,0,0,0-.011-.136H858.22c-.107,0-.215,0-.321-.006a.57.57,0,0,1-.527-.531.563.563,0,0,1,.42-.591,1.625,1.625,0,0,1,.4-.038q5.24,0,10.48,0h.388l.251-2.336H858.287c-.088,0-.175,0-.263,0a.586.586,0,0,1-.654-.557.6.6,0,0,1,.641-.609c.107,0,.214,0,.321,0q5.459,0,10.918.006a.467.467,0,0,0,.475-.279c.37-.672.761-1.331,1.183-2.062H858.24c-.107,0-.214,0-.321,0a.574.574,0,0,1-.091-1.135,1.955,1.955,0,0,1,.406-.027q6.51,0,13.02,0a.489.489,0,0,0,.5-.286c.678-1.2,1.375-2.393,2.065-3.589.052-.089.1-.18.179-.326h-6.262c-.564,0-.84-.189-.844-.577s.283-.591.833-.591c2.219,0,4.437,0,6.656.005a.449.449,0,0,0,.455-.263c.944-1.655,1.927-3.288,2.843-4.958a3.06,3.06,0,0,1,2.229-1.81h.467a8.438,8.438,0,0,1,1.235.524,2.442,2.442,0,0,1,.984,1.578ZM873,482.229l7.333-12.7-2.223-1.281-7.332,12.7Zm5.7-14.989,2.217,1.279a7.159,7.159,0,0,0,.414-.779,1.189,1.189,0,0,0-.231-1.277,1.223,1.223,0,0,0-1.23-.416C879.225,466.176,878.99,466.705,878.708,467.24Zm-6.558,15.844-1.683-.967-.255,2.381Z" transform="translate(-852.694 -464.831)" fill="#20a6ed"/>
    <path id="Path_670" data-name="Path 670" d="M878.871,481.534a.576.576,0,0,1-.595-.556.582.582,0,1,1,1.163-.023A.57.57,0,0,1,878.871,481.534Z" transform="translate(-866.707 -473.347)" fill="#20a6ed"/>
</svg>