<svg id="Group_2972" data-name="Group 2972" xmlns="http://www.w3.org/2000/svg" width="29.896" height="29.897" viewBox="0 0 29.896 29.897">
    <path id="Path_671" data-name="Path 671" d="M922.893,480.023v-5.547a1.585,1.585,0,0,1,1.83-1.226q5.313,0,10.626,0a3.611,3.611,0,0,1,2.869,1.311q2.574,2.964,5.173,5.907a.926.926,0,0,0,.375.251,8.962,8.962,0,0,1,3.981,14.167l-.236.287H948.8c.973,0,1.946-.006,2.919,0a1,1,0,0,1,1.065,1.085c0,.623,0,1.245,0,1.868a.922.922,0,0,1-.322.752.48.48,0,0,0-.18.427c.007.866-.015,1.733.01,2.6a1.129,1.129,0,0,1-.791,1.241h-21.37a1.162,1.162,0,0,1-.769-1.257c.031-.874.012-1.75,0-2.625a.48.48,0,0,0-.122-.322,1.113,1.113,0,0,1-.377-.881c0-.564,0-1.128,0-1.692,0-.822.373-1.2,1.192-1.2q1.867,0,3.734,0c.1,0,.2-.011.269-.015-2.977-4.022-2.962-7.989.052-11.985-.461-.457-.939-.941-1.432-1.41a.357.357,0,0,0-.3-.034,6.3,6.3,0,0,1-5.187-.387,1,1,0,0,0-.44-.11c-.748-.011-1.5-.007-2.246,0a1.406,1.406,0,0,1-1.119-.4A5.264,5.264,0,0,1,922.893,480.023Zm2.94.183c-.139-.268-.282-.508-.391-.764a.477.477,0,0,1,.24-.662c.268-.121.492.008.675.278a4.294,4.294,0,0,0,.848,1.053,4.945,4.945,0,0,0,4.836.665,1.205,1.205,0,0,1,1.4.308c1.117,1.14,2.252,2.261,3.38,3.389.42.42.83.849,1.263,1.255a1.585,1.585,0,0,0,1.649.377,1.487,1.487,0,0,0,1.063-1.237,1.651,1.651,0,0,0-.535-1.528q-3.049-3.039-6.09-6.087a1.458,1.458,0,0,1-.217-.235A.464.464,0,0,1,934,476.4a.458.458,0,0,1,.61-.08,1.325,1.325,0,0,1,.24.212q1.869,1.866,3.734,3.737a.47.47,0,0,0,.432.151c.762-.075,1.526-.124,2.29-.174a5.774,5.774,0,0,1,.586.024c-1.573-1.792-3.091-3.538-4.629-5.267a2.322,2.322,0,0,0-1.8-.761q-5.487,0-10.974,0c-.421,0-.6.184-.6.609,0,.584,0,1.168,0,1.751,0,1.012,0,2.024,0,3.035,0,.322.136.544.4.557C924.8,480.225,925.307,480.206,925.833,480.206Zm10.463,5.133a5.962,5.962,0,0,0,7.077,9.268,5.993,5.993,0,0,0,3.216-7.026c-.645-2.322-3.192-4.47-5.012-4.286.077.44.182.882.222,1.33a.448.448,0,0,0,.251.422,2.441,2.441,0,0,1,1.27,2.068.489.489,0,0,1-.337.551.443.443,0,0,1-.545-.164.926.926,0,0,1-.112-.382,1.514,1.514,0,0,0-.888-1.264,2.53,2.53,0,0,0-.1.47c-.01.7.005,1.4-.01,2.1a.344.344,0,0,0,.283.407,2.461,2.461,0,0,1,1.714,2.358,2.489,2.489,0,0,1-1.748,2.368.448.448,0,0,0-.295.264.654.654,0,0,1-.419.322.519.519,0,0,1-.442-.228c-.088-.266-.265-.33-.487-.412a2.459,2.459,0,0,1-1.587-2.242.489.489,0,0,1,.457-.563c.294-.017.488.163.533.5.01.077.01.156.021.232a1.343,1.343,0,0,0,.978,1.111c0-.906,0-1.81-.009-2.713a.321.321,0,0,0-.186-.225,2.509,2.509,0,0,1-1.8-2.393.407.407,0,0,0-.164-.251c-.324-.244-.678-.45-.984-.714S936.6,485.651,936.3,485.339Zm14.972,16.794v-2.953H930.385v2.953Zm.516-5.946h-21.9v1.955h21.9Zm-12.165-14.873c.292.285.516.528.767.74a.788.788,0,0,0,.4.165c.4.047.822.021,1.218.1a6.976,6.976,0,0,1,3.44,12.088c-.279.261-.6.477-.969.763.429,0,.794-.026,1.154.007a.977.977,0,0,0,.838-.352,7.974,7.974,0,0,0-6.847-13.512Zm-2.507,13.854a7.145,7.145,0,0,1-3.173-4.932,6.846,6.846,0,0,1,1.586-5.572l-.684-.7a.713.713,0,0,0-.069.063,7.959,7.959,0,0,0,.668,11.02.369.369,0,0,0,.194.113C936.127,495.172,936.62,495.168,937.112,495.168Zm4.233-2.619a1.432,1.432,0,0,0,.98-1.456,1.346,1.346,0,0,0-.98-1.247Zm-1.983-5.334a1.321,1.321,0,0,0,.957,1.336v-1.561Z" transform="translate(-922.893 -473.248)" fill="#20a6ed"/>
</svg>