<svg xmlns="http://www.w3.org/2000/svg" width="22.12" height="22.121" viewBox="0 0 22.12 22.121">
    <g id="edit" transform="translate(-1 -0.879)">
        <path id="Path_215" data-name="Path 215"
            d="M18,23H4a3,3,0,0,1-3-3V6A3,3,0,0,1,4,3h7a1,1,0,0,1,0,2H4A1,1,0,0,0,3,6V20a1,1,0,0,0,1,1H18a1,1,0,0,0,1-1V13a1,1,0,0,1,2,0v7A3,3,0,0,1,18,23Z"
            fill="#ff8b17" />
        <path id="Path_216" data-name="Path 216"
            d="M20,.879a3.121,3.121,0,0,1,2.207,5.328l-9.5,9.5a1,1,0,0,1-.465.263l-4,1A1,1,0,0,1,7.03,15.757l1-4a1,1,0,0,1,.263-.465l9.5-9.5A3.1,3.1,0,0,1,20,.879ZM11.489,14.1l9.3-9.3a1.121,1.121,0,1,0-1.586-1.586l-9.3,9.3-.529,2.114Z"
            fill="#ff8b17" />
    </g>
</svg>
