<svg id="Group_2973" data-name="Group 2973" xmlns="http://www.w3.org/2000/svg" width="31.644"
    height="31.632" viewBox="0 0 31.644 31.632">
    <path id="Path_672" data-name="Path 672"
        d="M651.164,485.226a.855.855,0,0,1-.842.436q-14.977-.011-29.953-.006c-.636,0-.836-.2-.833-.828a24.094,24.094,0,0,1,.032-2.468,3.368,3.368,0,0,1,2.984-3.03l.181-.028a13.325,13.325,0,0,1-.361-1.537,3.99,3.99,0,0,1,.063-1.287,2.854,2.854,0,0,1,5.639.493,3.478,3.478,0,0,1-.495,2.316,3.174,3.174,0,0,0,5.354.011c0-.04.011-.074,0-.093a3.628,3.628,0,0,1-.357-2.747,2.83,2.83,0,0,1,2.972-2.219,2.863,2.863,0,0,1,2.659,2.659,3.54,3.54,0,0,1-.488,2.386,3.217,3.217,0,0,0,5.4.009,3.622,3.622,0,0,1-.487-2.419,2.86,2.86,0,0,1,5.7-.031,3.576,3.576,0,0,1-.478,2.43c.136.025.232.046.328.06a3.409,3.409,0,0,1,2.928,2.813,1.516,1.516,0,0,0,.055.174Zm-21.523-.813a17.072,17.072,0,0,0-.014-1.988,2.114,2.114,0,0,0-2.076-1.882c-1.553-.024-3.107-.02-4.661,0a2.13,2.13,0,0,0-2,1.489,9.363,9.363,0,0,0-.123,2.383Zm20.286-.005c0-.6.009-1.16,0-1.725a2.166,2.166,0,0,0-2.1-2.139c-1.563-.029-3.128-.024-4.691,0a2.068,2.068,0,0,0-2.022,1.68,15.854,15.854,0,0,0-.02,2.185Zm-18.979-.009h8.85c0-.587.009-1.152,0-1.717a2.165,2.165,0,0,0-2.1-2.137c-1.563-.029-3.128-.025-4.691,0a2.085,2.085,0,0,0-2.045,1.8A16.5,16.5,0,0,0,630.948,484.4Zm6.027-6.987c0-.144.01-.288,0-.432a1.624,1.624,0,0,0-3.242.057,7.17,7.17,0,0,0,0,.77,1.621,1.621,0,0,0,1.967,1.452A1.657,1.657,0,0,0,636.975,477.412Zm-10.13-.016c0-.1,0-.206,0-.309a1.626,1.626,0,0,0-3.253,0,5.655,5.655,0,0,0,.017.8,1.621,1.621,0,0,0,1.943,1.38A1.672,1.672,0,0,0,626.845,477.4Zm17.013-.014c0,.118-.006.241,0,.364a1.624,1.624,0,0,0,3.242.035,5.248,5.248,0,0,0,0-.8,1.557,1.557,0,0,0-1.1-1.419,1.593,1.593,0,0,0-1.739.466A1.734,1.734,0,0,0,643.858,477.382Z"
        transform="translate(-619.521 -454.03)" fill="#20a6ed" />
    <path id="Path_673" data-name="Path 673"
        d="M632.781,446.426a9.476,9.476,0,0,1,1.629.612,3.755,3.755,0,0,1,1.89,3.3c.018.638-.015,1.277.008,1.914a4.176,4.176,0,0,1-1.07,3.064c.152.007.256.014.36.016.679.012,1.362-.023,2.035.046a3.245,3.245,0,0,1,2.918,3.153c.034,1.688.013,3.376.009,5.064a.614.614,0,0,1-.651.671q-2.532.013-5.065,0a.613.613,0,0,1-.641-.644.6.6,0,0,1,.662-.584c1.359,0,2.717,0,4.076,0h.386v-.342q0-1.945,0-3.891a2.1,2.1,0,0,0-2.218-2.234c-.277,0-.553,0-.863,0-.007.129-.017.237-.017.345,0,.751,0,1.5,0,2.254,0,.35,0,.693-.392.858s-.618-.075-.86-.31c-.648-.628-1.3-1.252-2.011-1.932v1.5c0,.124.006.248,0,.371a.625.625,0,0,1-.624.6.617.617,0,0,1-.6-.618c-.011-.5,0-1.008,0-1.513v-.341c-.2.187-.344.325-.488.464-.535.514-1.072,1.024-1.6,1.542a.67.67,0,0,1-.8.23.7.7,0,0,1-.379-.743c.007-.782,0-1.564,0-2.347v-.357a4.1,4.1,0,0,0-1.938.222,1.932,1.932,0,0,0-1.144,1.71c-.039,1.47-.013,2.943-.012,4.415a.546.546,0,0,0,.033.116h.544q1.9,0,3.8,0c.461,0,.737.225.745.6s-.286.635-.749.636q-2.425,0-4.849,0c-.541,0-.761-.23-.761-.78q0-2.363,0-4.725a3.324,3.324,0,0,1,3.4-3.432c.617-.008,1.234,0,1.9,0-.065-.1-.1-.159-.15-.217a3.92,3.92,0,0,1-.893-2.506c0-.731,0-1.462,0-2.192a3.944,3.944,0,0,1,3.327-3.936.673.673,0,0,0,.137-.055Zm-3.154,5.382c0,.315-.005.6,0,.885a2.718,2.718,0,0,0,2.436,2.629,2.687,2.687,0,0,0,2.941-2.2,8.61,8.61,0,0,0,.054-1.444c0-.083-.1-.192-.183-.243-.366-.229-.747-.434-1.112-.663a.268.268,0,0,0-.375.03,4.2,4.2,0,0,1-2.842,1C630.252,451.8,629.956,451.808,629.627,451.808Zm.031-1.236c.32,0,.647,0,.973,0a3,3,0,0,0,2.248-.982c.369-.392.577-.419,1.051-.143l1.1.636a2.7,2.7,0,0,0-5.367.489Zm5.316,6.014h-1.25l1.25,1.408Zm-5.256,1.331.068.054,1.226-1.384h-1.294Z"
        transform="translate(-620.782 -446.426)" fill="#20a6ed" />
    <path id="Path_674" data-name="Path 674"
        d="M658.562,454.456a4.449,4.449,0,0,1-.381.655,1.305,1.305,0,0,1-1.083.418q-3.58-.009-7.16,0a1.8,1.8,0,0,0-.676.15c-.567.242-1.119.517-1.679.774-.589.271-1,.006-1-.644,0-2.562.018-5.123-.011-7.685a1.557,1.557,0,0,1,1.057-1.7h9.884a1.571,1.571,0,0,1,1.05,1.112Zm-10.745.527c.307-.144.565-.246.8-.381a2.735,2.735,0,0,1,1.42-.318c2.315.016,4.63,0,6.945.013.275,0,.345-.078.344-.349q-.016-2.963,0-5.926c0-.277-.064-.368-.357-.366q-4.4.016-8.8,0c-.28,0-.366.068-.364.358.012,2.089.007,4.177.007,6.265Z"
        transform="translate(-626.918 -446.426)" fill="#20a6ed" />
    <path id="Path_675" data-name="Path 675"
        d="M635.824,469.893a.615.615,0,1,1-1.231,0,.616.616,0,0,1,1.231,0Z"
        transform="translate(-623.643 -452.679)" fill="#20a6ed" />
    <path id="Path_676" data-name="Path 676"
        d="M653.471,451.289c-.9,0-1.808,0-2.713,0a1.6,1.6,0,0,1-.4-.039.6.6,0,0,1-.435-.6.6.6,0,0,1,.509-.575,2.487,2.487,0,0,1,.368-.016q2.683,0,5.365,0a2.5,2.5,0,0,1,.369.016.6.6,0,0,1,.507.576.6.6,0,0,1-.434.6,1.6,1.6,0,0,1-.4.039C655.3,451.29,654.386,451.289,653.471,451.289Z"
        transform="translate(-627.836 -447.418)" fill="#20a6ed" />
    <path id="Path_677" data-name="Path 677"
        d="M652.587,453.455c.638,0,1.276,0,1.914,0,.456,0,.724.244.716.625a.63.63,0,0,1-.712.606q-1.93.009-3.859,0c-.447,0-.729-.26-.72-.632s.279-.6.715-.6C651.291,453.451,651.939,453.455,652.587,453.455Z"
        transform="translate(-627.836 -448.348)" fill="#20a6ed" />
</svg>
