<svg xmlns="http://www.w3.org/2000/svg" width="57.788" height="64.879" viewBox="0 0 57.788 64.879">
  <g id="Group_26" data-name="Group 26" transform="translate(-60.898 -128.805)">
    <path id="Path_42" data-name="Path 42" d="M286.888,159.468c.064-.28.43-.528.913-1.192a2.748,2.748,0,0,0,.158-2.585.889.889,0,0,0-1.671-.092,15.072,15.072,0,0,1-1.262,2.756q-.12.174-.248.343a.594.594,0,0,0,.212.807l.033.016c.05.591.386,1.115.483,1.7a.634.634,0,0,1-.04.359,1.2,1.2,0,0,1-.063.106,1.375,1.375,0,0,1-.137.127c-.032.023-.063.046-.1.067a2.494,2.494,0,0,1-.345.193,2.088,2.088,0,0,1-.456.114,1.843,1.843,0,0,0-.787.135.985.985,0,0,0-.394.732c-.006.026-.014.052-.022.077s-.022.04-.034.059-.042.043-.064.064a1.688,1.688,0,0,1-.766.276c-.074.014-.149.025-.224.036l.158-.021c-.287.058-.622,0-.864.187a.639.639,0,0,0-.039.972,1.585,1.585,0,0,0,.6.342,2.584,2.584,0,0,0,1.615-.031,2.147,2.147,0,0,0,1.25-1.2,2.648,2.648,0,0,0,1.647-.74,2.568,2.568,0,0,0,.738-1.8,11.63,11.63,0,0,0-.292-1.5A1.7,1.7,0,0,1,286.888,159.468Zm.139-2.572c0,.052,0,.1-.009.157a2.359,2.359,0,0,1-.057.265,1.224,1.224,0,0,1-.154.327l-.011,0-.069.014C286.841,157.389,286.942,157.123,287.027,156.9Z" transform="translate(-169.521 -20.205)" fill="#e48a80"/>
    <g id="Group_6" data-name="Group 6" transform="translate(60.898 130.86)">
      <path id="Path_43" data-name="Path 43" d="M63.113,334.394a4.912,4.912,0,0,0-2,2.678,5.075,5.075,0,0,0-.193,1.2,4.744,4.744,0,0,0,.689,2.97,9.313,9.313,0,0,0,2.337,2.846,9.8,9.8,0,0,0,3.679,1.744c.753.179,1.54.25,2.286.448.248.11.108.032.317.207a2.9,2.9,0,0,1,.334.615,4.034,4.034,0,0,0,1.634,1.761,5.293,5.293,0,0,0,1.381.462,18.965,18.965,0,0,0,2.565.242c.636.016,1.943.042,2.092.091a2.216,2.216,0,0,1,1.4.628,2.985,2.985,0,0,1,.529.544c.081.083.132.189.245.247.423.275,1.038-.141.753-.525-.061-.076-.124-.152-.188-.226a.356.356,0,0,0-.078-.364,2.063,2.063,0,0,0-.263-.44,5.636,5.636,0,0,1-.842-.989,3.9,3.9,0,0,1-.216-.551,5.553,5.553,0,0,1-.17-.7,2.884,2.884,0,0,1,.063-1.148,9.145,9.145,0,0,0,.219-1.228,3.427,3.427,0,0,0-.1-.827,1.581,1.581,0,0,0-.545-.959,2.214,2.214,0,0,0-.708-.267,6.949,6.949,0,0,1-1.437-.427,3.285,3.285,0,0,1-.9-.551,12.34,12.34,0,0,0-1.65-1.423,2.39,2.39,0,0,0-2.03-.1,3.79,3.79,0,0,0-1.086.775,1.288,1.288,0,0,1-.618.352,2.574,2.574,0,0,1-.262.056c-.074,0-.149.007-.224.008a1.171,1.171,0,0,1-.383-.042c-.043-.011-.085-.024-.128-.037s-.079-.031-.118-.049a1.772,1.772,0,0,1-.6-.408,3.19,3.19,0,0,1-.646-1.126,7.9,7.9,0,0,1-.2-2.654,11.988,11.988,0,0,1,.292-1.572,1.89,1.89,0,0,0,0-1.271,1.829,1.829,0,0,0-.744-.777,2.2,2.2,0,0,0-.85-.211A6.118,6.118,0,0,0,63.113,334.394Z" transform="translate(-60.898 -288.338)" fill="#faefac"/>
      <path id="Path_44" data-name="Path 44" d="M192.741,137.943a7.134,7.134,0,0,0-3.831,2.206,2.572,2.572,0,0,1-.309.237l-.021.013a.736.736,0,0,1-.385.12c-.64.044-1.28-.076-1.92-.09a4.258,4.258,0,0,0-1.724.3c-1.168.424-1.713,1.815-.781,2.592a4.506,4.506,0,0,0,1.932.649c.785.155,1.536.4,2.3.6.072.052.143.1.213.158.461.358,1.012.776,1.631.348a2.517,2.517,0,0,0,.653-.856,3.652,3.652,0,0,1,.562-.7,3.967,3.967,0,0,1,3-.979,6.5,6.5,0,0,1,1.867.3l.009,0c.052.019.076.026.077.026a12.041,12.041,0,0,1,1.182.469,6.69,6.69,0,0,1,.746.41,8.468,8.468,0,0,1,3.005,3.775,9.036,9.036,0,0,1,.508,2.694c.053.44.133.877.23,1.312a2.8,2.8,0,0,0,.606,1.358,2.554,2.554,0,0,0,1.494.725,2.717,2.717,0,0,0,1.6-.265,3.127,3.127,0,0,0,1.377-2.21,6.245,6.245,0,0,0,.1-2.283,14.661,14.661,0,0,0-.666-2.956,16.25,16.25,0,0,0-.976-2.022c-.39-.654-.924-1.247-1.364-1.881a8.205,8.205,0,0,0-1.326-1.566,15.569,15.569,0,0,0-3.076-1.906,8.161,8.161,0,0,0-2.558-.658,15.581,15.581,0,0,0-1.778-.139A13.982,13.982,0,0,0,192.741,137.943Z" transform="translate(-155.115 -137.73)" fill="#faefac"/>
      <g id="Group_4" data-name="Group 4" transform="translate(3.525 3.95)">
        <path id="Path_45" data-name="Path 45" d="M109.93,155.115a5.688,5.688,0,0,0-1.548,1.014,13.031,13.031,0,0,0-.99,1.093c-.056.049-.127.1-.149.12a1.316,1.316,0,0,1-.153.073c-.022.006-.045.009-.068.013s-.064,0-.1,0l-.063-.01a6.519,6.519,0,0,1-1.52-.766,5.121,5.121,0,0,0-1.493-.539,5.538,5.538,0,0,0-1.743,0,7.723,7.723,0,0,0-1.781.414,7.12,7.12,0,0,0-3.566,2.338,4.579,4.579,0,0,0-.687,2.189c-.041.419-.019.84-.065,1.259a2.212,2.212,0,0,1-.2.781,3.921,3.921,0,0,1-.447-.243c-.305-.2-.607-.4-.927-.577a4.822,4.822,0,0,0-1.758-.538,11.91,11.91,0,0,0-4.518.476,10.216,10.216,0,0,0-2.29.9,7.542,7.542,0,0,0-3.019,3.245,10.321,10.321,0,0,0-.825,5.424,48.093,48.093,0,0,0,1.057,6.663c.075.473,1.322,1.571,1.981,2.373.013.208.006.418.009.627,0,.061,0,.123,0,.184l-.1.16a10.1,10.1,0,0,0-.825,1.924,17.592,17.592,0,0,0-.712,2.949,17.043,17.043,0,0,0,.422,5.851c.011.044.02.087.028.13l-.019.065c-.035.124-.07.248-.1.372a3.355,3.355,0,0,1-.827,1.055c-.16.065-.316.133-.469.2a7.9,7.9,0,0,0-1.789,1.2,6.375,6.375,0,0,0-.82,1.024,5.777,5.777,0,0,0-1.013,2.351,7.157,7.157,0,0,0-.107.727l-.144.188c-.113.042-.223.088-.331.138a4.038,4.038,0,0,0-1.514,1.089,2.6,2.6,0,0,0-.488,2.183,5.405,5.405,0,0,0,2.35,3.624,6.332,6.332,0,0,0,.623.571,5.4,5.4,0,0,0,1.906.863,4.112,4.112,0,0,0,3.466-.84c.21-.139.431-.3.583-.409a.723.723,0,0,0,.1.19,4.959,4.959,0,0,0,1.253.811,6.667,6.667,0,0,0,1.787.8,5.68,5.68,0,0,0,.929.1.967.967,0,0,0,.57-.069c.142.075.324.11.473.174.362.127.725.253,1.095.364.7.182,1.423.313,2.119.511a26.26,26.26,0,0,0,3.214.669c5.06.763,10.662.681,15.179-1.487a15.368,15.368,0,0,0,2.761-1.72,10.475,10.475,0,0,0,3.364-3.763,11.58,11.58,0,0,0,1.183-5.941c-.04-.778-.047-1.558-.144-2.334-.125-1.04-.346-2.07-.534-3.1a47.593,47.593,0,0,1-.569-5.244c-.093-1.156-.111-2.315-.1-3.473a30.459,30.459,0,0,1,.378-5.073c.229-1.8.519-3.113.83-4.976.272-1.691.41-3.393.629-5.089.142-1.1.351-1.924.471-3.191a13.7,13.7,0,0,0-.149-3.131c-.331-1.876-.946-4.243-2.862-5.5a8.864,8.864,0,0,0-2.027-.908,15.334,15.334,0,0,0-3.034-.733A4.663,4.663,0,0,0,109.93,155.115Z" transform="translate(-76.208 -154.886)" fill="#acdffd"/>
        <path id="Path_46" data-name="Path 46" d="M197.483,164.224l-.01,0,.017.006Z" transform="translate(-169.552 -162.072)" fill="#acdffd"/>
      </g>
      <path id="Path_47" data-name="Path 47" d="M82.158,322.927a1.748,1.748,0,0,0-.818,1.048,1.28,1.28,0,0,0-.077.51.653.653,0,0,0,.21.665,1.114,1.114,0,0,0,.871.18,1.949,1.949,0,0,0,.7-.331,2.263,2.263,0,0,0,.87-1.218.822.822,0,0,0-.056-.626.5.5,0,0,0-.058-.118C83.476,322.581,82.621,322.653,82.158,322.927Z" transform="translate(-76.56 -280.117)" fill="#acdffd"/>
      <g id="Group_5" data-name="Group 5" transform="translate(16.771 4.602)">
        <path id="Path_48" data-name="Path 48" d="M139.523,157.845a3.243,3.243,0,0,0-1.282.551,3.721,3.721,0,0,0-.878.851,4.908,4.908,0,0,1-.474.672c-.018.009-.049.023-.083.036a1.682,1.682,0,0,1-.167.038,5.38,5.38,0,0,1-.816.081c-.679.032-1.533-.013-1.979.473a.746.746,0,0,0,.056.844,2.679,2.679,0,0,0,1.173.877.511.511,0,0,0,.451.225l.157-.012.01,0a5.766,5.766,0,0,0,1.121.2,4.354,4.354,0,0,0,.549.013,1.848,1.848,0,0,0,.811.061.726.726,0,0,0,.526-.514c.069-.2.136-.4.2-.6a3.41,3.41,0,0,1,.253-.639,3.269,3.269,0,0,1,.837-1.011,3.771,3.771,0,0,1,1.061-.705,9.191,9.191,0,0,1,1.5-.56.4.4,0,0,0,.1-.705,1.592,1.592,0,0,0-.627-.218,5.139,5.139,0,0,0-.848-.086A8.934,8.934,0,0,0,139.523,157.845Zm-4.608,3.306-.022-.022-.006-.006.006.005a1.461,1.461,0,0,1-.1-.138l-.006-.015a2.48,2.48,0,0,1,.255-.054h.008l.07-.006.108,0a.37.37,0,0,0-.064.166.477.477,0,0,0-.165.146l-.02-.015a.842.842,0,0,1-.067-.064C134.954,161.187,134.984,161.228,134.915,161.151Z" transform="translate(-133.735 -157.719)" fill="#acdffd"/>
        <path id="Path_49" data-name="Path 49" d="M138.763,172.526l.017.015-.017-.016Z" transform="translate(-137.605 -169.117)" fill="#acdffd"/>
      </g>
      <path id="Path_50" data-name="Path 50" d="M264.158,209.913a6.5,6.5,0,0,0-1.5,3.009c-.293,1.031-.48,2.076-.669,3.121-.237,1.369-.514,2.737-.645,4.115a43.374,43.374,0,0,0-.238,5.756c.017.936.124,1.868.221,2.8.092.856.161,1.714.293,2.567a10.8,10.8,0,0,0,.2,1.2c.079,1.491.4,2.711.59,4.2.041.47.044.942.055,1.413a2.662,2.662,0,0,1,0,.294c-.158.276.249.6.619.429a2.866,2.866,0,0,0,1.258-.894,3,3,0,0,0,.5-1.139c.032-.254.051-.51.061-.766a4.175,4.175,0,0,0,.047-.694q-.043-1.924-.179-3.848a53.554,53.554,0,0,1-.252-5.5c.031-1.025.083-2.05.184-3.073.107-.9.232-1.791.334-2.687.216-1.457.7-3.741,1.084-5.551.138-.884.261-1.346.4-2.337a4.448,4.448,0,0,0-.038-1.73,1.83,1.83,0,0,0-.568-.838A1.3,1.3,0,0,0,264.158,209.913Z" transform="translate(-214.994 -192.961)" fill="#acdffd"/>
      <path id="Path_51" data-name="Path 51" d="M268.165,338.8a2.352,2.352,0,0,0-.263.769,1.868,1.868,0,0,0,.027.9,1.612,1.612,0,0,0,.384.782.745.745,0,0,0,.514.423.719.719,0,0,0,.108.013.89.89,0,0,0,1-.261,1.723,1.723,0,0,0,.273-1.281c-.045-.3-.1-.609-.173-.91a1.57,1.57,0,0,0-.371-.858A1.037,1.037,0,0,0,268.165,338.8Z" transform="translate(-220.206 -292.041)" fill="#acdffd"/>
      <path id="Path_52" data-name="Path 52" d="M152.825,352.073a2.763,2.763,0,0,0-1.568,1.11c-.295.343-.581.691-.879,1.032a6.787,6.787,0,0,1-.906.846c-.344.255-.679.518-1.043.755a4.773,4.773,0,0,1-1.265.515,7.9,7.9,0,0,0-2.541.987,4.179,4.179,0,0,0-.336.258.568.568,0,0,0-.153.082.347.347,0,0,0-.087.476c.112.37.7.475,1.139.5a6.544,6.544,0,0,0,1.354-.047c.106,0,.179.006.2.005a9.714,9.714,0,0,0,1.562-.1,5.406,5.406,0,0,0,1.547-.484,5.494,5.494,0,0,0,1.264-1.31c.385-.486.842-.933,1.181-1.44.413-.619.977-1.164,1.4-1.778.211-.347.571-.755.32-1.143A1.251,1.251,0,0,0,152.825,352.073Z" transform="translate(-124.857 -302.696)" fill="#f8e765"/>
      <path id="Path_53" data-name="Path 53" d="M80.6,223.283a1.494,1.494,0,0,0-.556,1.646,1.429,1.429,0,0,0,.993,1.055,1.53,1.53,0,0,0,1.065-.319,1.083,1.083,0,0,0,.359-.629,1.2,1.2,0,0,0,.041-.493,1.689,1.689,0,0,0-.23-.993,1,1,0,0,0-.7-.471A1.983,1.983,0,0,0,80.6,223.283Z" transform="translate(-75.601 -203.424)" fill="#f8e765"/>
      <path id="Path_54" data-name="Path 54" d="M82.331,198.071a3.342,3.342,0,0,0-.807.468,4.506,4.506,0,0,0-.82.787.54.54,0,0,0-.206.172,3.7,3.7,0,0,0-1.246,2.53,1.245,1.245,0,0,0,1.058,1.332,1.28,1.28,0,0,0,1.1-.573,4.96,4.96,0,0,0,.434-1.4,3.841,3.841,0,0,1,1-1.767c.05-.092.906-.8.772-1.294C83.508,197.874,82.789,197.9,82.331,198.071Z" transform="translate(-75.019 -184.089)" fill="#f8e765"/>
      <path id="Path_55" data-name="Path 55" d="M123.384,373.575a1.687,1.687,0,0,0-1.635.414c-.646.69-.125,1.6.838,1.867a1.639,1.639,0,0,0,.764.014l.045,0a1.111,1.111,0,0,0,.92-1.705,1.583,1.583,0,0,0-.64-.487A1.321,1.321,0,0,0,123.384,373.575Z" transform="translate(-107.518 -319.228)" fill="#f8e765"/>
      <path id="Path_56" data-name="Path 56" d="M77.532,338.982a2.414,2.414,0,0,0-1,1.355,2.983,2.983,0,0,0-.114.549,4.113,4.113,0,0,0-2.611,3.139,3.9,3.9,0,0,0,.332,2.455,3.13,3.13,0,0,0,1.044,1.5,1.918,1.918,0,0,0,1.946.221,1.944,1.944,0,0,0,.934-1.512c.089-1.313-.346-2.982-.312-3.67a.777.777,0,0,1,.036-.139,4.309,4.309,0,0,0,.773-.365,1.411,1.411,0,0,0,.48-.591,3.646,3.646,0,0,0,.261-.726,2.825,2.825,0,0,0,.059-1.124,1.477,1.477,0,0,0-.354-.858A1.243,1.243,0,0,0,77.532,338.982Z" transform="translate(-70.77 -292.535)" fill="#e48a80"/>
      <path id="Path_57" data-name="Path 57" d="M172.278,153.545c-.2.6.752.982,1.239.5a.433.433,0,0,0,.143-.324.414.414,0,0,0-.079-.334A.816.816,0,0,0,172.278,153.545Z" transform="translate(-146.612 -149.583)" fill="#e48a80"/>
      <path id="Path_58" data-name="Path 58" d="M168.641,138.9a1.183,1.183,0,0,0,.013,1.923,1.935,1.935,0,0,0,2.026.057,1.166,1.166,0,0,0,.633-1.332,1.413,1.413,0,0,0-1-.9,2.1,2.1,0,0,0-.288-.049h0A1.644,1.644,0,0,0,168.641,138.9Zm1.547.871a.717.717,0,0,1,0,.086.949.949,0,0,1-.053.133c0,.006-.007.013-.012.019s-.018.021-.027.032l-.048.036a1.882,1.882,0,0,1-.193.089l-.063.012c-.034,0-.068,0-.1,0l-.038-.006-.072-.017c-.035-.014-.068-.029-.1-.046-.013-.01-.027-.019-.039-.03a.8.8,0,0,1-.05-.067.867.867,0,0,1-.038-.106.9.9,0,0,1,0-.134,1.114,1.114,0,0,1,.058-.172c.025-.011.048-.024.071-.037-.021.013-.035.022-.02.014.054-.028.109-.055.166-.079l.077-.017a1.8,1.8,0,0,1,.183,0l.064.011c.034.015.067.03.1.048l.005,0,.009.008a.965.965,0,0,1,.075.1c.005.012.012.025.017.037S170.18,139.747,170.188,139.774Z" transform="translate(-143.458 -138.372)" fill="#e48a80"/>
      <path id="Path_59" data-name="Path 59" d="M277.421,357.662a2.987,2.987,0,0,0-1.292,0,1.652,1.652,0,0,0-1.2.988,1.436,1.436,0,0,0,.943,1.756l.053.03a1.91,1.91,0,0,0,2.42-.395.294.294,0,0,0,.047-.078,1.165,1.165,0,0,0,.4-1.262,1.217,1.217,0,0,0-.189-.344,1.244,1.244,0,0,0-.265-.3,2.328,2.328,0,0,0-.679-.335c-.04-.013-.079-.026-.12-.037Zm-.146.864.043.017a.961.961,0,0,1,.332.213.756.756,0,0,1,.073.094.693.693,0,0,1,.034.093l.008.031a.873.873,0,0,1,0,.128l0,.014a.589.589,0,0,1-.021.062c-.005.012-.011.024-.017.036-.03.047-.074.1-.1.134a1.482,1.482,0,0,1-.218.172c-.024.013-.07.038-.118.062l-.07.03a1.128,1.128,0,0,1-.474.074c-.036,0-.073,0-.11,0-.083-.015-.164-.036-.244-.058l-.046-.021a1.773,1.773,0,0,1-.136-.194,1.15,1.15,0,0,1-.063-.2.715.715,0,0,1-.006-.08,1,1,0,0,1,.01-.143,1.072,1.072,0,0,1,.031-.124c0-.013.009-.026.013-.038.038-.055.095-.123.125-.159.02-.017.042-.033.062-.047a1.425,1.425,0,0,1,.159-.078q.078-.023.159-.04a1.14,1.14,0,0,1,.372-.016A1.5,1.5,0,0,1,277.275,358.526Z" transform="translate(-225.589 -306.968)" fill="#e48a80"/>
      <path id="Path_60" data-name="Path 60" d="M282.481,347.269c-.557.561.1,1.25,1.007,1.094.873-.125,1.147-1.059.333-1.407A1.194,1.194,0,0,0,282.481,347.269Z" transform="translate(-231.303 -298.716)" fill="#e48a80"/>
      <path id="Path_61" data-name="Path 61" d="M287.639,203.968h0a1.079,1.079,0,0,0,1.654.277.905.905,0,0,0,.408-.918.991.991,0,0,0-.945-.66C287.905,202.642,287.181,203.337,287.639,203.968Z" transform="translate(-235.322 -187.716)" fill="#e48a80"/>
      <path id="Path_62" data-name="Path 62" d="M290.865,184.008a1.749,1.749,0,0,0-1.714,1.466,1.5,1.5,0,0,0,.151.778,1.591,1.591,0,0,0,1.293.885,2.533,2.533,0,0,0,1.758-.424,1.47,1.47,0,0,0,.631-1.674,1.4,1.4,0,0,0-.783-.812A3.263,3.263,0,0,0,290.865,184.008Zm.732,1.065.055.027a.887.887,0,0,1,.079.062c.014.018.027.035.04.053a1.029,1.029,0,0,1,.057.178.75.75,0,0,1,0,.151,1.121,1.121,0,0,1-.061.2c-.041.06-.1.131-.13.171l-.013.012-.033.024a.616.616,0,0,0-.1.05l-.044.023,0,0-.006,0,0,0a1.821,1.821,0,0,1-.234.117,1.633,1.633,0,0,1-.172.034c-.045,0-.091,0-.136,0-.075-.015-.168-.041-.23-.059a.74.74,0,0,1-.068-.03c-.028-.02-.054-.041-.079-.064l-.014-.015a.863.863,0,0,1-.056-.081c-.013-.027-.027-.055-.038-.083s0-.071,0-.107l0-.023c.027-.124.066-.246.1-.368a.992.992,0,0,0,.058-.218c.03-.023.062-.044.094-.065a1.117,1.117,0,0,1,.122-.062,1.456,1.456,0,0,1,.145-.035h0A1.642,1.642,0,0,1,291.6,185.073Z" transform="translate(-236.593 -173.348)" fill="#e48a80"/>
    </g>
    <g id="Group_15" data-name="Group 15" transform="translate(64.67 135.681)">
      <g id="Group_7" data-name="Group 7" transform="translate(8.176 8.158)">
        <path id="Path_63" data-name="Path 63" d="M212.874,219.694v0Z" transform="translate(-189.829 -213.8)" fill="#e9a462"/>
        <path id="Path_64" data-name="Path 64" d="M144.38,228.154a.454.454,0,0,0-.452-.465c0-.129-.006-.259-.009-.388a.441.441,0,0,0,.525-.424c-.056-1.309-.116-2.618-.094-3.928.031-1.282.078-2.564-.007-3.845.023-.37-.246-.673-.56-.605-.007-.283-.017-.566-.025-.85a.659.659,0,0,0,.16-.285,11.793,11.793,0,0,0-.009-3.774.9.9,0,0,0,.084-.3,1.057,1.057,0,0,0-.431-.781l-.073-.067a1.176,1.176,0,0,0-.112-.163.715.715,0,0,0-.265-.176c-.067-.058-.133-.116-.2-.172a2.155,2.155,0,0,0-1.456-.658l-.126-.111c-1.132-.923-2.034-2.082-3.1-3.071-.748-.671-1.568-1.255-2.353-1.882,0-.186-.016-.373-.034-.559a2.106,2.106,0,0,0,.1-.672q.054-.928.023-1.859a2.039,2.039,0,0,0,0-1.2c-.052-.335-.117-.668-.193-1-.014-.094-.026-.189-.041-.283s-.03-.185-.045-.278c.02-.06.04-.12.062-.178l.019-.043,0,0,0,0a1.026,1.026,0,0,0,.063-.135c-.01.024-.028.061-.044.091.017-.037.035-.073.051-.11l-.006.016a.963.963,0,0,0,.061-.262,1.07,1.07,0,0,0-.455-.819.954.954,0,0,0-.173-.472.675.675,0,0,0-.294-.25l-.024-.074c-.235-.656-.64-1.926-1.512-1.746a4,4,0,0,0-2.271-1.658c-.145.005-.309.013-.484.017a.7.7,0,0,0-.1-.045c-1.048-.583-2.5-1.069-2.717.3a.864.864,0,0,0,.271.652,1.561,1.561,0,0,0-.956.315c-.367.225-.728.461-1.085.7-.246.155-.491.313-.732.476s-.449.331-.664.509l-.052.038c-.361.312-.994.621-1.176,1.081h-.015a.76.76,0,0,0-.9.3,1.313,1.313,0,0,0-.137.643c-.024.366-.039.733-.06,1.1q-.022.413-.043.827c-.128,1.023-.227,2.05-.313,3.077-.05.6-.092,1.192-.12,1.79,0,.112-.01.235-.018.361q-.977.473-1.949.959a.411.411,0,0,0-.113-.019.763.763,0,0,0-.229.056v0l-.025.014a1.716,1.716,0,0,0-.242.135c-.57.32-1.127.664-1.685,1.006-.5.265-.991.533-1.481.809a.727.727,0,0,0-.479.419.46.46,0,0,0-.017.191l-.139.093a2.557,2.557,0,0,0-.544.408.453.453,0,0,0-.784.06,10.78,10.78,0,0,0-.171,1.57c0,.029,0,.058-.007.087q-.089.158-.171.319a.787.787,0,0,0-.078.767.419.419,0,0,0,.145.159q-.074.921-.137,1.842c-.264,2.538-.347,5.092-.38,7.644q0,.931.015,1.862l-.006.067a.446.446,0,0,0-.589.411c.067,1.348.15,2.694.21,4.042-.067.9-.119,1.807-.134,2.713a6.1,6.1,0,0,0,.135,1.358c0,.313.013.625.032.938.144.516.808.419,1.224.523.114.03.62.12,1.162.21.615.867,3.284,1.211,4.053,1.286a76.513,76.513,0,0,0,7.915.059c.124.012.248.025.371.036a.95.95,0,0,0,.744.161c.23-.021.46-.041.69-.061,1.2.062,2.4.071,3.6.045a41.683,41.683,0,0,0,5.368.249,7.251,7.251,0,0,0,2.289-.215,2.375,2.375,0,0,0,.664-.421l.016-.006c.292-.089.582-.184.871-.28a.459.459,0,0,0,.679.07,2.356,2.356,0,0,0,.467-.389.654.654,0,0,0,.3-.109.379.379,0,0,0,.048-.038.46.46,0,0,0,.565-.424c.006-.5.007-1,0-1.5.029-.137.055-.274.079-.408A33.784,33.784,0,0,0,144.38,228.154Zm-30.251,6.192c0-.033,0-.066,0-.1,0-.063,0-.125,0-.188a.961.961,0,0,0,.149.047.772.772,0,0,0,.018.27Zm9.68.277c.015-.06.028-.12.04-.18a1.047,1.047,0,0,0,.048.191Zm2.736-.149.033-.027.149-.005.012.013c.011.011.023.02.034.03Zm2.87-21.5c.021-.159.042-.319.064-.477,0,.143,0,.286.006.43C129.461,212.938,129.437,212.953,129.415,212.97Zm1.477-13.731q-.039.281-.071.563c-.01.036-.019.072-.028.109a1.133,1.133,0,0,0-.814.163l-.084,0a1.63,1.63,0,0,0-.461-.788.845.845,0,0,0-1.131,0c-.009.009-.018.019-.026.029a1.094,1.094,0,0,0-.327-.5l-.008-.006c0-.012-.008-.025-.012-.038a1.054,1.054,0,0,0-.262-.337l.018.015c-.027-.026-.054-.051-.082-.075a1.673,1.673,0,0,0,.081-.662c.728-.447,1.467-.874,2.226-1.266.386.588.8,1.157,1.244,1.705A4.249,4.249,0,0,0,130.891,199.24Z" transform="translate(-112.79 -194.098)" fill="#e9a462"/>
      </g>
      <path id="Path_65" data-name="Path 65" d="M181.609,206.243a1.808,1.808,0,0,0-.957-.971,1.874,1.874,0,0,0-2.352.9,2.037,2.037,0,0,0-.079.682c0,.008,0,.015,0,.024a1.92,1.92,0,0,0,.773,1.524,1.214,1.214,0,0,0,.693.164,1.77,1.77,0,0,0,1.636-.789c.016-.031.029-.064.044-.1a1.185,1.185,0,0,0,.115-.138A1.371,1.371,0,0,0,181.609,206.243Z" transform="translate(-154.976 -194.465)" fill="#d0faff"/>
      <g id="Group_8" data-name="Group 8" transform="translate(19.272 21.377)">
        <path id="Path_66" data-name="Path 66" d="M179.906,282.355l0,0-.041-.02Z" transform="translate(-175.521 -275.239)" fill="#e488b3"/>
        <path id="Path_67" data-name="Path 67" d="M168.484,252.578c-.249-.185-.474-.471-.8-.513a.832.832,0,0,0-.149-.014,4.028,4.028,0,0,0-3.231-.341,5.615,5.615,0,0,0-2.8,2.339,3.9,3.9,0,0,0-.528,2.014,5.19,5.19,0,0,0,.3,1.941,5.593,5.593,0,0,0,1.293,1.923,4.4,4.4,0,0,0,2.248,1.038,4.678,4.678,0,0,0,3.729-1.3,5.35,5.35,0,0,0,1.612-3.626A4.238,4.238,0,0,0,168.484,252.578Zm-.276,4.161c-.4,1.087-.58,1.432-1.426,1.92a1.882,1.882,0,0,1-1.053.091c.062.008-.181-.056-.356-.123.019.01.021.011,0,0a.758.758,0,0,1-.129-.06c.029.012.064.028.093.042l-.025-.013a3.648,3.648,0,0,1-.572-.368,2.994,2.994,0,0,1-1.007-2.525,2.676,2.676,0,0,1,1.442-2.127,2.1,2.1,0,0,1,1.151.076,1.616,1.616,0,0,1,.7.314c.217.154.45.358.736.277a.52.52,0,0,0,.124-.044c.013.015.027.03.039.046A2.39,2.39,0,0,1,168.207,256.739Z" transform="translate(-160.982 -251.509)" fill="#e488b3"/>
      </g>
      <path id="Path_68" data-name="Path 68" d="M171.21,255.551a5.4,5.4,0,0,0-.141-1.149,3.971,3.971,0,0,0-2.891-3.578l-.01,0a.782.782,0,0,0-.791.1,4.582,4.582,0,0,0-2.561.182,4.715,4.715,0,0,0-1.839,7.325,4.858,4.858,0,0,0,1.134.973c.117.141.239.277.368.405a2.629,2.629,0,0,0,2.08.483,4.763,4.763,0,0,0,3.677-2.14,3.607,3.607,0,0,0,.739-1.269c.04-.171.073-.344.1-.518A1.979,1.979,0,0,0,171.21,255.551Z" transform="translate(-142.43 -229.555)" fill="#d0faff"/>
      <g id="Group_9" data-name="Group 9" transform="translate(10.523 35.127)">
        <path id="Path_69" data-name="Path 69" d="M135.691,359.667a.658.658,0,0,0,.115.018Z" transform="translate(-132.765 -348.514)" fill="#d0faff"/>
        <path id="Path_70" data-name="Path 70" d="M128.925,318.659c0-.039-.009-.072-.012-.1,0-.046-.009-.092-.011-.139-.022-1.037.086-2.073.078-3.111a3.678,3.678,0,0,0-.484-2.3h0a.871.871,0,0,0-.153-.449.638.638,0,0,0-.149-.162,2.48,2.48,0,0,0-.212-.3,2.214,2.214,0,0,0-.413-.4,1.822,1.822,0,0,0-1.693-.408,2.506,2.506,0,0,0-1.512,1.314,10.577,10.577,0,0,0-.849,4.591,9.422,9.422,0,0,0,.071,1.827.735.735,0,0,0-.323.247,1.633,1.633,0,0,0-.278.9,2.333,2.333,0,0,0,.335,1.491.9.9,0,0,0,.641.289.749.749,0,0,0,1.061.149c.035,0,.067,0,.092.008.053,0,.105.012.158.018a1.242,1.242,0,0,0,.132.1,1.438,1.438,0,0,0,.506.158c-.059-.012-.1-.024-.028-.006.415.073.835.115,1.256.146a.9.9,0,0,0,1.02-.565.713.713,0,0,0,.38-.3.751.751,0,0,0,.061-.68,1.642,1.642,0,0,1-.051-.341,2.211,2.211,0,0,0,.184-.7.683.683,0,0,0,.269-.373A2.384,2.384,0,0,0,128.925,318.659Z" transform="translate(-122.984 -311.227)" fill="#d0faff"/>
      </g>
      <path id="Path_71" data-name="Path 71" d="M217.9,321.652c.018-.038.039-.074.055-.114a8.992,8.992,0,0,0,.214-1.4,17.741,17.741,0,0,0,0-4.528,5.768,5.768,0,0,0-.393-1.313,2.57,2.57,0,0,0-.164-.367,1.266,1.266,0,0,0-.777-.993.83.83,0,0,0-.423-.042.932.932,0,0,0-.1-.012,1.261,1.261,0,0,0-2.033.434,4.8,4.8,0,0,0-.216.474.63.63,0,0,0-.073.023c-.744.262-.816,2.119-.9,2.5a14.793,14.793,0,0,0-.013,3.809c.031.276.069.55.109.824,0,.062,0,.123-.006.185-.006.428-.012.857.007,1.285a.976.976,0,0,0,.245.747.753.753,0,0,0,1.137-.047.764.764,0,0,0,.365.108c.106-.008.214-.019.328-.031a5.441,5.441,0,0,0,.6.064c.114.005.233.011.351.01a.789.789,0,0,0,.284-.018,1.121,1.121,0,0,0,.386-.121,1.968,1.968,0,0,0,.777-.087A.755.755,0,0,0,217.9,321.652Z" transform="translate(-181.717 -277.107)" fill="#d0faff"/>
      <path id="Path_72" data-name="Path 72" d="M169.072,321.559c-.013-.444-.03-.889-.047-1.333-.058-1.147-.106-2.3-.251-3.439.008-.151.014-.3.022-.453a23.882,23.882,0,0,0-.335-7.23c-.372-1.4-1.093-2.461-2.646-2.571a13.118,13.118,0,0,0-2.938.049,4.784,4.784,0,0,0-1.4.321,3,3,0,0,0-1.146.866,4.025,4.025,0,0,0-.7.9,8.211,8.211,0,0,0-.666,2.842c-.062.649-.147,1.295-.2,1.944-.042.775-.065,1.552-.129,2.326a34.56,34.56,0,0,0,.109,4.575c.023.379.042.759.059,1.139a2.957,2.957,0,0,0,.075.8.709.709,0,0,0,.763.477.864.864,0,0,0,.218.109c.865.125.923.173,1.967.275,1.126.12,2.259.148,3.39.16a11.068,11.068,0,0,0,1.641-.09,2.355,2.355,0,0,0,.985-.311.761.761,0,0,0,.915-.1.945.945,0,0,0,.284-.665A1.876,1.876,0,0,0,169.072,321.559Z" transform="translate(-139.875 -272.44)" fill="#c46f63"/>
      <path id="Path_73" data-name="Path 73" d="M129.387,269.033a.5.5,0,0,0-.809-.253c.073-.32.149-.656.2-.888a2.823,2.823,0,0,0,.1-.558.688.688,0,0,0-.08-.526.474.474,0,0,0-.668-.11c-.166.1-.2.312-.28.479-.115.279-.1.217-.372.8s-.527,1.159-.766,1.749c.312-1.4.677-2.884.959-3.948.068-.3.171-.582.252-.874a.584.584,0,0,0-.04-.5.39.39,0,0,0-.549-.09,3.6,3.6,0,0,0-.478.769c-.5.9-.995,1.9-1.44,2.857a42.884,42.884,0,0,1,1.677-5.315.447.447,0,0,0-.68-.563,14.766,14.766,0,0,0-1.669,2.575c-.015.026-.029.053-.044.079.157-.575.315-1.15.48-1.723a6.3,6.3,0,0,0,.209-.824l-.033.194a1.986,1.986,0,0,0,.1-.8.726.726,0,0,0-1.329-.187c-.384.737-.78,1.392-1.292,2.475-.157.3-.377.786-.626,1.361.038-.232.075-.464.109-.7a2.82,2.82,0,0,0-.005-1.3.688.688,0,0,0-1.288.308v0a8.269,8.269,0,0,1-.113,1.02c-.228,1.232-.483,2.459-.726,3.689-.137.684-.261,1.37-.363,2.06-.1.588-.22,1.378.587,1.456a.845.845,0,0,0,.784-.634c.32-.731.627-1.468.932-2.206q-.132.518-.265,1.036c.007-.035.011-.051,0,0a1.52,1.52,0,0,0,.008.9.59.59,0,0,0,1.09-.154,3.039,3.039,0,0,0,.131-.441l.029-.072q.362-.823.72-1.647c.432-.994.735-1.651,1.193-2.534-.252.877-.481,1.76-.708,2.644a23.156,23.156,0,0,0-.624,2.911.459.459,0,0,0,.676.358.6.6,0,0,0,.252-.288c.026-.049.142-.282.172-.345.454-1.063.877-2.046,1.33-3.017l-.2.8q-.3,1.262-.551,2.537a6.356,6.356,0,0,0-.185,1.688.489.489,0,0,0,.635.37c.358-.158.476-.584.623-.915.074-.189.146-.375.218-.559l-.04.181a19.5,19.5,0,0,0-.637,3.313c.01-.254.015-.342-.029-.038-.049.288-.045.678.273.8a.46.46,0,0,0,.389.014.716.716,0,0,0,.288-.229,74.549,74.549,0,0,0-1.07,9.592.513.513,0,0,0,0,.059.315.315,0,0,0-.011.067.469.469,0,1,0,.938.032c.185-.7.52-3.84.815-5.736.217-1.362.393-2.731.608-4.094.133-.64.453-2.529.645-3.547.143-.763.29-1.525.45-2.284A3.311,3.311,0,0,0,129.387,269.033Z" transform="translate(-109.973 -237.447)" fill="#541e80" opacity="0.129" style="mix-blend-mode: multiply;isolation: isolate"/>
      <g id="Group_10" data-name="Group 10" transform="translate(19.317 34.579)">
        <path id="Path_74" data-name="Path 74" d="M162.109,363.215l-.05.058.018-.021Z" transform="translate(-161.856 -350.697)" fill="#541e80"/>
        <path id="Path_75" data-name="Path 75" d="M170.006,321.365c-.037-.03.05.042.074.062a.732.732,0,0,0-.249-.157.745.745,0,0,0-.5.05c-.243.073-.478.171-.715.259-.154.066-.306.135-.458.207.667-.485,1.266-.9,2.051-1.577a.531.531,0,0,0-.615-.847c-1.576.771-3.058,1.725-4.588,2.585q.909-.782,1.836-1.543c.76-.614,1.527-1.221,2.271-1.856a5.42,5.42,0,0,0,1.136-1.155.511.511,0,0,0-.417-.812c-.248-.014-.446.164-.657.267-.364.2-.721.416-1.075.635-.7.426-1.4.846-2.093,1.27.675-.511,1.358-1.014,2.037-1.519.7-.52,1.417-1.018,2.061-1.6a.538.538,0,0,0-.169-.972c-.279-.058-.508.174-.741.292-.509.3-1.008.62-1.509.935-.875.538-1.876,1.227-2.846,1.892.731-.6,1.478-1.173,2.223-1.751a24.382,24.382,0,0,0,2.688-2.277c.08-.2.108-.073.1-.4a.3.3,0,0,0-.067-.138.394.394,0,0,0-.415-.157,3.2,3.2,0,0,0-.7.3c-.544.267-1.078.553-1.608.846q-1.441.777-2.828,1.647c.463-.432.934-.855,1.418-1.263a42.691,42.691,0,0,1,3.658-2.677l.256-.142a1.789,1.789,0,0,0,.436-.291.365.365,0,0,0-.169-.579c-.252-.065-.486.12-.692.241-.121.078-.241.159-.362.239l-.13.073c-1.367.757-2.717,1.55-4.029,2.4q.391-.326.786-.645c.927-.75,1.873-1.476,2.808-2.216.255-.2.554-.453.767-.622a1.118,1.118,0,0,0,.2-.155l.014-.01,0,0a.407.407,0,0,0,.121-.257.376.376,0,0,0-.358-.384c-.294.038-.194.073-.334.148l-.036.029c-1.126.8-2.3,1.525-3.475,2.249l-1.539.947c.391-.346.786-.688,1.179-1.031.777-.662,1.557-1.321,2.311-2.01.168-.178.412-.3.533-.512a.369.369,0,0,0-.319-.522.528.528,0,0,0-.327.135q-.326.212-.65.428c-.775.508-1.551,1.015-2.333,1.513-.752.5-1.545.953-2.265,1.49a.335.335,0,0,0,.416.508c.435-.286.875-.565,1.316-.842-.631.558-1.253,1.126-1.849,1.723a1.1,1.1,0,0,0-.381.572.351.351,0,0,0,.363.361,1.927,1.927,0,0,0,.98-.385c.384-.228.766-.46,1.149-.69-.4.347-.8.7-1.192,1.065-.271.259-.535.527-.8.795-.136.156-.326.336-.271.562a.467.467,0,0,0,.589.3,7.2,7.2,0,0,0,1.163-.731l.262-.182-.11.1a22.6,22.6,0,0,0-2.048,2.083.435.435,0,0,0,.416.641,1.9,1.9,0,0,0,.837-.41c.96-.651,1.927-1.293,2.926-1.882q.537-.313,1.079-.619c-.726.558-1.455,1.113-2.169,1.685s-1.39,1.139-2.042,1.757c-.321.346-.805.623-.861,1.131a.558.558,0,0,0,.548.514,1.092,1.092,0,0,0,.4-.1c-.228.207-.453.419-.666.642-.093.087-.394.425-.381.408a.668.668,0,0,0-.2.45c.026.583.507.7.977.465a18.62,18.62,0,0,0,1.623-1.037c.446-.3.985-.64,1.563-.994-.668.547-1.329,1.1-1.974,1.676a12.565,12.565,0,0,0-1.066,1.026,2.625,2.625,0,0,0-.527.7c-.176.635.542.984,1.061.7.261-.115.74-.392,1.258-.7-.055.051-.11.1-.165.153-.6.658.043,1.292.8,1.107a4.691,4.691,0,0,0,1.359-.7c.694-.452,1.4-.887,2.13-1.28l.283-.152a.569.569,0,0,0,.824.4.621.621,0,0,0,.248-.272.91.91,0,0,1,.08-.114,2.4,2.4,0,0,0,.592-1.02A.535.535,0,0,0,170.006,321.365Z" transform="translate(-161.177 -308.85)" fill="#541e80" opacity="0.129" style="mix-blend-mode: multiply;isolation: isolate"/>
      </g>
      <path id="Path_76" data-name="Path 76" d="M205.885,272.4c.152-.638.271-1.289.511-2.186.088-.358.2-.71.267-1.073.032-.171.093-.369-.037-.515a.467.467,0,0,0-.609-.118,1.853,1.853,0,0,0-.446.593c-.149.242-.291.488-.429.736a44.044,44.044,0,0,1,1.441-4.543.7.7,0,0,0,.024-.582.487.487,0,0,0-.832-.029c-.5.844-1.062,1.846-1.6,2.84.263-.954.529-1.866.759-2.6a.933.933,0,0,0,.023-.684.532.532,0,0,0-.712-.213.72.72,0,0,0-.3.4c-.194.432-.152.317-.274.587-.392.807-1.256,2.44-2.056,3.837.433-1.431.881-2.856,1.39-4.261q.169-.365.337-.73c.07-.162.172-.347.085-.522a.452.452,0,0,0-.726-.171,2.113,2.113,0,0,0-.354.651c-.089.2-.176.41-.261.621-.645,1.344-1.484,2.91-2.342,4.366.536-1.471.987-2.972,1.421-4.477.091-.482.731-1.911.314-2.216a.4.4,0,0,0-.608.122c-.585,1.15-1.2,2.515-1.814,3.872.133-.645.254-1.294.377-1.941.107-.634.23-1.266.3-1.906a4.092,4.092,0,0,0,.046-.682c0-.024,0-.071,0-.141a.41.41,0,0,0,0-.218.472.472,0,0,0-.782-.227c-.094.043-.2.412-.192.443a.749.749,0,0,0-.054.218c-.159.488-.38.954-.574,1.43-.658,1.546-1.319,2.912-2.2,4.526-.374.738-.866,1.426-1.216,2.171a.305.305,0,0,0,.557.214,58.406,58.406,0,0,0,2.89-5.21c-.315,1.521-.67,3.035-1.1,4.528-.164.539-.317,1.081-.466,1.624-.023.1-.062.191-.081.288a.439.439,0,0,0-.04.252.473.473,0,0,0,.579.415c.294-.064.362-.371.469-.61.158-.382.309-.766.468-1.147.265-.69.57-1.272,1.131-2.481l.093-.2c-.488,1.37-1.02,2.724-1.61,4.055a1.242,1.242,0,0,0-.157.755c.123.462.661.4.948.127a21.156,21.156,0,0,0,1.9-2.849c-.105.362-.21.724-.309,1.088a3.112,3.112,0,0,0-.192.928.537.537,0,0,0,.512.5c.38,0,.569-.376.762-.646.2-.32.418-.634.624-.954.263-.414.55-.89.842-1.389l-.032.128c-.135.554-.257,1.111-.377,1.668-.04.366-.288.8-.049,1.137a.577.577,0,0,0,.755.156,1.4,1.4,0,0,0,.456-.647c.19-.4.318-.7.622-1.338.067-.137.136-.272.2-.408-.172.7-.316,1.408-.421,2.124-.049.292-.082.586-.119.879,0,.023-.008.047-.012.069a.585.585,0,0,0,.049.314.447.447,0,0,0,.621.245c.155-.082.218-.257.3-.4.135-.319.254-.6.368-.865l0,.01c-.293,1.521-.544,3.052-.765,4.585.015.422.159.8.142.894.053.668-.022.6.057,1.18a.663.663,0,0,0,.693.666c.007.316-.014.738-.019,1.128-.012.933-.081,1.872,0,2.8l-.013-.134c0,.036,0,.072,0,.108a.505.505,0,0,0,.844.384.516.516,0,0,0,.159-.35.332.332,0,0,0,0-.085c.017-.133.007-.276.018-.407.03-.686.029-1.372.034-2.058-.052-.9.254-2.447-.653-2.583-.046-.423-.142-.841-.274-1.464C205.383,275.088,205.6,273.97,205.885,272.4Z" transform="translate(-167.71 -237.325)" fill="#541e80" opacity="0.129" style="mix-blend-mode: multiply;isolation: isolate"/>
      <path id="Path_77" data-name="Path 77" d="M157.731,235.243a.342.342,0,0,0-.126-.014.471.471,0,0,0-.328-.77,3.849,3.849,0,0,0-1.37.812c-1.794,1.139-3.556,2.331-5.261,3.6a.429.429,0,0,0-.078.555,3.016,3.016,0,0,0-.629.7.461.461,0,0,0,.26.631.927.927,0,0,0,.614-.105c2.148-1.207,3.545-2.487,5.49-3.785q.616-.419,1.258-.8a1.526,1.526,0,0,0,.342-.233A.371.371,0,0,0,157.731,235.243Zm-3.89,2.512c-.388.29-.766.573-1.12.834C153.1,238.3,153.466,238.023,153.841,237.755Z" transform="translate(-133.176 -217.008)" fill="#541e80" opacity="0.129" style="mix-blend-mode: multiply;isolation: isolate"/>
      <g id="Group_11" data-name="Group 11" transform="translate(18.765 10.682)">
        <path id="Path_78" data-name="Path 78" d="M162.958,209.975c-.005-.52-.009-.4-.021-.934.006-1.043.025-2.192.08-3.029.006-.084.012-.168.018-.252h0a.405.405,0,0,0-.677-.308.413.413,0,0,0-.128.28h0c-.007.06-.015.12-.023.18.006-.079.011-.134.014-.172.068-.341.012-.735-.431-.675-.213.045-.29.261-.32.453-.049.22-.1.44-.146.66-.146.68-.283,1.361-.419,2.042,0-.333.005-.666-.008-1,.022.254,0-.388-.011-.515a3.585,3.585,0,0,0-.032-.357.492.492,0,0,0-.2-.388c-.534-.273-.624.431-.746.784-.116.38-.229.761-.333,1.145a.706.706,0,0,0-.323.165,1.532,1.532,0,0,0-.395.925,5.194,5.194,0,0,0-.063,1.366.168.168,0,0,0,.008.075.035.035,0,0,1,0-.008c.019.208.039.416.062.623,0,.444.459.789.84.459a.683.683,0,0,0,.165-.556c0,.017.006.025.006.006q.036-.307.073-.613a3.961,3.961,0,0,0,.19,1.4.5.5,0,0,0,.83.036,2.85,2.85,0,0,0,.336-1.061c.049.334.176.685.565.646.308-.038.46-.315.552-.64a.421.421,0,0,0,.477-.183C163.019,210.265,162.946,210.373,162.958,209.975Z" transform="translate(-158.778 -205.059)" fill="#541e80" opacity="0.102" style="mix-blend-mode: multiply;isolation: isolate"/>
        <path id="Path_79" data-name="Path 79" d="M158.837,227.788l0,.042C158.839,227.787,158.839,227.748,158.837,227.788Z" transform="translate(-158.823 -222.542)" fill="#541e80"/>
        <path id="Path_80" data-name="Path 80" d="M158.863,228.095c0-.023,0-.046-.007-.069A.4.4,0,0,0,158.863,228.095Z" transform="translate(-158.838 -222.738)" fill="#541e80" opacity="0.129" style="mix-blend-mode: multiply;isolation: isolate"/>
      </g>
      <path id="Path_81" data-name="Path 81" d="M196.4,213.138c-.01-.742-.041-1.226-.013-2.136,0-.566.006-1.131-.009-1.7-.013-.236-.02-.233-.021-.324a.463.463,0,0,0-.064-.292.31.31,0,0,0-.323-.123.349.349,0,0,0-.228.2,1.354,1.354,0,0,0-.143.637c-.09.721-.156,1.315-.227,1.862-.06-.908-.066-1.919-.091-2.956-.017-.3-.033-.607-.059-.91-.021-.242,0-.62-.311-.664a.324.324,0,0,0-.35.176,1.722,1.722,0,0,0-.107.585c-.075.708-.127,1.228-.174,1.734-.048.589-.121,1.273-.2,1.911-.072-.665-.122-1.94-.132-2.3-.024-.6-.057-1.193-.1-1.788-.035-.246.02-.6-.246-.731a.34.34,0,0,0-.428.133.78.78,0,0,0-.077.271c-.045.252-.085.51-.122.77,0-.022,0-.044,0-.066a.364.364,0,0,0-.66-.1c-.164.517-.242,1.341-.4,2.121a.372.372,0,0,0-.557.3,7.987,7.987,0,0,0,.089,1,.737.737,0,0,0,.249.5.4.4,0,0,0,.433-.009,3.514,3.514,0,0,0,.143.97.423.423,0,0,0,.712.059,2.241,2.241,0,0,0,.242-.947,4.852,4.852,0,0,0,.128.8,3.463,3.463,0,0,0,.25.7,1.144,1.144,0,0,0,.313.482.418.418,0,0,0,.6-.2c.006-.016.011-.035.016-.052.081.561.241,1.009.556,1.093a.572.572,0,0,0,.554-.093c.042.12.137.212.359.25C196.592,214.275,196.368,213.534,196.4,213.138Z" transform="translate(-165.082 -195.326)" fill="#541e80" opacity="0.129" style="mix-blend-mode: multiply;isolation: isolate"/>
      <path id="Path_82" data-name="Path 82" d="M120.97,371.45c-.086-.013-.172-.021-.258-.029.06-.11.135-.243.234-.415.038-.061.076-.122.115-.183a.862.862,0,0,0,.259-.792.764.764,0,0,0-.909-.558,1.011,1.011,0,0,0-.509.371,4.259,4.259,0,0,1-1.02.74.831.831,0,0,0-.478-.34.766.766,0,0,0-1.1-.532,1.162,1.162,0,0,0-.423.5c-.045.071-.093.141-.139.212a.886.886,0,0,0-.361-.212.79.79,0,0,0,.083-.56.762.762,0,0,0-1.306-.318,2.185,2.185,0,0,0-.2.185,2.487,2.487,0,0,0-.572.885c-.434.041-.868.116-1.3.145-.381.028-1.613.138-2.189.2-1.14.073-2.279.225-3.423.193-1.686-.082-3.361-.3-5.05-.337a58.251,58.251,0,0,0-6.919-.073c-2.336-.232-3.82-.6-5.656-.851a9.59,9.59,0,0,0-1.135-.088.786.786,0,0,0-.347-.3,1.243,1.243,0,0,0-.743-.054.744.744,0,0,0-.752-.169.833.833,0,0,0-.152.063c-.014-.019-.027-.038-.043-.056a.771.771,0,0,0-.99-.11,1.219,1.219,0,0,0-.227.223.861.861,0,0,0-1.041-.21,1.073,1.073,0,0,0-.148.1c-.005-.077-.009-.153-.017-.23a.739.739,0,0,0-1.07-.623,1.053,1.053,0,0,0-.466.706c-.053.163-.1.328-.148.493a1.043,1.043,0,0,0-.524-.424.873.873,0,0,0-.776.14c-.093-.154-.187-.307-.283-.459a2.939,2.939,0,0,0-.589-.767.7.7,0,0,0-1.056.474.768.768,0,0,0,.091.511.658.658,0,0,0-.245.421,1.636,1.636,0,0,0,.111.712,1.545,1.545,0,0,0-1.132.57.891.891,0,0,0-.129.3.963.963,0,0,0-.2.056.826.826,0,0,0-.353,1.3,2.205,2.205,0,0,0,.9.611,6.415,6.415,0,0,0,1.386.458,17.959,17.959,0,0,0,4.772.276c2.071-.082,4.142-.128,6.214-.081,1.769.007,3.539-.016,5.307.056,3.642.018,7.286.065,10.919.345,1.228.088,2.45.251,3.68.3,1.384.041,2.768-.04,4.149-.123a13.889,13.889,0,0,1,2.119.067c.872.109,1.739.283,2.618.313a7.307,7.307,0,0,0,2.293-.386,2.068,2.068,0,0,0,1.034-.534C123.663,372.4,121.936,371.551,120.97,371.45Z" transform="translate(-77.28 -319.652)" fill="#81bd84"/>
      <g id="Group_12" data-name="Group 12" transform="translate(20.117 27.609)">
        <path id="Path_83" data-name="Path 83" d="M168.062,280.133l0-.01a.781.781,0,0,0-.089-.175,3.955,3.955,0,0,0-.54-.783,1.334,1.334,0,0,0-1.048-.523,1.644,1.644,0,0,0-.339.057.766.766,0,0,0-.087-.016.641.641,0,0,0-.082,0,1.269,1.269,0,0,0-.38-.1.245.245,0,0,0-.177.061l-.017,0a.626.626,0,0,0-.635.523c-.1.54.406.752.855.85a1.908,1.908,0,0,0,.781.931.653.653,0,0,0,.3.087l.08-.009a.708.708,0,0,0,.236-.061.547.547,0,0,0,.153-.118.45.45,0,0,0,.528,0,.4.4,0,0,0,.162-.213.275.275,0,0,0,.16.01A.3.3,0,0,0,168.062,280.133Z" transform="translate(-164.65 -278.577)" fill="#e48a80"/>
        <path id="Path_84" data-name="Path 84" d="M173.253,289.165c-.022,0-.043.007-.065.007C173.316,289.161,173.322,289.158,173.253,289.165Z" transform="translate(-171.222 -286.724)" fill="#e48a80" opacity="0.102" style="mix-blend-mode: multiply;isolation: isolate"/>
      </g>
      <path id="Path_85" data-name="Path 85" d="M142.693,339.8a.617.617,0,0,0-.054-.068.422.422,0,0,0,.089-.328.433.433,0,0,0-.26-.37l.015-.033a.889.889,0,0,0,.094-.831c0-.239-.022-.483-.022-.716a5.754,5.754,0,0,0-.064-.791l.026-.073a.816.816,0,0,0,.057-.558c.038-.089.072-.166.1-.227a.508.508,0,0,0-.58-.666c-.343.112-.513.49-.7.771a7.327,7.327,0,0,0-.658,2.716c-.011.133-.023.269-.025.406-.022.128-.043.257-.061.385a1.242,1.242,0,0,0,1.532,1.277A.564.564,0,0,0,142.693,339.8Z" transform="translate(-126.055 -294.493)" fill="#e48a80"/>
      <path id="Path_86" data-name="Path 86" d="M214.12,315.762a.571.571,0,0,0-.119-.233l0-.013a.5.5,0,0,0-.976.035c-.044.3-.064.527-.087.723a.456.456,0,0,0-.087.154c-.139.383-.283.764-.416,1.15-.02.062-.041.125-.062.189l0,0c-.305.43-.793,1.1-.168,1.486C213.75,319.9,214.44,316.821,214.12,315.762Z" transform="translate(-180.902 -279.125)" fill="#e48a80"/>
      <g id="Group_13" data-name="Group 13" transform="translate(19.454 25.883)">
        <path id="Path_87" data-name="Path 87" d="M167.48,273.68a4.152,4.152,0,0,0-2.19-2.169,4.341,4.341,0,0,0-1.48-.428,3.328,3.328,0,0,0-1.467.3c-.508.274-.842.952-.271,1.351a.994.994,0,0,0,.187.085.35.35,0,0,0,.338.374,16.574,16.574,0,0,1,1.884.036l.027,0a2.181,2.181,0,0,1,.8.315c.312.212.226.13.367.294.017.029.04.066.057.1l.037.082.012.045c0,.015,0,.031.007.047,0,.062,0,.188-.006.284,0,.014-.01.044-.022.093s-.031.094-.034.1l-.021.048c-.041.046-.079.094-.118.142l-.038.045a.589.589,0,0,0-.379.4.568.568,0,0,0,.655.728.537.537,0,0,0,.265-.066l.021-.015a.582.582,0,0,0,.176-.133.672.672,0,0,0,.821.1A1.7,1.7,0,0,0,167.48,273.68Z" transform="translate(-161.773 -271.082)" fill="#faefac"/>
        <path id="Path_88" data-name="Path 88" d="M176.657,272.764l.018.009.018.008C176.58,272.725,176.487,272.689,176.657,272.764Z" transform="translate(-173.158 -272.344)" fill="#faefac"/>
      </g>
      <path id="Path_89" data-name="Path 89" d="M216.23,313.157a2.148,2.148,0,0,0-.324-1.168,1.085,1.085,0,0,0-.555-.52.757.757,0,0,0-.942.493c0,.023-.008.046-.012.068a.694.694,0,0,0-.089.068.429.429,0,0,0-.338.2.48.48,0,0,0-.059.324.639.639,0,0,0,.023.229c0,.007,0,.013,0,.02a.593.593,0,0,0,0,.139,1.964,1.964,0,0,0,0,.3c0-.019,0-.041-.006-.069,0,.09,0,.18,0,.269-.043.334-.063.55-.109.781-.023.046-.03.054-.047.094a7.032,7.032,0,0,1-.757,1.223,4.348,4.348,0,0,0-.93,1.164.706.706,0,0,0,.43.861,6.9,6.9,0,0,0-.157,1.895c0,.846.587,2.3,1.6,1.524.312-.384.267-.492.542-1.227.161-.481.368-.944.534-1.423.208-.59.273-1.219.488-1.807A9.608,9.608,0,0,0,216.23,313.157Z" transform="translate(-181.018 -276.259)" fill="#faefac"/>
      <path id="Path_90" data-name="Path 90" d="M126.254,340.347a5.973,5.973,0,0,0-.072-.97,8.139,8.139,0,0,0-.267-1.5,3.681,3.681,0,0,0-.538-1.135.67.67,0,0,0-.971-.5c-.339.191-.414.613-.5.96-.005.024-.009.049-.014.074a.445.445,0,0,0-.308.522.393.393,0,0,0,.069.15c0,.008-.008.015-.012.024a.546.546,0,0,0,.061.394l.054.124a6.958,6.958,0,0,0,.035.932.629.629,0,0,0,.005.063c0,.055.013.15.022.217a.66.66,0,0,0,.3.447.6.6,0,0,0,.233.774,2.372,2.372,0,0,0,.821.218.851.851,0,0,0,.885-.227.512.512,0,0,0,.1-.164.271.271,0,0,0,.036-.088h0a.61.61,0,0,0,.012-.063C126.227,340.519,126.242,340.433,126.254,340.347Z" transform="translate(-112.911 -295.298)" fill="#faefac"/>
      <path id="Path_91" data-name="Path 91" d="M130.879,331.786c-.034,0-.069,0-.1,0s-.122,0-.193,0c-.4,0-.795-.03-1.192-.034-.833.057-1.052.084-1.882.19-.243.035-.485.077-.727.119a.655.655,0,0,0-.511.237.445.445,0,0,0,.137.607,2.615,2.615,0,0,1,.641.435,1.505,1.505,0,0,1,.373.559c.246.54.268.538.516,1.062.013.029.024.059.035.089s.018.054.033.1a3.7,3.7,0,0,1,.126.468,2.14,2.14,0,0,1-.138,1.014c-.037.1-.114.2-.09.315a.283.283,0,0,0,.089.2.655.655,0,0,0,.239.509.662.662,0,0,0,.644.123.642.642,0,0,0,.794-.053.672.672,0,0,0,.2-.439h0s0,0,0,0a3.159,3.159,0,0,0,.012-.35,1.075,1.075,0,0,0,0-.139c0-.012,0-.025,0-.038a5.192,5.192,0,0,0-.1-1.037c-.015-.057-.033-.113-.049-.17a5.342,5.342,0,0,1,.194-.767,4.612,4.612,0,0,1,.58-1.263,2.832,2.832,0,0,1,.48-.571,1.487,1.487,0,0,0,.332-.422A.52.52,0,0,0,130.879,331.786Z" transform="translate(-114.939 -291.899)" fill="#5e9dc0"/>
      <path id="Path_92" data-name="Path 92" d="M218.187,317.968c0-.021,0-.043-.007-.064v0a5.052,5.052,0,0,0-.144-.679q-.015-.276-.047-.55c-.057-.341-.1-.746-.426-.94l-.007,0a.771.771,0,0,0-.716-.213.859.859,0,0,0-.587,1c0,.373-.012.746-.028,1.118a6.522,6.522,0,0,1-.2,1.337c-.18.41-.393.882-.578,1.3-.1.21-.172.381-.239.558-.423.829-.523,1.151-1.014,2.033-.306.511-.245.455-.514.681-.146.094-.308.161-.459.248a.934.934,0,0,0-.472.995.965.965,0,0,0,.838.722,1.354,1.354,0,0,0,.427.008,2.368,2.368,0,0,0,1.109.327c1.536-.073,1.927-2.048,2.481-4.209q.188-.878.452-1.736A5.707,5.707,0,0,0,218.187,317.968Z" transform="translate(-181.544 -279.388)" fill="#5e9dc0"/>
      <path id="Path_93" data-name="Path 93" d="M188.931,261.838a1.2,1.2,0,0,0-.476-.4c-.04-.021-.082-.039-.123-.057a.554.554,0,0,0-.534-.554,1.75,1.75,0,0,0-.516.07,3.24,3.24,0,0,0-1.12.362,3.843,3.843,0,0,0-1.788,2.549,6.94,6.94,0,0,0,.422,2.425l0,.014a1.852,1.852,0,0,1-.035.686c-.083.3-.243.662-.024.944a.663.663,0,0,0,.8.167,1.18,1.18,0,0,0,.535-.3,1.42,1.42,0,0,0,.365-.385,1.728,1.728,0,0,0,.091-.2.61.61,0,0,0,.671-.612,3.042,3.042,0,0,0-.1-.577c0,.005,0,.023,0,.043a4.532,4.532,0,0,0-.146-.478,2.12,2.12,0,0,1-.023-1.366,3.241,3.241,0,0,1,.687-1.12c.021-.023.054-.059.088-.093.021-.012.041-.024.063-.034s.067-.022.1-.03a.506.506,0,0,0,.384-.256,1.007,1.007,0,0,0,.39-.036A.546.546,0,0,0,188.931,261.838Z" transform="translate(-159.702 -237.308)" fill="#5e9dc0"/>
      <path id="Path_94" data-name="Path 94" d="M196.019,267.455l.008-.051v0c0-.009,0-.018,0-.029a.7.7,0,0,0-.02-.367.477.477,0,0,0-.484-.32.373.373,0,0,0-.283-.19.486.486,0,0,0-.475.229c-.032.037-.06.076-.09.114a4.468,4.468,0,0,0-.973,1.363,2.979,2.979,0,0,0-.238,1.659.99.99,0,0,0,.2.556.614.614,0,0,0,.567.16.456.456,0,0,0,.471-.33c.033-.039.065-.079.095-.12a.511.511,0,0,0,.393-.14,2.467,2.467,0,0,0,.4-.939c.108-.351.216-.7.305-1.059a1.537,1.537,0,0,0,.121-.411A.485.485,0,0,0,196.019,267.455Z" transform="translate(-166.693 -241.662)" fill="#ebaf5f"/>
      <path id="Path_95" data-name="Path 95" d="M128.911,311.66s0,0,0,0a.523.523,0,0,0-.239-.456.453.453,0,0,0-.1-.049.519.519,0,0,0-.7-.523.913.913,0,0,0-.354.317,1.273,1.273,0,0,0-.18.172,1.294,1.294,0,0,0-.828.559,3.359,3.359,0,0,0-.24.419,4.26,4.26,0,0,0-.664,2.134c-.032.327-.02.145-.043.62a.7.7,0,0,0,0,.185.463.463,0,0,0,.019.657.574.574,0,0,0,.492.317,2.47,2.47,0,0,0,1.041-.441,4.827,4.827,0,0,1,.455-.236,1.183,1.183,0,0,0,.5-.26,5.008,5.008,0,0,0,.68-2.049A4.624,4.624,0,0,0,128.911,311.66Z" transform="translate(-114.351 -275.611)" fill="#ebaf5f"/>
      <path id="Path_96" data-name="Path 96" d="M230.047,336.784a.517.517,0,0,0-.992.153.449.449,0,0,0-.25.2,10.163,10.163,0,0,0-.508,1.218,8.571,8.571,0,0,0-.417,1.9c-.021.168-.032.337-.045.506a.474.474,0,0,0,.06.342.54.54,0,0,0,.785.411,1.649,1.649,0,0,0,.848-.547,1.4,1.4,0,0,0,.294-.466,3.219,3.219,0,0,0,.035-.692c-.009-.4-.007-.81.012-1.214,0-.189.008-.4,0-.6.052-.163.1-.327.152-.492A.935.935,0,0,0,230.047,336.784Z" transform="translate(-193.164 -295.527)" fill="#ebaf5f"/>
      <path id="Path_97" data-name="Path 97" d="M139.619,314.123a9.1,9.1,0,0,0-.58-1.778c-.258-.5-1.05-1.25-1.536-.614-.187.3-.028.665.025.98l.038.175a3.19,3.19,0,0,1-.13.562,3.547,3.547,0,0,0-.293,1.659.716.716,0,0,0-.2.346.544.544,0,0,0,0,.556.812.812,0,0,0,.907.289c.37-.035.22-.032.726-.066a1.386,1.386,0,0,0,.285-.021C140.15,316.451,139.777,314.663,139.619,314.123Z" transform="translate(-123.15 -276.301)" fill="#f8e765"/>
      <path id="Path_98" data-name="Path 98" d="M167.437,255.44a4.692,4.692,0,0,0,.254-.458c.489-1.009.977-2.325.051-3.24-1.283-1.241-2.845-.227-3.915.757a4.227,4.227,0,0,0-.678.792c-.055.061-.109.124-.159.19a1.77,1.77,0,0,0-.485,1.083.744.744,0,0,0-.173.778,1.252,1.252,0,0,0-.018.211.7.7,0,0,0,.129.418.34.34,0,0,0,.036.047.567.567,0,0,0,.27.175.616.616,0,0,0,.707-.272,3.708,3.708,0,0,1,.693-.045c.22.025,1.155.414,1.459.479a1.734,1.734,0,0,0,.782-.031.663.663,0,0,0,.837-.05.7.7,0,0,0,.213-.491c0-.049-.006-.092-.009-.124a.57.57,0,0,1,0-.065c0-.005,0-.009,0-.014v0C167.432,255.534,167.435,255.487,167.437,255.44Zm-.429-1.868q.085-.076.167-.156c-.041.165-.088.328-.141.485a.656.656,0,0,0,.007-.071A.541.541,0,0,0,167.008,253.572Z" transform="translate(-142.714 -229.87)" fill="#f8e765"/>
      <path id="Path_99" data-name="Path 99" d="M126.829,188.906c.213.108.391.31.634.343a.606.606,0,0,0,.634-.879c-.192-.3-.572-.423-.851-.633-1.658-1.134-3.186-2.445-4.747-3.7-1.513-1.117-2.53-1.9-3.773-2.966-.834-.674-1.683-1.328-2.535-1.979.036-.424-.29-2.6-.361-3.459-.053-.931-.13-1.86-.166-2.792-.006-.192-.018-.384-.032-.575.26.177.535.356.832.541a2.771,2.771,0,0,0,.943.357.63.63,0,0,0,.565-.928c-.327-.462-.359-.367-.594-.6-.207-.185-.988-.8-1.34-1.085-.2-.152-.4-.3-.6-.448a1.048,1.048,0,0,0-.181-.119c-1.237-.94-2.106-1.7-3.558-2.711a12.463,12.463,0,0,0-2.066-1.18l-.186-.09c-.006-.476-.031-.951-.041-1.427-.017-.561-.071-1.12-.131-1.678.629,0,1.258,0,1.886-.02a.608.608,0,1,0-.193-1.2l-.015.006-.147,0c-.547-.008-1.094,0-1.641.005-.033-.557-.055-1.114-.085-1.672,0-.082-.008-.164-.012-.246-.006-.16-.01-.32-.013-.48a.607.607,0,0,0-1.115-.344.585.585,0,0,0-.091.3h0c0,.007,0,.014,0,.022,0,.087,0,.175,0,.26,0,.047,0,.094.006.141.018.536.046,1.071.063,1.607,0,.135,0,.271,0,.406-.394.006-.787.017-1.181.021-.307.021-.668-.073-.911.165a.611.611,0,0,0,.392,1.048c.571-.014,1.142-.017,1.713-.018.069.751.139,1.5.145,2.259-.012.265-.021.531-.043.8l-.111.059a15.269,15.269,0,0,0-1.355.736c-1.257.792-2.491,1.62-3.725,2.448-.7.454-1.322.939-1.909,1.406l-.266.172a12.6,12.6,0,0,0-2.312,1.663,1.241,1.241,0,0,0-.425.751.647.647,0,0,0,.845.633,5.928,5.928,0,0,0,1.185-.717c.2-.137.368-.253.514-.356-.013.3-.023.6-.034.865-.067,1.667-.08,3.34-.273,5-.7.376-1.4.761-2.084,1.163-1.81,1.019-3.656,1.975-5.429,3.058a51.405,51.405,0,0,0-4.827,3.385.606.606,0,0,0,.826.886,40.209,40.209,0,0,1,3.532-2.535c-.093,1.072-.249,2.137-.309,3.212-.142,2.431-.216,4.866-.415,7.294-.16,2.211-.393,4.416-.606,6.622-.091,1.425-.114,2.854-.17,4.281-.009.173-.014.347-.016.52a.748.748,0,0,0-.126-.006,1.006,1.006,0,0,0-.647.442,5.272,5.272,0,0,0-.458.608c-.035-.255-.073-.51-.115-.765-.067-.361-.159-.974-.63-.967-.363.039-.438.512-.466.542a5.505,5.505,0,0,0-.316,1.393c-.019.183-.031.313-.041.415a9.37,9.37,0,0,0-.719-.932,6.014,6.014,0,0,0-.827-.812,1.075,1.075,0,0,0-.5-.264.391.391,0,0,0-.425.358,5.76,5.76,0,0,0,.193.791c.151.533.323,1.061.46,1.6a2.927,2.927,0,0,0,.168.637.354.354,0,0,0,.63-.287,18.473,18.473,0,0,0-.483-1.853c.09.1.184.214.287.336a7.66,7.66,0,0,1,.69.97c.179.273.308.69.692.7.592-.018.64-.849.679-1.5a4.38,4.38,0,0,0,.134.972.454.454,0,0,0,.619.172,1.3,1.3,0,0,0,.385-.494c.16-.268.28-.462.4-.627-.017.175-.034.372-.041.588a.541.541,0,0,0,.671.537,7.633,7.633,0,0,0,.9-.515c.149-.1.315-.165.466-.257a.457.457,0,0,0,.285-.362.479.479,0,0,0-.58-.547c-.008,0-.008,0-.006,0l-.018,0-.041.009c0-.082-.005-.165-.009-.247-.016-.575.022-1.149.038-1.723.051-1.255.068-2.512.157-3.766.143-1.5.311-3,.431-4.51.285-3.011.423-6.032.563-9.052.069-.808.108-1.618.228-2.422.059-.49.108-.982.135-1.475,0-.137.03-.28.024-.417,1.326-.807,2.713-1.582,4.125-2.332,1.834-1.042,3.677-2.067,5.564-3.011.862-.451,1.746-.859,2.607-1.312,1.02-.573,2.069-1.088,3.138-1.563l.011,0,.025-.008a4.357,4.357,0,0,1,.717.251c1.392.569,3.563,2.629,5.237,3.8.939.742,1.9,1.457,2.835,2.2.576.45,1.269,1.086,2.14,1.762.638.506,1.311.965,1.953,1.466q.436.349.867.7a41.089,41.089,0,0,1-.162,4.683c-.051,1.765-.007,3.531-.01,5.3.014,1.611.006,3.226.1,4.835.192,2.1.247,4.206.345,6.31,0,.2.019.393.031.589a9.2,9.2,0,0,0-.848,1.7,7.658,7.658,0,0,0-.88-1.375c-.254-.33-.693-.331-.839.091a1.124,1.124,0,0,0,.032.478c.089.43.177.86.271,1.288.077.246.046.576.286.732a.417.417,0,0,0,.623-.445l-.016-.072c.1.219.184.46.423.543.683.137.8-.823,1.03-1.271l.054-.119c-.025.294-.057.594-.09.847a.437.437,0,0,0,.655.446A1.131,1.131,0,0,0,124,209.9a.523.523,0,0,0,.174.629.705.705,0,0,0,.76-.145q.371-.235.746-.464c.308-.185.618-.366.934-.536.246-.115.518-.32.461-.626a.523.523,0,0,0-.5-.475.6.6,0,0,0-.356.113q-.059.033-.114.071c.007-.008-.171.111-.242.157-.24.161-.443.3-.625.429.057-.157.112-.314.165-.472a2.921,2.921,0,0,0,.211-1.093.464.464,0,0,0-.678-.323,2.158,2.158,0,0,0-.494.552c-.083.11-.162.223-.242.335a5.574,5.574,0,0,0-.029-.8c-.028-.7-.045-1.4-.088-2.1-.059-1.024-.089-2.049-.146-3.074-.042-.753-.144-1.5-.162-2.256-.059-2.26-.07-4.521-.066-6.782,0-.961-.018-1.923.033-2.883.082-1.142.18-2.285.172-3.43.3.24.6.479.9.712C125.48,187.94,126.119,188.475,126.829,188.906Zm-13.4-11.956c-1.35-1.048-2.7-2.317-4.441-2.617a3.34,3.34,0,0,0-1.306.454c-1.006.428-1.947.986-2.918,1.485-1.1.55-2.207,1.1-3.3,1.664.163-1.889.136-3.792.259-5.684.014-.164.032-.3.047-.425.146-.1.312-.216.513-.352,1.224-.843,2.575-1.687,3.436-2.317a24.01,24.01,0,0,1,2.34-1.434,2.365,2.365,0,0,1,1.24-.051c.255.065.515.119.763.21a10.389,10.389,0,0,1,.989.67c.128.1.255.193.383.289.183.146.388.309.66.516.831.738,1.511,1.354,2.246,1.941a18.526,18.526,0,0,1,.148,2.057c.039.694.1,1.388.132,2.083.077.888.2,1.772.3,2.657v.014Q114.167,177.535,113.425,176.951Z" transform="translate(-83.535 -158.668)" fill="#2e2e54"/>
      <path id="Path_100" data-name="Path 100" d="M148.112,375.32a1.471,1.471,0,0,0-.745-.091c-1.843.117-3.687.006-5.53-.029-3.077-.02-6.154-.042-9.23-.142-2.865-.035-5.721-.254-8.582-.4-.426-.029-.853-.051-1.278-.1-.154,0-.317-.078-.464-.014a.368.368,0,0,0,.117.709c1.158.176,2.331.207,3.5.316,1.332.125,2.659.3,3.994.387,3.265.213,6.538.271,9.809.333,2.646-.039,6.226.357,8.31.016A.559.559,0,0,0,148.112,375.32Z" transform="translate(-111.744 -324.822)" fill="#2e2e54"/>
      <path id="Path_101" data-name="Path 101" d="M180.785,205.356a2.437,2.437,0,0,0-1.052-1.215,2.122,2.122,0,0,0-1.721-.073,2.076,2.076,0,0,0-.775.435,1.659,1.659,0,0,0-.166.21,1.951,1.951,0,0,0-.3,2.2,2.226,2.226,0,0,0,2.026,1.134,2.319,2.319,0,0,0,1.779-1.008A2.213,2.213,0,0,0,180.785,205.356Zm-.573,1.093c-.009.027-.026.067-.036.093a1.241,1.241,0,0,1-.446.509,1.68,1.68,0,0,1-.842.379,2.025,2.025,0,0,1-1.723-.82,1.563,1.563,0,0,1,.582-1.909c.076-.041.149-.075.213-.1a1.8,1.8,0,0,1,.951-.15,1.358,1.358,0,0,1,.807.3l.1.1a.33.33,0,0,0,.143.124,1.629,1.629,0,0,1,.315.509A1.8,1.8,0,0,1,180.212,206.449Z" transform="translate(-153.7 -193.501)" fill="#2e2e54"/>
      <path id="Path_102" data-name="Path 102" d="M169.17,249.859a5.09,5.09,0,0,0-4.071-1.687,5.793,5.793,0,0,0-3.218.943,6.424,6.424,0,0,0-1.55,1.813,5.346,5.346,0,0,0-.013,5.11,5.013,5.013,0,0,0,2.687,2.115,7.6,7.6,0,0,0,2.436.473,3.9,3.9,0,0,0,1.881-.572,6.2,6.2,0,0,0,2.9-4.567A4.113,4.113,0,0,0,169.17,249.859Zm.024,4.683a5.645,5.645,0,0,1-2.7,3.063,3.5,3.5,0,0,1-2.25.119,5.258,5.258,0,0,1-2.778-1.435,4.642,4.642,0,0,1-.845-4.136,5.574,5.574,0,0,1,1.131-1.984,5.411,5.411,0,0,1,2.44-1.1,4.4,4.4,0,0,1,4.9,2.16A4.761,4.761,0,0,1,169.195,254.543Z" transform="translate(-140.703 -227.559)" fill="#2e2e54"/>
      <path id="Path_103" data-name="Path 103" d="M176.2,257.972a.67.67,0,0,0-.788-.462c-.621.014-1.242-.006-1.863-.031,0-.235,0-.47-.006-.705a5.106,5.106,0,0,0-.045-1.076.56.56,0,0,0-1.08.179c-.008.52-.023,1.039-.041,1.559l-.274-.008c-.361-.013-.722-.014-1.082-.007a1.316,1.316,0,0,0-.5.045.6.6,0,0,0,.193,1.167c.541-.011,1.082,0,1.623.012-.036,1.071-.064,2.142-.038,3.213.033.3-.038.647.187.882a.607.607,0,0,0,.947-.089c.176-.291.039-.65.057-.971-.007-.6.005-1.2.007-1.807,0-.4.016-.792.028-1.188.363.014.726.027,1.089.037.291,0,.582,0,.873-.008a.692.692,0,0,0,.338-.044A.6.6,0,0,0,176.2,257.972Z" transform="translate(-148.758 -233.082)" fill="#2e2e54"/>
      <path id="Path_104" data-name="Path 104" d="M129.315,311.644a2.656,2.656,0,0,0-1.376-1.887,2.75,2.75,0,0,0-.9-.325,2.555,2.555,0,0,0-.848-.085,3.9,3.9,0,0,0-1.127.279,2.683,2.683,0,0,0-.749.381,3.038,3.038,0,0,0-.868,1.17,6.261,6.261,0,0,0-.491,2.5,36.883,36.883,0,0,0-.1,4.5c.056.665.02,1.344.078,2a.292.292,0,0,0,.563-.093c0-.806-.042-1.61-.019-2.416.057-1.061.1-2.122.173-3.182.073-.68.048-1.368.156-2.044a.5.5,0,0,0,.014-.083l.012-.067a3.685,3.685,0,0,1,.158-.61,4.759,4.759,0,0,1,.276-.665l-.036.077c.41-.708.831-.851,1.817-1.035a2.436,2.436,0,0,1,1.192.185c.075.036.148.077.219.119a1.916,1.916,0,0,1,.467.352c.978,1.014.632,3.95.651,6.084,0,1.148.006,1.774-.008,2.854-.006-.039-.008-.134-.014-.053a1.071,1.071,0,0,1-.06.355c0,.01-.008.02-.012.031s-.026.046-.041.068c-.026.04-.055.078-.084.116a3.147,3.147,0,0,1-.817.082c-.524-.017-.47-.04-.942-.053s-.964.006-1.442-.048a3.661,3.661,0,0,0-1.176-.072.367.367,0,0,0,.013.733,2.679,2.679,0,0,0,.555.1c.1.013.255.066.676.111a19,19,0,0,0,2.485-.034,3.249,3.249,0,0,0,1.035-.266,1.331,1.331,0,0,0,.449-.774,21.088,21.088,0,0,0,.238-2.538A19.649,19.649,0,0,0,129.315,311.644Z" transform="translate(-112.339 -274.645)" fill="#2e2e54"/>
      <g id="Group_14" data-name="Group 14" transform="translate(30.784 34.999)">
        <path id="Path_105" data-name="Path 105" d="M234.756,356.179h0Z" transform="translate(-229.279 -345.701)" fill="#2e2e54"/>
        <path id="Path_106" data-name="Path 106" d="M217.379,317.251c-.039-1.95.2-3.422-.774-5.125a4.157,4.157,0,0,0-.57-.744,2.593,2.593,0,0,0-.973-.635,2.787,2.787,0,0,0-2.564.82c-1.024.955-1.4,2.792-1.487,4.337a37.729,37.729,0,0,0,.136,4.919c.027.189-.032.416.1.571a.3.3,0,0,0,.522-.2c-.148-2.853-.662-7.368,1-9.168a2.563,2.563,0,0,1,.752-.542,1.464,1.464,0,0,1,.836-.171,1.254,1.254,0,0,1,.855.309,3.568,3.568,0,0,1,1.115,2.044,37.71,37.71,0,0,1,.174,3.983c.034.7.032,1.4.031,2.1.013.142-.018.3,0,.441,0,0,0,0,0,0-.014.251-.026.5-.048.752-.006.068-.016.136-.026.2h0l-.044.019a.176.176,0,0,1,.042-.02l-.011,0a11.1,11.1,0,0,1-1.638.127c-.955.021-1.644-.011-2.4.066.17-.017.009-.017-.063.017a.346.346,0,0,0,.111.668c.591,0,.888.039,1.607.057a10.444,10.444,0,0,0,2.449-.18.765.765,0,0,0,.623-.589,10.755,10.755,0,0,0,.13-1.094h0c.04-.179.014-.385.044-.561C217.361,318.86,217.392,318.056,217.379,317.251Z" transform="translate(-210.978 -310.671)" fill="#2e2e54"/>
      </g>
      <path id="Path_107" data-name="Path 107" d="M169.217,316.877c.041-1.1.006-2.2.038-3.307q-.064-1.909-.171-3.818c-.036-.942-.116-1.872-.149-2.2-.008-.089-.012-.178-.022-.266a4.214,4.214,0,0,0-.367-1.5.447.447,0,0,0-.08-.113c-.021-.034-.041-.069-.065-.1a2.352,2.352,0,0,0-.6-.6.335.335,0,0,0-.217-.188l-.115-.031a.445.445,0,0,0-.154-.053.4.4,0,0,0-.056-.006,17.683,17.683,0,0,0-1.909-.549,9.854,9.854,0,0,0-3-.008,8.445,8.445,0,0,0-2.536.806c-1.438.793-1.51,3-1.592,4.456-.043,1.295-.088,2.589-.127,3.884.026,1.45.1,2.9.2,4.346.025.361,0,.723.011,1.084,0,.183-.017.423.187.5a.307.307,0,0,0,.39-.113c.081-.123.029-.275.038-.412-.009-.534-.005-1.069-.038-1.6-.043-1.184-.095-2.369-.059-3.553,0-1.373.085-2.746.134-4.118a7.2,7.2,0,0,1,.636-3.187c.277-.42.173-.3.585-.565a3.8,3.8,0,0,1,1.089-.407,11.218,11.218,0,0,1,2.164-.348,13.441,13.441,0,0,1,2.089.133c.115.028.381.093.456.116.3.09.6.158.9.224a.418.418,0,0,0,.127.118c.493.364.36.194.582.543l0,0a.3.3,0,0,0,.017.054.786.786,0,0,0,.056.162c.026.079.045.161.065.242a10.967,10.967,0,0,1,.116,1.835c.01.89.082,1.777.108,2.666.092,1.659.108,3.32.153,4.981,0,.584-.042,1.167-.027,1.75.008.491.059.77.053.9s.025.445,0,.21a.487.487,0,0,0,.9.277c.125-.238.059-.334.107-.815C169.154,317.838,169.211,317.359,169.217,316.877Z" transform="translate(-139.487 -270.564)" fill="#2e2e54"/>
      <path id="Path_108" data-name="Path 108" d="M131.643,319.012a.783.783,0,0,0-.306-.063c-.5-.026-.988-.069-1.481-.12a11.9,11.9,0,0,1,.028-1.491c.037-.431.072-.862.093-1.294-.011-.18.057-.425-.043-.577a.177.177,0,0,0-.3.114c-.01,1.073-.223,2.138-.19,3.213a12.173,12.173,0,0,0-1.276.038.257.257,0,0,0-.018.513,9.609,9.609,0,0,1,1.318-.012c.051,1.411-.12,2.818-.206,4.226-.011.236-.02.471-.028.707a.2.2,0,0,0,.055.146.206.206,0,0,0,.322-.03c.092-.462.036-.96.1-1.433.06-.807.15-1.613.169-2.423.017-.385.009-.771,0-1.156.163.02.327.044.49.075.312.042.627.056.94.091.131.009.281.038.383-.066A.293.293,0,0,0,131.643,319.012Z" transform="translate(-116.247 -279.322)" fill="#2e2e54"/>
      <path id="Path_109" data-name="Path 109" d="M219.224,319.434c-.134-.139-.344-.075-.516-.078-.36.023-.781.076-.919.088s-.275.022-.413.029c-.01-.666-.024-1.332-.022-2-.026-.687.066-1.384.043-2.064a.257.257,0,0,0-.494.082c-.106,1.33-.114,2.664-.1,4-.631.009-1.263-.009-1.886.028a.283.283,0,0,0,.09.545c.6.007,1.2.014,1.8,0q.007.5.014,1c.012,1.082-.091,2.176-.037,3.253a.237.237,0,0,0,.382.09c.093-.084.074-.208.076-.321.04-1.131.124-2.26.141-3.392,0-.214,0-.428,0-.641.069,0,.138,0,.207-.007.619-.043,1.075-.111,1.531-.167A.275.275,0,0,0,219.224,319.434Z" transform="translate(-183.089 -279.196)" fill="#2e2e54"/>
      <path id="Path_110" data-name="Path 110" d="M180.006,324.8c-.073-1.97.023-3.942.08-5.911.015-1.218-.052-2.437.017-3.655.07-1.235-.023-2.47.015-3.7a.3.3,0,0,0-.608-.021c-.04.906.028,1.814.012,2.72-.055,1.439-.073,2.876-.039,4.315-.045,2.084-.168,4.168-.085,6.252.031.178-.022.39.106.534a.307.307,0,0,0,.479-.045C180.074,325.137,180,324.958,180.006,324.8Z" transform="translate(-155.865 -276.093)" fill="#2e2e54"/>
    </g>
    <g id="Group_20" data-name="Group 20" transform="translate(97.941 129.729)">
      <path id="Path_111" data-name="Path 111" d="M236.959,149.227a.97.97,0,0,0-.367-1.035,1.758,1.758,0,0,0-1.431-.115,2.08,2.08,0,0,0-.214.079,6.243,6.243,0,0,1,.343-1.2,4.14,4.14,0,0,0,.243-.874,6.716,6.716,0,0,0-.374-1.18,17.13,17.13,0,0,0-.686-1.922,4.573,4.573,0,0,0-.792-1.2,5.893,5.893,0,0,0-2.72-1.511,8.291,8.291,0,0,0-1.692-.182,3.633,3.633,0,0,0-2.888.821,3.214,3.214,0,0,0-.8.843.282.282,0,0,0-.19.275c-.005.014-.019.06-.039.126l-.01,0a.428.428,0,0,0-.1.108h0l-.009.018a2.605,2.605,0,0,0-.16.333l-.038.075-.007.014,0,0c-.154.3-.315.6-.443.912-.011.02-.022.041-.032.061l.007,0-.016.041c-.035.072-.07.144-.105.215s-.083.158-.125.236a1.938,1.938,0,0,0-.585.549,3.96,3.96,0,0,0-.374.841,3.684,3.684,0,0,0-.123,2.056,5.422,5.422,0,0,0,1.231,2.066,5.554,5.554,0,0,0,.917.69,7.956,7.956,0,0,0,.876.554,20.356,20.356,0,0,0,2.692,1.1,2.945,2.945,0,0,0,1.51.151l.019,0a1.164,1.164,0,0,0,.669.02,4.762,4.762,0,0,0,1.82-.559.276.276,0,0,0,.278-.008h0l.015-.01c.11-.064.224-.12.336-.182.192-.133.483-.187.593-.406a.926.926,0,0,1,.349-.123,5.407,5.407,0,0,0,1.024-.08,2.961,2.961,0,0,0,.877-.432,1.316,1.316,0,0,0,.561-.625A.9.9,0,0,0,236.959,149.227Z" transform="translate(-222.818 -138.407)" fill="#f7dacd"/>
      <path id="Path_112" data-name="Path 112" d="M247.905,140.608a4.3,4.3,0,0,0,.442-2.985,5.943,5.943,0,0,0-.868-2.109,3.456,3.456,0,0,0-.738-.781,3.157,3.157,0,0,0-3.1-1.2.678.678,0,0,0-.344.107.306.306,0,0,0-.12.179,2.211,2.211,0,0,0-.722.323,4.131,4.131,0,0,0-.608.517,9.339,9.339,0,0,0-.641.873s-.009-.005-.014-.006a.277.277,0,0,0-.16,0q-.087-.122-.183-.237a.749.749,0,0,0-.168-.167,5,5,0,0,0-2.314-1.447,4.8,4.8,0,0,0-2.852-.228,5.1,5.1,0,0,0-.845.291c-.144.069-.283.148-.42.23a.288.288,0,0,0-.216-.026,4.7,4.7,0,0,0-.778.512c-.281.2-.565.4-.843.6a3.939,3.939,0,0,1-1.124.44,1.2,1.2,0,0,0-.4.168.367.367,0,0,0-.009.549,2.2,2.2,0,0,0,1.094.518,5.466,5.466,0,0,0,1.7-.038.6.6,0,0,0,.163.361c.671.886,2.287.638,3.186.12a1.63,1.63,0,0,0,1.232,1.889,2.48,2.48,0,0,0,1.863-.6c.122-.082.243-.167.363-.252-.006.041-.013.077-.015.1a2.423,2.423,0,0,0-.146,1.182,6.6,6.6,0,0,0,.415,1.029,7.422,7.422,0,0,0,.435.644l.075.107c-.018.149-.114.361-.2.694a.877.877,0,0,0,.054.767.7.7,0,0,0,.6.1c.255-.022.264-.034.394,0l0,0,0,0a.256.256,0,0,0,.032.024.346.346,0,0,0,.154.062.986.986,0,0,1,.635.49l0,.012a.3.3,0,0,0-.091.394,1.071,1.071,0,0,1,.152.749,1.547,1.547,0,0,1-.384.729c-.126.1-.3.153-.433.253h0a.39.39,0,0,0-.137.178v.006a2.648,2.648,0,0,1-.877.241,4.2,4.2,0,0,0-.962.062,1.349,1.349,0,0,0-.524.351c-.346.368-.008.7.329.9.039.025.079.05.119.073a.352.352,0,0,0,.351.254,1.512,1.512,0,0,0,.177.024.45.45,0,0,0,.2.118,1.4,1.4,0,0,0,.738-.045.776.776,0,0,0,.484-.365.321.321,0,0,0,.028-.164c.012-.014.023-.028.034-.043a1.1,1.1,0,0,0,.223.21,1.64,1.64,0,0,0,.588.217.483.483,0,0,0,.046.028.887.887,0,0,0,.787-.074.266.266,0,0,0,.076,0,.289.289,0,0,0,.311-.075c.055-.048.118-.092.172-.144a1.333,1.333,0,0,0,.715-.6,1.679,1.679,0,0,0,.15-.445,1.352,1.352,0,0,0,1.177-.635.85.85,0,0,0,.411-.83,4.162,4.162,0,0,0-.18-.759,1.666,1.666,0,0,0-.158-.4,1.62,1.62,0,0,0-.071-.151c-.046-.283-.076-.509-.111-.874A15.956,15.956,0,0,0,247.905,140.608Z" transform="translate(-228.697 -133.205)" fill="#553729"/>
      <path id="Path_113" data-name="Path 113" d="M277.874,137.619a1.186,1.186,0,0,0-.164-.059,2.779,2.779,0,0,0-.906-.045,2.409,2.409,0,0,0,.6-1.6.374.374,0,0,0-.571-.239,1.128,1.128,0,0,0-.521.6,7.007,7.007,0,0,0-.257.9,1.319,1.319,0,0,0-.042.278.4.4,0,0,0,.043.5.646.646,0,0,0,.3.138.288.288,0,0,0,.009.042c.045.175.229.234.388.258a2.038,2.038,0,0,0,1.155-.079.392.392,0,0,0,.2-.112C278.328,137.973,278.165,137.576,277.874,137.619Z" transform="translate(-263.473 -134.971)" fill="#b45280"/>
      <path id="Path_114" data-name="Path 114" d="M245.06,170.776c-.1-.207-.47-.258-.807-.276l-.1-.02a1.936,1.936,0,0,0-.793-.02.456.456,0,0,0-.146.045.8.8,0,0,0-.1.028l-.025,0a.588.588,0,0,0-.385.023.316.316,0,0,0-.139.37.547.547,0,0,0,.3.305,2.365,2.365,0,0,0,.605.205,2.221,2.221,0,0,0,.224.041.521.521,0,0,0,.287.021,1.691,1.691,0,0,0,.6-.108l.038-.009.022-.007c.081-.022.162-.047.242-.076A.315.315,0,0,0,245.06,170.776Z" transform="translate(-237.769 -161.766)" fill="#c25d6d"/>
      <g id="Group_19" data-name="Group 19">
        <g id="Group_16" data-name="Group 16">
          <path id="Path_115" data-name="Path 115" d="M232.3,145.115h0s0,0,0,0Z" transform="translate(-229.872 -142.283)" fill="#2e2e54"/>
          <path id="Path_116" data-name="Path 116" d="M232.271,145.136h0l0,0v0Z" transform="translate(-229.852 -142.299)" fill="#2e2e54"/>
          <path id="Path_117" data-name="Path 117" d="M232.3,145.1l0,0h0Z" transform="translate(-229.874 -142.275)" fill="#2e2e54"/>
          <path id="Path_118" data-name="Path 118" d="M239.684,133.893a4.04,4.04,0,0,0-1.782-.771,2.66,2.66,0,0,0-1.417.05,3.212,3.212,0,0,0-.8.376.376.376,0,0,0-.121-.093l.01,0a.444.444,0,0,0-.291-.061.872.872,0,0,0-.206.043h0l-.032.011-.006,0h0a1.5,1.5,0,0,0-.94,1.21,1.291,1.291,0,0,0-.009.278,3.227,3.227,0,0,0-.751-.793,4.225,4.225,0,0,0-.882-.582,7.566,7.566,0,0,0-2.846-.743c-.191,0-.382,0-.572,0a1.811,1.811,0,0,0-.581.058,4.954,4.954,0,0,0-.863.275c-.108.03-.207.064-.367.124a.979.979,0,0,0-.158.08,6.126,6.126,0,0,0-1.039.612c-.383.277-.727.6-1.108.882a5.311,5.311,0,0,1-.86.484c-.356.239-.132.546.175.775a9.42,9.42,0,0,1-.586,1.17c-.263.569-.421.937-.585,1.011a2.109,2.109,0,0,0-.523.478,3.1,3.1,0,0,0-.54.921,4.119,4.119,0,0,0-.2,1.072,4.263,4.263,0,0,0,.008.954,5.944,5.944,0,0,0,.719,1.846,4.248,4.248,0,0,0,1.055,1.167,10.6,10.6,0,0,0,1.5,1.049,9.893,9.893,0,0,0,3.111,1.145,8.348,8.348,0,0,0,3.944-.334,4.067,4.067,0,0,0,.367-.186.115.115,0,0,0-.031.072c.007.129.119.194.22.347a1.983,1.983,0,0,0,2.182.679.9.9,0,0,0,.393-.366c.754.775,2.258.34,2.842-.461a1.377,1.377,0,0,0,.283-.593,2.851,2.851,0,0,0,1.631-1.182,1.44,1.44,0,0,0,0-1.325c-.309-.532-.651-.784-.589-1.056a1.421,1.421,0,0,1,.348-.552c.2-.211.512-.53.793-.846a4.624,4.624,0,0,0,1.177-3.111A5.464,5.464,0,0,0,239.684,133.893Zm-4.281.627a2.3,2.3,0,0,1-.376.55,3.109,3.109,0,0,1-.391.346l-.06.033a5.442,5.442,0,0,1,.34-.868,2.449,2.449,0,0,1,.571-.671c.012-.011.026-.02.038-.03A1.083,1.083,0,0,1,235.4,134.52Zm.635,1.01c.238.05.249.051.309.174,0,.009,0,.019.005.03v.01c0,.011,0,.022,0,.034a.48.48,0,0,1-.03.075.5.5,0,0,1-.385.188,4.174,4.174,0,0,1-1.071-.241c.039-.015.089-.035.16-.059A3.249,3.249,0,0,1,236.038,135.53Zm-1.476-1.008a1.737,1.737,0,0,1,.418-.624.571.571,0,0,1,.234-.166.511.511,0,0,1,.184-.03.1.1,0,0,1,.049.019,2.866,2.866,0,0,0-.557.585,3.149,3.149,0,0,0-.388.836A1.077,1.077,0,0,1,234.562,134.522Zm-9.63.725c.46-.294.842-.69,1.28-1.014a5.5,5.5,0,0,1,2.537-1.071,6.5,6.5,0,0,1,3.068.48,5.3,5.3,0,0,1,1.847,1.107,3.289,3.289,0,0,1,.259.32.106.106,0,0,0,.026.079l.085.094c.035.061.066.124.1.189a.09.09,0,0,0,0,.016c0,.021.011.041.017.061-.035.077.037.174.076.242a.106.106,0,0,0,.024.027l.03.051c0,.008,0,.014.007.023a.632.632,0,0,0,.1.147l.019.02a2.326,2.326,0,0,0,.339.26c.023.016.046.036.07.055.225.263.486.493.69.772a5.194,5.194,0,0,1,.543,1.135,2.47,2.47,0,0,1,.085.777,6.232,6.232,0,0,1-.24,1.367,10.022,10.022,0,0,1-.505,1.417c-.056.143-.133.287-.2.433a1.774,1.774,0,0,0-.919.068,8.846,8.846,0,0,1,.286-1.03c.023.009.046.018.068.025a.17.17,0,0,0,.189-.268,3.759,3.759,0,0,1-.47-.351,3.31,3.31,0,0,1-.826-1.33,4.058,4.058,0,0,1-.086-.7c0-.019,0-.037,0-.056a2.56,2.56,0,0,1,.141-.746.253.253,0,0,0,.011-.115.193.193,0,0,0-.271-.158c-.021,0-.059.044-.081.072l0,0-.008.01-.117.084a4.638,4.638,0,0,1-.917.568,1.231,1.231,0,0,1-1.876-1.02c0-.054.013-.19.019-.227.026-.22.053-.221.086-.437a.162.162,0,0,0-.225-.144h-.023c-.07.016-.118.078-.18.114a5.776,5.776,0,0,1-.771.43,1.869,1.869,0,0,1-.572.1c-.663.027-1.323-.176-1.481-.565.081-.018.162-.038.243-.062.5-.151,1.264-.506,1.334-1.083a.438.438,0,0,0-.48-.474,1.366,1.366,0,0,0-.8.33,1.694,1.694,0,0,0-.614,1.038,4.005,4.005,0,0,1-1.146,0,4.186,4.186,0,0,1-.942-.251,1.363,1.363,0,0,1-.513-.362.171.171,0,0,1-.034-.057A5.717,5.717,0,0,0,224.932,135.247Zm2.213,1.005a.723.723,0,0,1,.047-.137,1.653,1.653,0,0,1,.629-.743c.2-.121.552-.238.632-.072.021.067-.005.288-.323.518A2.729,2.729,0,0,1,227.145,136.252Zm4.666,9.837a8.433,8.433,0,0,1-1.12.254,6.2,6.2,0,0,1-1.493.087,6.91,6.91,0,0,1-1.384-.174,12.723,12.723,0,0,1-2.279-.785c-.309-.16-.825-.468-1.27-.751a5.932,5.932,0,0,1-1.2-1.062,5.846,5.846,0,0,1-.76-1.451,2.45,2.45,0,0,1-.14-.63c-.006-.035-.011-.145-.011-.128a4.328,4.328,0,0,1,.112-1.043c-.018.1,0,.01.008-.037a3.532,3.532,0,0,1,.276-.841l0-.007c.014-.023.131-.224.165-.266a3.26,3.26,0,0,1,.332-.415c.131-.14.405-.295.4-.335.284-.465.435-.99.637-1.371a6.826,6.826,0,0,0,.352-.789.449.449,0,0,1,.025-.076,2.133,2.133,0,0,0,.283.138,4.223,4.223,0,0,0,2.117.208.82.82,0,0,0,.224.357,2.487,2.487,0,0,0,2.85,0l.063-.038a1.639,1.639,0,0,0-.022.587,1.525,1.525,0,0,0,.807,1.127,2.08,2.08,0,0,0,2.1-.325l.179-.129c0,.025-.01.05-.014.076a2.949,2.949,0,0,0,.021.73,1.828,1.828,0,0,0,.1.508,3.672,3.672,0,0,0,1.107,1.608c-.075.17-.13.352-.193.525a4.848,4.848,0,0,0-.152.617.97.97,0,0,0-.03.3.155.155,0,0,0,.187.109.163.163,0,0,0,.065,0,1.434,1.434,0,0,1,.958-.049.124.124,0,0,0,.065.03h.006a1.289,1.289,0,0,1,.51.46,1.185,1.185,0,0,1-.03,1.247,1.782,1.782,0,0,1-1.574.789,1.172,1.172,0,0,1-.426-.014c-.178-.049-.153-.068-.271-.065a.271.271,0,0,0-.26.189.22.22,0,0,0-.061.02c-.123.086-.382.323-.656.5l-.151.092A3.2,3.2,0,0,1,231.811,146.09Zm5.929-1.164.009,0c.048,0,.027-.026.171.086a.905.905,0,0,1,.127.331,1.652,1.652,0,0,1,.025.45.469.469,0,0,1-.565-.358A.4.4,0,0,1,237.74,144.926Zm3.612-6.459c-.258,2.452-2.372,3.129-2.257,4.178a1.7,1.7,0,0,0,.423.743,1.878,1.878,0,0,1,.252.418,1.053,1.053,0,0,1,.077.354c.007.7-.466,1.061-1.1,1.4a2.337,2.337,0,0,1-.319.145,1.174,1.174,0,0,0-.368-.975c-.382-.3-.837.111-.881.513a.807.807,0,0,0,.821.9,1.787,1.787,0,0,1-1.513,1.035,1.083,1.083,0,0,1-1.077-.4.152.152,0,0,1-.015-.028.192.192,0,0,1-.007-.036v0a.162.162,0,0,0-.324.023.6.6,0,0,1-.269.443,1.393,1.393,0,0,1-1.2-.034,2.734,2.734,0,0,1-.884-.737.122.122,0,0,0-.138-.053,2.471,2.471,0,0,0,.817-.7,2.457,2.457,0,0,0,.313.068,2.766,2.766,0,0,0,2.222-.786,2.076,2.076,0,0,0,.407-1.063,1.652,1.652,0,0,0-.874-1.542c.015-.026.032-.052.046-.079a7.714,7.714,0,0,0,1.046-3.523,3.112,3.112,0,0,0-.389-1.323,3.393,3.393,0,0,0-.662-.918c.085.076-.062-.057-.1-.086l-.028-.024.117.026a1.72,1.72,0,0,0,.609.017c.674-.126.946-.927.254-1.248a1.663,1.663,0,0,0-.934-.044,2.439,2.439,0,0,0,.311-.573,1.288,1.288,0,0,0,.04-.874,2.7,2.7,0,0,1,1.383-.441,4.227,4.227,0,0,1,1.594.358,4.623,4.623,0,0,1,2.216,2.494A5.182,5.182,0,0,1,241.352,138.467Z" transform="translate(-221.778 -132.816)" fill="#2e2e54"/>
        </g>
        <path id="Path_119" data-name="Path 119" d="M274.869,177.376c-.232.133-.46.271-.691.4-.044-.193-.08-.388-.14-.575a.124.124,0,0,0-.225.087c.046.2.089.411.139.614a6.608,6.608,0,0,0-.7.4.084.084,0,0,0,.026.16c.084-.005.168-.1.278-.164s.27-.158.436-.252c.017.061.033.122.052.182.054.151.066.318.123.466a.127.127,0,0,0,.162.047.153.153,0,0,0,.056-.2c-.029-.142-.069-.28-.111-.419-.023-.066-.042-.134-.059-.2.122-.072.242-.144.345-.211a3.063,3.063,0,0,0,.4-.257A.063.063,0,0,0,274.869,177.376Z" transform="translate(-261.362 -166.941)" fill="#2e2e54"/>
        <path id="Path_120" data-name="Path 120" d="M243.367,165.421a1.534,1.534,0,0,0-1.012.066c-.146.023-.273.052-.338.055h-.08a.238.238,0,0,1-.035-.01.325.325,0,0,0-.071-.023c-.036-.009-.072-.018-.107-.029s-.107-.034-.115-.035l-.149-.056a.911.911,0,0,0-.433-.125.7.7,0,0,0-.575.369,1.023,1.023,0,0,0-.1.811,1.673,1.673,0,0,0,.372.572.134.134,0,0,0,.08.076,1.716,1.716,0,0,0,.637.364,2.411,2.411,0,0,0,1.334.129,1.586,1.586,0,0,0,1.125-1A.847.847,0,0,0,243.367,165.421Zm-.551,1.866a2.441,2.441,0,0,1-1.544-.128A1.445,1.445,0,0,1,241,167a1.665,1.665,0,0,1,1.052-.429,1.637,1.637,0,0,1,.777.086,1.232,1.232,0,0,1,.321.215,1.053,1.053,0,0,0,.134.128A1.375,1.375,0,0,1,242.816,167.287Z" transform="translate(-236.04 -157.791)" fill="#2e2e54"/>
        <path id="Path_121" data-name="Path 121" d="M238.623,156.724c-.018-.023-.04-.042-.056-.067h0c-.059-.083-.084-.206-.178-.256-.161-.044-.157.158-.142.264a.967.967,0,0,0,.066.188.459.459,0,0,0-.089.117.4.4,0,0,0-.086.309.493.493,0,0,0,.869.3.572.572,0,0,0,.13-.466A.489.489,0,0,0,238.623,156.724Z" transform="translate(-234.368 -150.965)" fill="#2e2e54"/>
        <g id="Group_18" data-name="Group 18" transform="translate(8.295 7.221)">
          <path id="Path_122" data-name="Path 122" d="M261.868,166.92h0v0Z" transform="translate(-260.932 -166.287)" fill="#2e2e54"/>
          <g id="Group_17" data-name="Group 17">
            <path id="Path_123" data-name="Path 123" d="M261.611,164.836l0,0,.007,0Z" transform="translate(-260.735 -164.678)" fill="#2e2e54"/>
            <path id="Path_124" data-name="Path 124" d="M259.028,164.275a.124.124,0,0,0-.233-.029,1.385,1.385,0,0,1-.109.087.387.387,0,0,1-.079.04c-.014-.013-.028-.025-.044-.038a.46.46,0,0,0-.111-.058.448.448,0,0,0-.6.23.483.483,0,0,0-.04.247.293.293,0,0,0,.005.035h0a.473.473,0,0,0,.852.215.454.454,0,0,0,.076-.193s0-.008,0-.012a.542.542,0,0,0,.014-.1A.431.431,0,0,0,259.028,164.275Z" transform="translate(-257.805 -164.178)" fill="#2e2e54"/>
            <path id="Path_125" data-name="Path 125" d="M261.586,164.862h0Z" transform="translate(-260.71 -164.705)" fill="#2e2e54"/>
          </g>
          <path id="Path_126" data-name="Path 126" d="M261.815,166.926l-.016.068A.268.268,0,0,0,261.815,166.926Z" transform="translate(-260.879 -166.293)" fill="#2e2e54"/>
        </g>
        <path id="Path_127" data-name="Path 127" d="M227.841,164.832a.922.922,0,0,0-.51-.634,1,1,0,0,0-.346-.137,1.28,1.28,0,0,0-.966.355.827.827,0,0,0-.227.382,1.316,1.316,0,0,0-.082.806,1.152,1.152,0,0,0,.949.812,1.118,1.118,0,0,0,1.082-.625,1.214,1.214,0,0,0,.163-.743A1.259,1.259,0,0,0,227.841,164.832Z" transform="translate(-224.782 -156.861)" fill="#e9a8b3" opacity="0.6" style="mix-blend-mode: multiply;isolation: isolate"/>
        <path id="Path_128" data-name="Path 128" d="M258.876,173.532a1.038,1.038,0,0,0-1.213.247,1.058,1.058,0,0,0-.174.175,1.073,1.073,0,0,0-.208.477,1.132,1.132,0,0,0,.208.985,1.212,1.212,0,0,0,1.229.38l.041-.015a.818.818,0,0,0,.32-.095A1.209,1.209,0,0,0,258.876,173.532Z" transform="translate(-249.081 -164.082)" fill="#e9a8b3" opacity="0.6" style="mix-blend-mode: multiply;isolation: isolate"/>
      </g>
      <path id="Path_129" data-name="Path 129" d="M248.261,160.882a.423.423,0,0,0-.1-.009.328.328,0,0,0-.233.071.252.252,0,0,0,.143.415.293.293,0,0,0,.334-.075A.24.24,0,0,0,248.261,160.882Z" transform="translate(-241.855 -154.412)" fill="#e9a8b3" opacity="0.6" style="mix-blend-mode: multiply;isolation: isolate"/>
    </g>
    <path id="Path_130" data-name="Path 130" d="M108.475,135.38a6.54,6.54,0,0,0-2.824-.012c-.21.023-.42.035-.63.045-.133-.3-.2-.608-.417-1.153a6.361,6.361,0,0,0-1.707-2.6,4.583,4.583,0,0,0-1.659-.961,7.536,7.536,0,0,0-2.511-.46,10.915,10.915,0,0,0-6.761,2.249,8.29,8.29,0,0,0-2.9,3.376,5.63,5.63,0,0,0-.391,1.886,8.165,8.165,0,0,0,.3,2.384,3.37,3.37,0,0,0,1.525,2.363.718.718,0,0,0,1.08-.427,2.091,2.091,0,0,0,.025-.791,5.262,5.262,0,0,0-.165-.9c-.131-.49-.317-.962-.471-1.445-.043-.411-.084-.822-.137-1.232a1.471,1.471,0,0,1,.045-.177,4.506,4.506,0,0,1,.339-.855,7.162,7.162,0,0,1,1.862-2.326,10.685,10.685,0,0,1,1.846-1.393,11.418,11.418,0,0,1,1.226-.592.529.529,0,0,0,.121.268.609.609,0,0,0,.679.2l.054-.009c.218-.024.438-.038.657-.047.662-.01,1.324.016,1.986.04a1.417,1.417,0,0,0,.18.481,2.924,2.924,0,0,0,1.529,1.239,1.782,1.782,0,0,0,.978.074l0,0a1.425,1.425,0,0,1,.242.336,4.037,4.037,0,0,1,.5,1.019c.1.311.178.627.252.945l-.119.027a1.957,1.957,0,0,0-.213.052l-.019,0v0a.589.589,0,0,0-.363.274.6.6,0,0,0,.666.874h0c.31-.054.615-.129.918-.213l.634-.136a17.926,17.926,0,0,0,3.819-1.044A.717.717,0,0,0,108.475,135.38Zm-6.448-1.924-.039,0-.061-.006a1.838,1.838,0,0,1-.27-.078,2.791,2.791,0,0,1-.415-.247l-.006,0a2.087,2.087,0,0,1-.165-.151c-.036-.052-.069-.065-.123-.139.026,0,.052,0,.079-.009a.61.61,0,0,0,.453-.576.675.675,0,0,0-.021-.162,3.982,3.982,0,0,1,1.245,1.092c.091.13.177.263.258.4a.954.954,0,0,0-.934-.12Z" transform="translate(-21.378 -1.1)" fill="#e48a80"/>
    <g id="Group_25" data-name="Group 25" transform="translate(68.593 128.805)">
      <g id="Group_21" data-name="Group 21" transform="translate(0.326 5.03)">
        <path id="Path_131" data-name="Path 131" d="M110.318,155.319a1.759,1.759,0,0,0-.443-.64c-.2-.407-.668-.756-1.04-.431a.6.6,0,0,0-.507.32.589.589,0,0,0-.249.151.3.3,0,0,0-.075-.011.281.281,0,0,0-.179.06c-.185-.516-.374-1.031-.563-1.545a.357.357,0,0,0-.075-.153c-.037-.156-.073-.312-.112-.467-.022-.2-.18-.426-.407-.362a.3.3,0,0,0-.212.234c-.018-.082-.035-.164-.053-.246a1.036,1.036,0,0,0-.029-.131l0-.015v0a.28.28,0,0,0-.172-.2.3.3,0,0,0-.407.323.276.276,0,0,0-.124.011,3.659,3.659,0,0,0-.493-1.307.379.379,0,0,0-.442-.1.5.5,0,0,0-.043-.058.316.316,0,0,0-.455-.008,1.014,1.014,0,0,0-.231.584.571.571,0,0,0-.034.086c-.018.047-.032.095-.047.143a.326.326,0,0,0-.509.245,5.143,5.143,0,0,0-.114.738.391.391,0,0,0-.157.253.25.25,0,0,0-.065-.1.318.318,0,0,0-.517.313v.007l0-.017a.577.577,0,0,0-.112-.354.36.36,0,0,0-.091-.2.33.33,0,0,0-.525.144,2.536,2.536,0,0,1-.759.553c-.095-.179-.347.074-.5.23a1.483,1.483,0,0,0-.3.707.261.261,0,0,0-.074.055c-.009.008-.015.018-.023.027v-.006c-.044-.146.039-.521-.35-.576-.28,0-.382.356-.426.726a.321.321,0,0,0-.435.018.388.388,0,0,0-.071.109.3.3,0,0,0-.41-.226c-.01,0-.017.009-.025.014a2.509,2.509,0,0,0-.323-.011.4.4,0,0,0-.265.056.3.3,0,0,0-.544.007c-.006.024-.01.048-.015.073a.3.3,0,0,0-.272.216.565.565,0,0,0,.019.266l.093.518a.808.808,0,0,0-.062.6,5.878,5.878,0,0,0,.15.689c.045.148.069.333.214.419l.032.015c.007.038.014.076.021.113v0l-.033,0c-.179-.313-.408-.675-.77-.611a.358.358,0,0,0-.25.176.445.445,0,0,0-.542.22l-.012.01a.788.788,0,0,0-.143.453c-.019.193-.024.387-.024.58a5.543,5.543,0,0,0,.062.8c0,.058.044.484.364.485a.414.414,0,0,0,.127-.034.338.338,0,0,0,.288.032.409.409,0,0,0,.354.19.461.461,0,0,0,.14-.054.543.543,0,0,0,.174.206.36.36,0,0,0,.478-.111,5.425,5.425,0,0,0,.463.6,8.065,8.065,0,0,0,.755.7c.049.052.1.1.141.137a.3.3,0,0,0,.381.053,2.709,2.709,0,0,0,.782.32,14.157,14.157,0,0,0,3.033.228,2.126,2.126,0,0,0,.953-.163.325.325,0,0,0,.086-.085,6,6,0,0,0,1.821-.5c.232-.092.445-.27.415-.5a.8.8,0,0,0,.4-.195.26.26,0,0,0,.072-.01.847.847,0,0,0,.346-.308c.033-.019.066-.038.1-.054a2.593,2.593,0,0,0,1.059-.9,1.686,1.686,0,0,0,.208-.854.82.82,0,0,0-.034-.3c0-.013,0-.026,0-.038a.341.341,0,0,0,.125-.175.5.5,0,0,0,.013-.054.344.344,0,0,0,.427-.107.477.477,0,0,0,.054-.087.643.643,0,0,0,.282,0C110.255,157.062,110.52,155.875,110.318,155.319Zm-10.992,3.289,0,.018c-.086-.274-.162-.558-.229-.844,0-.03-.01-.06-.014-.089.015.063.028.125.044.188Q99.219,158.246,99.326,158.608Zm.861.7c-.111-.284-.209-.578-.3-.9q-.026-.141-.049-.283c-.006-.035-.011-.07-.017-.106q.121.4.265.782l.016.04C100.128,159.009,100.157,159.164,100.187,159.311Zm2.47.161.026.059.054.315c.017.113.033.21.049.3l-.014-.026A6.365,6.365,0,0,0,102.656,159.472ZM100.8,154.9q.04.236.075.474c0,.1,0,.191.008.287C100.854,155.395,100.83,155.133,100.8,154.9Zm.3,2.351c.014.063.029.126.044.189q.037.266.078.532l-.014-.04C101.174,157.7,101.138,157.465,101.1,157.246Zm5.255.18c-.172-.288-.341-.586-.5-.883-.037-.177-.072-.354-.1-.532l-.026-.147a.349.349,0,0,0,.23.092q.123.453.25.9C106.256,157.037,106.31,157.234,106.359,157.426Zm-.816-3.139c.009.04.019.08.028.121-.061-.15-.117-.3-.167-.459-.069-.413-.14-.825-.216-1.237C105.315,153.235,105.423,153.763,105.543,154.287Z" transform="translate(-95.733 -150.652)" fill="#f7dacd"/>
        <path id="Path_132" data-name="Path 132" d="M154.471,172.207l-.01-.012.01.012Z" transform="translate(-140.939 -167.235)" fill="#ecd8c9"/>
      </g>
      <g id="Group_22" data-name="Group 22" transform="translate(0.144 1.824)">
        <path id="Path_133" data-name="Path 133" d="M146.47,143.2l.009.022C146.476,143.212,146.472,143.205,146.47,143.2Z" transform="translate(-134.606 -141.708)" fill="#6c5257"/>
        <path id="Path_134" data-name="Path 134" d="M108.316,139.521a.3.3,0,0,0,.024-.1.275.275,0,0,0,.04-.142c-.012-.2-.176-.343-.271-.505a1.675,1.675,0,0,0-.534-.547.291.291,0,0,0-.142-.28.753.753,0,0,0-.145-.076,2.034,2.034,0,0,0-.9-.706,2.308,2.308,0,0,0-1-.086,2.56,2.56,0,0,0-.663.093,1.632,1.632,0,0,0-.338.178.534.534,0,0,0-.117-.115.281.281,0,0,0-.055-.065.273.273,0,0,0-.163-.172.529.529,0,0,0-.233-.017,3.572,3.572,0,0,0-2.459-.061c-.221.045-.439.1-.654.166a.345.345,0,0,0-.275-.133,2.162,2.162,0,0,0-.907.306q-.521.269-1.017.584c-.2.13-.394.265-.586.405a3.326,3.326,0,0,0-.4.31l-.024.02-.075.06-.019.017a6.881,6.881,0,0,0-1.464,1.627,5.648,5.648,0,0,0-.855,1.636,4.016,4.016,0,0,0-.137.925c.007.078.016.179.03.29a2.522,2.522,0,0,0,.111.586c.092.2.168.5.378.6l.03.008.069.31q.068.275.141.548a.544.544,0,0,0,.112.254.247.247,0,0,0,.041.032.534.534,0,0,0,.152.336.286.286,0,0,0,.46-.229c0-.007,0-.014,0-.021a.379.379,0,0,0-.025-.194c-.005-.149-.067-.321-.082-.454a.3.3,0,0,0-.055-.162c-.016-.073-.031-.146-.044-.22-.026-.117-.048-.236-.072-.354l.047-.011a1.884,1.884,0,0,0,.286-.108,2.306,2.306,0,0,0,.433-.139,1.672,1.672,0,0,0,.511-.4.689.689,0,0,0,.083.065.654.654,0,0,0,.6-.062.427.427,0,0,0,.249.1.968.968,0,0,0,.815-.36.674.674,0,0,0,.286-.131,2.359,2.359,0,0,0,.37-.347.361.361,0,0,0,.1-.058.273.273,0,0,0,.216-.031,1.583,1.583,0,0,0,.48-.549l.17-.262a.425.425,0,0,0,.066.043,1.146,1.146,0,0,0,.79.1,2.7,2.7,0,0,0,1.772-1.514c.116-.246.219-.5.323-.749q.108.149.223.293l.013.026c-.132.082.57,1.011.962,1.223.082.043.165.083.247.122.087.056.175.111.266.16a.374.374,0,0,0,.234.083.483.483,0,0,0,.208.086.338.338,0,0,0,.123.035c.147.061.29.12.427.179a.279.279,0,0,0-.008.066c.016.213.22.394.306.589.089.129.154.353.262.5.017.04.026.063.089.227h0a.271.271,0,0,0,.017.049.287.287,0,0,0,.011.048.311.311,0,0,0,.058.183.268.268,0,0,0,.109.11c.242.141.424-.1.563-.269.049-.047.083-.081.11-.108.06-.018.119-.042.177-.063a.783.783,0,0,0,.22-.116,1.475,1.475,0,0,1,.214-.036.471.471,0,0,1,.063-.005.285.285,0,0,0,.2-.011.246.246,0,0,0,.076-.03.3.3,0,0,0,.147-.253c0-.009,0-.018,0-.028a.884.884,0,0,0,0-.439c-.116-.611-.174-1.235-.344-1.834A5.071,5.071,0,0,0,108.316,139.521Z" transform="translate(-94.942 -136.726)" fill="#735749"/>
      </g>
      <path id="Path_135" data-name="Path 135" d="M131.751,130.715a.173.173,0,0,0-.131-.148l-.08-.021c-.158-.184-.418-.251-.573-.018a.379.379,0,0,0,.274.547c.023.033.047.065.071.095a.283.283,0,0,0,.162.082c.024.02.048.04.073.058a.233.233,0,0,0,.236.064l.013,0,.008,0a.136.136,0,0,0,.034-.021.249.249,0,0,0,.053-.327A.314.314,0,0,0,131.751,130.715Z" transform="translate(-122.494 -130.017)" fill="#6c5257"/>
      <path id="Path_136" data-name="Path 136" d="M137.565,130.026c0-.008-.006-.016-.009-.024v0a.274.274,0,0,0-.313-.135l-.011,0-.008,0a.323.323,0,0,0-.177.059,1.026,1.026,0,0,0-.229.227.709.709,0,0,0-.155.271.439.439,0,0,0-.121.268.291.291,0,0,0,.449.251.86.86,0,0,0,.211-.193,1.145,1.145,0,0,0,.383-.517.372.372,0,0,0,.008-.071A.273.273,0,0,0,137.565,130.026Z" transform="translate(-126.82 -129.618)" fill="#6c5257"/>
      <path id="Path_137" data-name="Path 137" d="M123.03,168.712H123a.366.366,0,0,0-.307.155.158.158,0,0,0,0,.16.226.226,0,0,0,.213.134.343.343,0,0,0,.178-.035.267.267,0,0,0,.113-.068A.205.205,0,0,0,123.03,168.712Z" transform="translate(-116.141 -159.523)" fill="#ebafa9"/>
      <g id="Group_24" data-name="Group 24" transform="translate(0)">
        <path id="Path_138" data-name="Path 138" d="M109.259,143.386a1.548,1.548,0,0,0-.51-.463c0-.091,0-.182,0-.273-.029-.406-.023-.816-.075-1.22a17.724,17.724,0,0,0-.408-1.846,4.013,4.013,0,0,0-3.078-3.02,1.843,1.843,0,0,0-1.106.313.122.122,0,0,0,.148.187,1.953,1.953,0,0,1,2.153.272,4.47,4.47,0,0,1,1.364,1.641,22.821,22.821,0,0,1,.656,2.669,9.851,9.851,0,0,1,.1,1.172,1.144,1.144,0,0,0-.216-.046,1.3,1.3,0,0,0-.884.171,1.006,1.006,0,0,0-.414.449c-.141-.258-.246-.536-.366-.8-.085-.183-.175-.38-.239-.54.033,0,.066.009.1.012a3.611,3.611,0,0,0,.4.02c.061-.006.132.008.183-.032a.145.145,0,0,0,.062-.152c-.079-.19-.18-.093-.323-.115a3.8,3.8,0,0,1-.578-.057l-.05-.009-.014,0a4.076,4.076,0,0,1-1.9-1.07,4.717,4.717,0,0,1-.676-.994,2.444,2.444,0,0,1-.2-.439,2.085,2.085,0,0,0-.084-.315.149.149,0,0,0-.268.114c.007.04.017.079.026.118a.393.393,0,0,0-.031.087c-.032.109-.06.219-.088.329a4.3,4.3,0,0,1-.231.722,3.488,3.488,0,0,1-1.066,1.26,1.071,1.071,0,0,1-1.069.116,6.211,6.211,0,0,0,.368-.824,2.663,2.663,0,0,0,.2-1.329.836.836,0,0,0-.21-.39.8.8,0,0,0-.549-.2.988.988,0,0,0-.671.521,1.793,1.793,0,0,0-.156,1.316,1.829,1.829,0,0,0,.324.788.933.933,0,0,0,.213.192,3.072,3.072,0,0,1-.393.471,5.235,5.235,0,0,1-.818.693,1.664,1.664,0,0,1-.767.314,1.413,1.413,0,0,1-.836-.051,3.132,3.132,0,0,0,.232-.263,2.712,2.712,0,0,0,.4-.9c.093-.461.315-1.253-.271-1.462-.637-.146-1.1.547-1.275,1.075a1.53,1.53,0,0,0,.4,1.647,3.015,3.015,0,0,1-.82.557,1.036,1.036,0,0,1-.933-.2,1.661,1.661,0,0,1-.408-1.427,5.8,5.8,0,0,1,2.44-3.867,7.275,7.275,0,0,1,2.023-1.146,10.57,10.57,0,0,1,3.071-.585,3.874,3.874,0,0,1,1.035.167c.156.048.31.1.465.152a.117.117,0,1,0,.072-.222,5.249,5.249,0,0,0-1.433-.295,9.7,9.7,0,0,0-1.7.131,7.418,7.418,0,0,0-3.413,1.41,6.965,6.965,0,0,0-2.122,2.213,4.978,4.978,0,0,0-.695,1.924,1.968,1.968,0,0,0,.174,1.3,1.354,1.354,0,0,0,.293.414.116.116,0,0,0,0,.041,9.192,9.192,0,0,0,.461,1.67l0,.008a1.3,1.3,0,0,0-.668.541,1.994,1.994,0,0,0-.1,1.848,1.511,1.511,0,0,0,1.411.892,1,1,0,0,0,.7-.157l0-.006a4.439,4.439,0,0,0,.294.5,3.66,3.66,0,0,0,1.9,1.389,7.74,7.74,0,0,0,1.706.287,7.86,7.86,0,0,0,3.53-.356,10.342,10.342,0,0,0,2.745-1.442,3.576,3.576,0,0,0,1.07-1.53,3.435,3.435,0,0,0,.135-.5.8.8,0,0,0,.013-.172c.038-.015.075-.031.112-.042a2.391,2.391,0,0,0,1.312-1.41A2.3,2.3,0,0,0,109.259,143.386Zm-9.407-3.291a1.034,1.034,0,0,1,.533-.84c.288,0,.4.206.421.437a3.3,3.3,0,0,1-.226,1.009,4.586,4.586,0,0,1-.321.738.648.648,0,0,1-.13-.121A2.015,2.015,0,0,1,99.852,140.094Zm-3.133,1.559a1.452,1.452,0,0,1,.537-.783c.239-.124.388-.113.458.057a2.641,2.641,0,0,1-.314,1.587,1.732,1.732,0,0,1-.368.473c-.041-.033-.083-.069-.125-.109A1.342,1.342,0,0,1,96.719,141.653Zm-.507,4.871a4.747,4.747,0,0,0,.061.945c-.115-.126-.239-.244-.36-.364-.059-.068-.124-.137-.193-.205.045-.082.092-.163.136-.246.06-.09.116-.181.177-.271a.114.114,0,0,0-.156-.156,3.076,3.076,0,0,0-.253.341c-.029.052-.059.1-.089.155-.145-.133-.288-.254-.4-.34a.106.106,0,0,0-.157.143c.15.128.291.252.433.391a5.248,5.248,0,0,0-.387.694.132.132,0,0,0,.243.085c.111-.195.223-.389.333-.584.049.052.1.106.147.165a7.427,7.427,0,0,1,.53.551.132.132,0,0,0,.082.048,4.027,4.027,0,0,0,.157.457h0a.187.187,0,0,0-.109.031.593.593,0,0,1-.19.059,1.473,1.473,0,0,1-1.1-.246,1.622,1.622,0,0,1,0-2.294.737.737,0,0,1,.364-.176h.006l.012,0a.783.783,0,0,1,.553.1h0C96.11,146.071,96.166,146.319,96.212,146.524Zm-.64-1.1c-.01-.023-.021-.046-.03-.069a3.608,3.608,0,0,1-.2-.524c-.081-.282-.131-.575-.2-.859a1.017,1.017,0,0,0,.173.063,1.42,1.42,0,0,0,.386.057c.078.429.183.927.285,1.394A1.027,1.027,0,0,0,95.572,145.422Zm13.157.36a1.619,1.619,0,0,1-.654.527c-.19.095-.152.04-.357.134a.205.205,0,0,0-.053.289c-.063.181-.178.536-.3.8a3.106,3.106,0,0,1-.854,1.109,9.025,9.025,0,0,1-2.2,1.238,5.994,5.994,0,0,1-1.645.507,13.127,13.127,0,0,1-1.749.063A6.772,6.772,0,0,1,98.7,150.1a3.319,3.319,0,0,1-1.357-.982,4.252,4.252,0,0,1-.687-1.367,6.98,6.98,0,0,1-.134-1.268c-.08-.35-.173-.7-.257-1.048-.116-.455-.182-.927-.3-1.379l.031-.007a3.125,3.125,0,0,0,.888-.538l.129-.116a1.482,1.482,0,0,0,.358.132,2.068,2.068,0,0,0,.75.01,2.123,2.123,0,0,0,.968-.378,5.225,5.225,0,0,0,1.323-1.26,1.7,1.7,0,0,0,1.758-.488,5,5,0,0,0,.817-1.1,4.35,4.35,0,0,0,.244-.694,7.1,7.1,0,0,0,.5.836,3.433,3.433,0,0,0,.982.937,3.776,3.776,0,0,0,1.279.589,9.518,9.518,0,0,0,.59,1.33c.071.134.14.27.224.4.05.067.108.151.2.156a.164.164,0,0,0,.171-.148.225.225,0,0,0,.019-.022.788.788,0,0,1,.22-.309l.021-.016a.634.634,0,0,1,.235-.1h-.021c.2-.03.2-.045.346-.06l.02,0a1.764,1.764,0,0,1,.251.017l.061.01.048.013a1.03,1.03,0,0,1,.462.316,1.287,1.287,0,0,1,.226.413A2.011,2.011,0,0,1,108.729,145.781Z" transform="translate(-94.317 -134.623)" fill="#2e2e54"/>
        <path id="Path_139" data-name="Path 139" d="M151.347,168.358c-.081.15-.184.344-.286.547-.047-.054-.094-.108-.142-.161-.1-.082-.154-.234-.289-.25a.171.171,0,0,0-.135.283c.09.1.261.313.4.484-.186.42-.3.792-.089.8a.112.112,0,0,0,.062-.015l0,0,.006,0,.016-.012a.124.124,0,0,0,.026-.026.71.71,0,0,0,.1-.164c.041-.09.078-.183.113-.275a1.364,1.364,0,0,0,.343.42l0,0,0,0,.006,0a.158.158,0,0,0,.239-.173s0,0,0,0,0-.014-.006-.02v0a.769.769,0,0,0-.123-.234c-.1-.13-.2-.259-.309-.388.015-.038.03-.076.047-.113.01-.021.153-.32.229-.457.03-.06.08-.118.063-.189A.152.152,0,0,0,151.347,168.358Z" transform="translate(-137.526 -159.199)" fill="#2e2e54"/>
        <path id="Path_140" data-name="Path 140" d="M131.022,129.811c-.309-.225-.694-.135-.7.289a.849.849,0,0,0,.418.632,1.062,1.062,0,0,0,.591.235.238.238,0,0,0,.2-.031.139.139,0,0,0,.031-.16.153.153,0,0,0,0-.049A1.462,1.462,0,0,0,131.022,129.811Zm.121.838a.52.52,0,0,1-.058-.023.929.929,0,0,1-.441-.465.494.494,0,0,1,0-.074l0-.017c0-.011.008-.022.012-.033.052-.006.172.013.369.288.012.018.033.051.042.069a1.161,1.161,0,0,1,.116.27A.373.373,0,0,1,131.143,130.649Z" transform="translate(-122.031 -129.487)" fill="#2e2e54"/>
        <path id="Path_141" data-name="Path 141" d="M137.456,128.826a.719.719,0,0,0-.765.418,1.442,1.442,0,0,0-.23.945.133.133,0,0,0,.021.083.2.2,0,0,0,.187.186c.139,0,.249-.119.365-.185a1.6,1.6,0,0,0,.667-.8A.522.522,0,0,0,137.456,128.826Zm-.037.385c.068.268-.335.592-.436.664a1.945,1.945,0,0,1-.248.139,1.332,1.332,0,0,1,.309-.769.362.362,0,0,1,.134-.105.3.3,0,0,1,.133-.048h.031l.009,0,.007,0C137.392,129.135,137.39,129.116,137.418,129.21Z" transform="translate(-126.751 -128.805)" fill="#2e2e54"/>
        <path id="Path_142" data-name="Path 142" d="M113.39,170.689a.333.333,0,0,0-.165-.016.489.489,0,1,0,.444.78A.519.519,0,0,0,113.39,170.689Z" transform="translate(-108.533 -161.03)" fill="#2e2e54"/>
        <path id="Path_143" data-name="Path 143" d="M133.339,166a.447.447,0,0,0-.238-.073.279.279,0,0,0-.059,0h0a.284.284,0,0,0-.066.021c-.434.084-.417.691.011.852A.444.444,0,0,0,133.339,166Z" transform="translate(-123.83 -157.381)" fill="#2e2e54"/>
        <g id="Group_23" data-name="Group 23" transform="translate(5.825 9.396)">
          <path id="Path_144" data-name="Path 144" d="M121.843,169.69a.178.178,0,0,0-.3,0,.207.207,0,0,0-.028.1.668.668,0,0,0,0,.081,2.586,2.586,0,0,1-.021.464c0-.006,0-.019.006-.029a1.71,1.71,0,0,1-.06.2c-.064.119-.006.075-.185.23a1.051,1.051,0,0,1-.207.11l-.014,0a.8.8,0,0,1-.333.022.444.444,0,0,1-.153-.049.988.988,0,0,1-.43-.465c-.014-.024-.035-.077-.044-.1s-.016-.047-.023-.07a.219.219,0,0,0-.43.088,1.265,1.265,0,0,0,.518.868,1.091,1.091,0,0,0,.758.2h-.018a1.343,1.343,0,0,0,.229-.029,1.166,1.166,0,0,0,.475-.248,1.19,1.19,0,0,0,.329-.721A1.288,1.288,0,0,0,121.843,169.69Z" transform="translate(-119.616 -169.613)" fill="#2e2e54"/>
          <path id="Path_145" data-name="Path 145" d="M125.209,177.123Z" transform="translate(-123.921 -175.392)" fill="#2e2e54"/>
        </g>
        <path id="Path_146" data-name="Path 146" d="M109.591,179.022c-.891-.647-1.807.249-1.743,1.195a1.389,1.389,0,0,0,.348.731,1.022,1.022,0,0,0,1.543.181A1.266,1.266,0,0,0,109.591,179.022Z" transform="translate(-104.73 -167.29)" fill="#ebafa9"/>
        <path id="Path_147" data-name="Path 147" d="M138.09,173.159a1.222,1.222,0,0,0-2.064.529,1.326,1.326,0,0,0,.779,1.519.9.9,0,0,0,.527.1A1.313,1.313,0,0,0,138.09,173.159Z" transform="translate(-126.4 -162.658)" fill="#ebafa9"/>
      </g>
    </g>
  </g>
</svg>
