<svg xmlns="http://www.w3.org/2000/svg" width="16" height="16" viewBox="0 0 16 16">
  <g id="Group_3045" data-name="Group 3045" transform="translate(-65 -65)">
    <path id="Path_370" data-name="Path 370" d="M80.371,69.886a7.977,7.977,0,0,0-.7-1.311.587.587,0,0,1-.047.05q-.157.149-.311.3a7.55,7.55,0,1,1-1-1.236q.116.116.227.237.2-.119.4-.232l.037-.019q-.152-.171-.316-.334a7.976,7.976,0,1,0,1.714,2.543Z" transform="translate(0 0)" fill="#42af3c"/>
    <path id="Path_371" data-name="Path 371" d="M217.822,220.936a.791.791,0,0,1,.845-.087l2.379,1.192a31.249,31.249,0,0,1,3.062-3.351,18.2,18.2,0,0,1,2.377-1.88,6.829,6.829,0,1,0,.871,1.133,20.791,20.791,0,0,0-2.094,2.695c-.849,1.28-1.63,2.693-2.385,4.059a1.507,1.507,0,0,1-.842.813,1.021,1.021,0,0,1-.282.039h0a1.682,1.682,0,0,1-1.029-.457A23.522,23.522,0,0,1,218.1,222.5l-.372-.407a.791.791,0,0,1,.093-1.156Z" transform="translate(-148.523 -148.523)" fill="#42af3c"/>
    <path id="Path_372" data-name="Path 372" d="M645.485,470.12l-2.715-1.36a.328.328,0,0,0-.35.036h0a.328.328,0,0,0-.038.478,27.348,27.348,0,0,0,2.944,2.954,1.057,1.057,0,0,0,.891.333c.269-.077.428-.347.564-.592a29.528,29.528,0,0,1,5.353-7.66.118.118,0,0,0-.139-.188A22.268,22.268,0,0,0,645.485,470.12Z" transform="translate(-572.834 -396.019)" fill="#42af3c"/>
  </g>
</svg>
