<svg id="Group_11" data-name="Group 11" xmlns="http://www.w3.org/2000/svg" width="52.474" height="49.335" viewBox="0 0 52.474 49.335">
  <circle id="Ellipse_4" data-name="Ellipse 4" cx="1.871" cy="1.871" r="1.871" transform="translate(43.228 10.504)" fill="#fff"/>
  <path id="Path_171" data-name="Path 171" d="M46.4,4.733H38.133l-.66-2.327-.016-.079A3.056,3.056,0,0,0,34.516,0H17.958a2.992,2.992,0,0,0-2.941,2.312l-.723,2.437H6.07A6.05,6.05,0,0,0,0,10.8V35.4a6.073,6.073,0,0,0,6.07,6.07H24.012V41.5h4.623a12.188,12.188,0,0,0,23.572-4.324,5.972,5.972,0,0,0,.267-1.761V10.8A6.073,6.073,0,0,0,46.4,4.733ZM2.013,35.4V10.8A4.053,4.053,0,0,1,6.07,6.762H15.8l1.164-3.947a1,1,0,0,1,.991-.786H34.516a1.025,1.025,0,0,1,.991.786l1.1,3.947h9.8A4.04,4.04,0,0,1,50.445,10.8V30.821a3.453,3.453,0,0,0-.267-.393c-.031-.047-.063-.11-.094-.157a10.072,10.072,0,0,0-.613-.818c-.047-.063-.11-.126-.157-.189a8.077,8.077,0,0,0-.6-.66.949.949,0,0,0-.126-.126c-.236-.236-.487-.472-.755-.692a2.31,2.31,0,0,0-.2-.157c-.236-.189-.487-.377-.739-.55a.276.276,0,0,1-.079-.063c-.016-.016-.031-.016-.047-.031-.189-.126-.362-.236-.55-.346-.063-.031-.126-.079-.189-.11a.637.637,0,0,0-.142-.079c-.016,0-.031-.016-.047-.016-.126-.079-.267-.142-.393-.2-.079-.031-.142-.079-.22-.11-.142-.063-.283-.142-.425-.189l-.094-.047a10.319,10.319,0,0,0-.975-.362c-.079-.031-.173-.047-.252-.079-.33-.094-.645-.189-.975-.252l-.063-.016c-.252-.047-.5-.094-.755-.126a.681.681,0,0,1-.079-.016c-.079-.016-.157-.016-.236-.031h-.063l-.2-.016h0l-.833-.047h-.8c-.157.016-.314.016-.472.031h0c-.063,0-.126.016-.189.016a12.834,12.834,0,1,0-12.6,10.363,10.544,10.544,0,0,0,1.73-.126c-.047.3-.079.582-.11.881h0c0,.079-.016.173-.016.252v.126a.59.59,0,0,1-.016.157c0,.157-.016.314-.016.472,0,.393.031.786.063,1.179a2.346,2.346,0,0,1,.031.33c.031.267.079.535.126.8H6.07A4.04,4.04,0,0,1,2.013,35.4Zm34.28-9.875c-.252.079-.487.173-.723.267-.063.031-.142.047-.2.079a11.515,11.515,0,0,0-2.642,1.51h0l-.016.016a.217.217,0,0,1-.063.047,11.922,11.922,0,0,0-2.312,2.312c-.016.016-.031.047-.047.063l-.016.016a12.35,12.35,0,0,0-1.525,2.7h0c-.016.047-.031.11-.047.157-.047.126-.094.267-.142.393a10.806,10.806,0,1,1,8.13-7.674A1.988,1.988,0,0,0,36.293,25.521ZM40.02,47.568a10.467,10.467,0,0,1-9.514-6.117,9.915,9.915,0,0,1-.676-2.029,10.113,10.113,0,0,1-.252-2.312,11.159,11.159,0,0,1,.173-1.918,2.443,2.443,0,0,1,.079-.362,9.992,9.992,0,0,1,.9-2.485,11.239,11.239,0,0,1,.849-1.384c.016-.016.031-.047.047-.063.094-.126.189-.252.3-.377.031-.031.063-.079.094-.11a5.635,5.635,0,0,1,.409-.456c.031-.031.063-.079.094-.11h0c.031-.031.063-.079.094-.11a10.074,10.074,0,0,1,1.164-1.006.344.344,0,0,0,.079-.047c.031-.016.063-.047.094-.063.016,0,.016-.016.031-.016a1.312,1.312,0,0,1,.189-.126c.047-.031.11-.079.157-.11.11-.063.2-.142.314-.2h0a7.694,7.694,0,0,1,1.132-.582,9.446,9.446,0,0,1,.928-.362.887.887,0,0,0,.189-.063c.079-.031.157-.047.252-.079a1.473,1.473,0,0,1,.252-.063c.079-.016.173-.047.252-.063h0c.063-.016.142-.031.2-.047.047-.016.11-.016.157-.031s.11-.016.157-.031c.047,0,.079-.016.126-.016.031,0,.063-.016.094-.016.063-.016.126-.016.189-.031a10.463,10.463,0,0,1,1.4-.094h.377c.11,0,.236.016.346.016a.645.645,0,0,1,.173.016c.126.016.267.016.393.031.031,0,.063.016.094.016.079.016.157.016.236.031.063.016.142.016.2.031a2.227,2.227,0,0,1,.314.063l.236.047a1.31,1.31,0,0,1,.236.063c.016,0,.031,0,.031.016.063.016.126.031.2.047.094.031.189.047.283.079.079.031.157.047.252.079a1.383,1.383,0,0,0,.236.079l.236.094h0l.236.094c.079.031.142.063.22.094H44.3c.157.063.3.142.456.22.11.063.22.11.33.173.094.063.2.11.3.173.047.031.079.047.126.079s.079.047.126.079c.11.079.22.142.33.22a.342.342,0,0,0,.126.079c.047.031.094.079.142.11.016,0,.016.016.031.016h0c.047.031.079.063.126.094s.079.063.126.094l.016.016c.142.11.267.22.393.33.047.047.094.079.142.126s.094.079.142.126a.726.726,0,0,1,.11.11h.016l.079.079.079.079c.016.031.047.047.079.079a1.418,1.418,0,0,1,.142.157c.031.031.063.079.094.11s.063.079.094.11c.016.031.047.047.063.079s.047.047.063.079a1.018,1.018,0,0,0,.126.142c.031.047.079.094.11.142h0a2.252,2.252,0,0,1,.173.236c.047.063.079.11.126.173a2.049,2.049,0,0,1,.157.236c.016.016.031.047.047.063.031.047.063.11.094.157s.063.11.094.157a10.545,10.545,0,0,1,1.431,4.246,9.109,9.109,0,0,1,.063,1.132A10.488,10.488,0,0,1,40.02,47.568Z" fill="#fff"/>
  <path id="Path_172" data-name="Path 172" d="M219.5,193.166h-6.1v-6.1a.862.862,0,0,0-.865-.865.873.873,0,0,0-.865.865v6.1h-6.1a.862.862,0,0,0-.865.865.873.873,0,0,0,.865.865h6.1v6.117a.862.862,0,0,0,.865.865.873.873,0,0,0,.865-.865V194.9h6.1a.862.862,0,0,0,.865-.865A.873.873,0,0,0,219.5,193.166Z" transform="translate(-172.511 -156.92)" fill="#fff"/>
</svg>
