<svg xmlns="http://www.w3.org/2000/svg" xmlns:xlink="http://www.w3.org/1999/xlink" width="32" height="32" viewBox="0 0 32 32">
  <defs>
    <clipPath id="clip-path">
      <circle id="Ellipse_19" data-name="Ellipse 19" cx="16" cy="16" r="16" transform="translate(0.078 -0.04)" fill="none"/>
    </clipPath>
    <radialGradient id="radial-gradient" cx="0.5" cy="0.5" r="0.5" gradientUnits="objectBoundingBox">
      <stop offset="0" stop-color="#ffd676"/>
      <stop offset="0.25" stop-color="#f2a454"/>
      <stop offset="0.38" stop-color="#f05c3c"/>
      <stop offset="0.7" stop-color="#c22f86"/>
      <stop offset="0.96" stop-color="#6666ad"/>
      <stop offset="0.99" stop-color="#5c6cb2"/>
    </radialGradient>
  </defs>
  <g id="instagram" transform="translate(-0.078 0.04)">
    <g id="Group_10" data-name="Group 10" clip-path="url(#clip-path)">
      <circle id="Ellipse_18" data-name="Ellipse 18" cx="34.5" cy="34.5" r="34.5" transform="translate(-27.922 -4.04)" fill="url(#radial-gradient)"/>
    </g>
    <circle id="Ellipse_20" data-name="Ellipse 20" cx="1" cy="1" r="1" transform="translate(19.078 10.96)" fill="#fff"/>
    <path id="Path_76" data-name="Path 76" d="M51.99,48a3.99,3.99,0,1,0,3.99,3.99A3.99,3.99,0,0,0,51.99,48Zm0,5.985a1.995,1.995,0,1,1,1.995-1.995A1.995,1.995,0,0,1,51.99,53.985Z" transform="translate(-36.03 -36.03)" fill="#fff"/>
    <path id="Path_77" data-name="Path 77" d="M41.965,45.955H31.99A3.99,3.99,0,0,1,28,41.965V31.99A3.99,3.99,0,0,1,31.99,28h9.975a3.99,3.99,0,0,1,3.99,3.99v9.975A3.99,3.99,0,0,1,41.965,45.955ZM31.99,29.995a2,2,0,0,0-1.995,1.995v9.975A2,2,0,0,0,31.99,43.96h9.975a2,2,0,0,0,1.995-1.995V31.99a2,2,0,0,0-1.995-1.995Z" transform="translate(-21.018 -21.018)" fill="#fff"/>
  </g>
</svg>
