<svg xmlns="http://www.w3.org/2000/svg" xmlns:xlink="http://www.w3.org/1999/xlink" width="148.183" height="35.227" viewBox="0 0 148.183 35.227">
  <defs>
    <linearGradient id="linear-gradient" y1="0.5" x2="1" y2="0.5" gradientUnits="objectBoundingBox">
      <stop offset="0" stop-color="#59c3b5"/>
      <stop offset="1" stop-color="#007393"/>
    </linearGradient>
    <linearGradient id="linear-gradient-2" y1="0.5" x2="1" y2="0.5" gradientUnits="objectBoundingBox">
      <stop offset="0" stop-color="#037694"/>
      <stop offset="1" stop-color="#007393"/>
    </linearGradient>
  </defs>
  <g id="logo" transform="translate(-572.732 -84.272)">
    <g id="Layer_2" data-name="Layer 2" transform="translate(607.065 84.272)">
      <g id="Group_5" data-name="Group 5">
        <path id="Path_30" data-name="Path 30" d="M483.52,495.306c4.573,0,8.29,2.448,9.676,6.667h-4.75a5.192,5.192,0,0,0-4.956-2.95c-3.6,0-6.166,2.625-6.166,6.815,0,4.159,2.567,6.814,6.166,6.814a5.17,5.17,0,0,0,4.956-2.98h4.75c-1.386,4.248-5.1,6.667-9.676,6.667a10.517,10.517,0,0,1,0-21.034Z" transform="translate(-473.077 -494.332)" fill="#1e1e1e"/>
        <path id="Path_31" data-name="Path 31" d="M559.027,491.716h4.13v7.523a6.28,6.28,0,0,1,5.074-2.272c3.687,0,6.372,2.478,6.372,6.992v9.587h-4.13v-9.027c0-2.625-1.445-4.042-3.629-4.042-2.242,0-3.688,1.416-3.688,4.042v9.027h-4.13Z" transform="translate(-535.72 -491.716)" fill="#1e1e1e"/>
        <path id="Path_32" data-name="Path 32" d="M633.184,510.971a6.463,6.463,0,0,1,5.4,2.6v-2.331h4.159V527.58h-4.159v-2.39a6.446,6.446,0,0,1-5.428,2.655c-4.13,0-7.434-3.393-7.434-8.5S629.024,510.971,633.184,510.971Zm1.062,3.629c-2.213,0-4.307,1.652-4.307,4.75s2.094,4.868,4.307,4.868c2.271,0,4.337-1.711,4.337-4.809S636.517,514.6,634.246,514.6Z" transform="translate(-584.328 -505.75)" fill="#1e1e1e"/>
        <path id="Path_33" data-name="Path 33" d="M713.542,518.632c0-2.625-1.445-4.042-3.629-4.042-2.242,0-3.688,1.416-3.688,4.042v9.027H702.1V511.316h4.13v2.036a6.1,6.1,0,0,1,4.927-2.272c3.806,0,6.52,2.478,6.52,6.992v9.587h-4.13Z" transform="translate(-639.993 -505.829)" fill="#1e1e1e"/>
        <path id="Path_34" data-name="Path 34" d="M776.874,510.971c4.071,0,6.815,2.124,7.7,5.782h-4.455a3.21,3.21,0,0,0-3.274-2.271c-2.3,0-3.835,1.74-3.835,4.927s1.534,4.9,3.835,4.9a3.117,3.117,0,0,0,3.274-2.242h4.455a7.455,7.455,0,0,1-7.7,5.782c-4.72,0-8.083-3.3-8.083-8.437S772.154,510.971,776.874,510.971Z" transform="translate(-688.602 -505.75)" fill="#1e1e1e"/>
        <path id="Path_35" data-name="Path 35" d="M841.181,527.845c-4.75,0-8.2-3.3-8.2-8.437,0-5.163,3.363-8.437,8.2-8.437a7.673,7.673,0,0,1,8.054,8.083,9.666,9.666,0,0,1-.118,1.593H837.169a3.824,3.824,0,0,0,3.924,3.776,3.368,3.368,0,0,0,3.275-1.976h4.454A7.6,7.6,0,0,1,841.181,527.845Zm-3.982-9.971h7.758a3.631,3.631,0,0,0-3.894-3.51A3.8,3.8,0,0,0,837.2,517.874Z" transform="translate(-735.385 -505.75)" fill="#1e1e1e"/>
      </g>
      <g id="Group_6" data-name="Group 6" transform="translate(0 27.712)">
        <path id="Path_36" data-name="Path 36" d="M477.029,595.012h-2.993v2.456h2.677v.791h-2.677v2.53h2.993v.79h-3.952v-7.357h3.952Z" transform="translate(-473.077 -594.138)"/>
        <path id="Path_37" data-name="Path 37" d="M492.55,594.456h1.033l2.7,6.029,2.7-6.029H500v7.293h-.959v-5.438l-2.424,5.438h-.674l-2.435-5.449v5.449h-.959Z" transform="translate(-487.27 -594.308)"/>
        <path id="Path_38" data-name="Path 38" d="M528.288,601.607h-2.74v-7.346h2.635c1.549,0,2.329.843,2.329,1.865a1.719,1.719,0,0,1-1.286,1.7,1.834,1.834,0,0,1,1.455,1.813C530.681,600.743,529.806,601.607,528.288,601.607Zm-.19-6.556h-1.591v2.382h1.613c.9,0,1.412-.442,1.412-1.191C529.532,595.515,529.037,595.051,528.1,595.051Zm.074,3.173h-1.665v2.593h1.7c.949,0,1.518-.474,1.518-1.275S529.11,598.224,528.172,598.224Z" transform="translate(-511.319 -594.166)"/>
        <path id="Path_39" data-name="Path 39" d="M551.279,594.261c1.728,0,2.551.959,2.551,2.161a2.072,2.072,0,0,1-1.75,2.108l1.844,3.078h-1.149l-1.75-3h-1.159v3h-.959v-7.346Zm0,.79h-1.412v2.782h1.412c1.086,0,1.56-.59,1.56-1.412S552.375,595.051,551.279,595.051Z" transform="translate(-528.345 -594.166)"/>
        <path id="Path_40" data-name="Path 40" d="M575.169,600.087h-3.2l-.59,1.634h-1.012l2.656-7.3h1.107l2.645,7.3h-1.012Zm-1.6-4.49-1.328,3.71h2.656Z" transform="translate(-543.982 -594.28)"/>
        <path id="Path_41" data-name="Path 41" d="M600.149,593.911a3.457,3.457,0,0,1,3.4,2.224H602.4a2.311,2.311,0,0,0-2.255-1.38,2.924,2.924,0,0,0,0,5.828,2.317,2.317,0,0,0,2.255-1.37h1.149a3.454,3.454,0,0,1-3.4,2.2,3.753,3.753,0,0,1,0-7.5Z" transform="translate(-563.018 -593.911)"/>
        <path id="Path_42" data-name="Path 42" d="M631.294,595.012H628.3v2.456h2.677v.791H628.3v2.53h2.993v.79h-3.952v-7.357h3.952Z" transform="translate(-585.51 -594.138)"/>
        <path id="Path_43" data-name="Path 43" d="M662.913,597.95c0,2.276-1.486,3.657-3.9,3.657h-2.287v-7.346h2.287C661.427,594.261,662.913,595.674,662.913,597.95Zm-3.9,2.867a2.619,2.619,0,0,0,2.919-2.867,2.65,2.65,0,0,0-2.919-2.909h-1.328v5.776Z" transform="translate(-606.926 -594.166)"/>
        <path id="Path_44" data-name="Path 44" d="M683.739,594.261h.959v7.346h-.959Z" transform="translate(-626.614 -594.166)"/>
        <path id="Path_45" data-name="Path 45" d="M692.833,594.261h4.152v.78h-3.193v2.477h2.593v.78h-2.593v3.309h-.959Z" transform="translate(-633.242 -594.166)"/>
        <path id="Path_46" data-name="Path 46" d="M711.957,594.261h4.152v.78h-3.193v2.477h2.593v.78h-2.593v3.309h-.959Z" transform="translate(-647.18 -594.166)"/>
        <path id="Path_47" data-name="Path 47" d="M735.032,595.012h-2.994v2.456h2.677v.791h-2.677v2.53h2.994v.79H731.08v-7.357h3.952Z" transform="translate(-661.117 -594.138)"/>
        <path id="Path_48" data-name="Path 48" d="M752.923,594.261c1.728,0,2.55.959,2.55,2.161a2.071,2.071,0,0,1-1.75,2.108l1.845,3.078H754.42l-1.75-3h-1.159v3h-.959v-7.346Zm0,.79h-1.413v2.782h1.413c1.085,0,1.56-.59,1.56-1.412S754.019,595.051,752.923,595.051Z" transform="translate(-675.309 -594.166)"/>
        <path id="Path_49" data-name="Path 49" d="M776.813,600.087h-3.2l-.59,1.634h-1.012l2.656-7.3h1.107l2.645,7.3H777.4Zm-1.6-4.49-1.328,3.71h2.656Z" transform="translate(-690.946 -594.28)"/>
        <path id="Path_50" data-name="Path 50" d="M805.222,594.222v7.357h-.959l-3.857-5.85v5.85h-.959v-7.357h.959l3.857,5.839v-5.839Z" transform="translate(-710.945 -594.138)"/>
        <path id="Path_51" data-name="Path 51" d="M828.651,593.911a3.459,3.459,0,0,1,3.4,2.224h-1.149a2.311,2.311,0,0,0-2.255-1.38,2.924,2.924,0,0,0,0,5.828,2.317,2.317,0,0,0,2.255-1.37h1.149a3.456,3.456,0,0,1-3.4,2.2,3.753,3.753,0,0,1,0-7.5Z" transform="translate(-729.557 -593.911)"/>
        <path id="Path_52" data-name="Path 52" d="M859.8,595.012H856.8v2.456h2.677v.791H856.8v2.53H859.8v.79h-3.952v-7.357H859.8Z" transform="translate(-752.049 -594.138)"/>
        <path id="Path_53" data-name="Path 53" d="M877.079,601.426c-1.476,0-2.519-.822-2.54-2.034h1.022a1.361,1.361,0,0,0,1.518,1.222c.927,0,1.475-.526,1.475-1.222,0-1.981-3.973-.717-3.973-3.446,0-1.212.98-2.034,2.435-2.034a2.2,2.2,0,0,1,2.435,1.886H878.4a1.331,1.331,0,0,0-1.423-1.064c-.791-.021-1.412.39-1.412,1.18,0,1.9,3.963.717,3.963,3.436A2.2,2.2,0,0,1,877.079,601.426Z" transform="translate(-765.675 -593.911)"/>
      </g>
    </g>
    <g id="Layer_3" data-name="Layer 3" transform="translate(572.732 84.272)">
      <g id="Group_7" data-name="Group 7">
        <path id="Path_54" data-name="Path 54" d="M573.182,84.272c-3.9,3.46-2.72,6.8,1.436,8.356a14.14,14.14,0,0,1,2.5,1.2c2.231,1.362,3.608,3.661,4.659,6.231a21.816,21.816,0,0,0-1.965-2.545,9.949,9.949,0,0,0-12.148-2.094c-4.8,2.658-5.006,8.089-2.658,15.061A15.542,15.542,0,0,1,573.182,84.272Z" transform="translate(-556.95 -84.272)" fill="#fd791a"/>
        <circle id="Ellipse_4" data-name="Ellipse 4" cx="2.381" cy="2.381" r="2.381" transform="translate(15.318 2.231)" fill="#fd791a"/>
        <path id="Path_55" data-name="Path 55" d="M579.387,163.5c-1.541,4.548.1,6.637,3.5,7.367-3.617.76-7.977,6.911-5.87,11.679C571.721,177.07,572.944,167.722,579.387,163.5Z" transform="translate(-568.966 -156.347)" fill="#e62d26" opacity="0.85"/>
        <circle id="Ellipse_5" data-name="Ellipse 5" cx="2.114" cy="2.114" r="2.114" transform="translate(11.273 8.098)" fill="#e62d26" opacity="0.85"/>
        <path id="Path_56" data-name="Path 56" d="M598.72,263.953a3.457,3.457,0,0,0,3.773,2.575,9.874,9.874,0,0,0-3.773,7.4A11.226,11.226,0,0,1,598.72,263.953Z" transform="translate(-590.664 -247.722)" fill="#ac1e85" opacity="0.85"/>
        <circle id="Ellipse_6" data-name="Ellipse 6" cx="1.19" cy="1.19" r="1.19" transform="translate(9.823 15.677)" fill="#ac1e85" opacity="0.85"/>
        <path id="Path_57" data-name="Path 57" d="M550.332,224.97h0a.474.474,0,0,0-.859.036,4.5,4.5,0,0,0-.215.456q-.04.082-.082.163c-.027.054-.055.108-.083.161s-.056.107-.086.161l-.088.16-.033.059-.057.1-.092.157c-.061.1-.125.207-.189.309l-.089.141c-.177.274-.364.542-.56.8-.024.033-.048.065-.073.1l-.111.142c-.048.061-.1.122-.145.182l-.027.032c-.051.063-.1.126-.156.187q-.143.169-.291.332c-.05.055-.1.11-.151.164s-.114.121-.173.181l-.008.008c-.042.044-.084.086-.126.129-.058.058-.115.114-.173.17s-.144.138-.217.205h0q-.137.129-.279.252h0a13.727,13.727,0,0,1-4.447,2.614,2.172,2.172,0,0,1-1.077.11,1.611,1.611,0,0,1-.885-.42.959.959,0,0,1,.094-1.19c.739-.787,2.783-1.247,4.694-1.312h.008c1-.053,1.022-.356.058-.625a14.617,14.617,0,0,0-4-.568,11.067,11.067,0,0,0-7.2,2.529c-.079-.023-.16-.048-.239-.073q-.237-.075-.472-.159l-.117-.042-.117-.043c-.074-.027-.148-.056-.221-.085l-.01,0-.229-.093-.191-.081-.036-.016c-.06-.026-.12-.052-.179-.08-.023-.009-.045-.02-.067-.03-.068-.031-.135-.062-.2-.095s-.145-.07-.217-.106l-.116-.059c-.036-.017-.072-.036-.107-.055-.064-.032-.126-.065-.188-.1l-.039-.021c-.069-.037-.138-.075-.206-.114s-.15-.086-.225-.13l-.1-.059q-.149-.089-.3-.182l-.1-.062-.12-.078q-.1-.067-.2-.136c-.067-.045-.134-.092-.2-.139s-.132-.095-.2-.143-.108-.079-.162-.12l-.089-.068c-.052-.039-.1-.079-.154-.12s-.117-.092-.174-.139c-.074-.061-.148-.122-.222-.185s-.12-.1-.179-.154l-.016-.014c-.027-.023-.054-.047-.081-.072l-.058-.051-.132-.12a14.641,14.641,0,0,1-1.2-1.25c-.07-.083-.139-.165-.206-.248s-.136-.168-.2-.253l-.073-.1-.126-.167c-.05-.067-.1-.135-.148-.2-.037-.051-.073-.1-.11-.156s-.089-.128-.132-.193-.07-.105-.105-.158l-.023-.036c-.033-.049-.064-.1-.095-.148s-.063-.1-.093-.149c-.022-.035-.043-.07-.064-.1-.036-.058-.07-.116-.1-.174s-.068-.117-.1-.176-.079-.142-.117-.213c-.017-.03-.034-.061-.05-.092q-.153-.286-.293-.579c-.028-.058-.055-.117-.083-.176q-.074-.161-.145-.325c-.026-.059-.051-.119-.076-.178s-.049-.12-.073-.179-.058-.146-.086-.219l0-.012c-.029-.078-.058-.155-.086-.233s-.055-.157-.082-.235-.045-.133-.066-.2-.038-.117-.056-.176q-.09-.289-.167-.583c-.01-.038-.02-.076-.03-.115l0-.01c-.014-.053-.027-.107-.039-.16s-.027-.111-.039-.167q-.061-.265-.112-.532h0a14.532,14.532,0,0,1,.544-7.456.045.045,0,0,0-.081-.039,15.476,15.476,0,0,0,11.649,23.572q.745.074,1.51.073c.1,0,.192,0,.288,0l.158,0c.139,0,.277-.009.415-.017l.2-.012.056,0,.167-.014c.468-.038.93-.1,1.385-.176.111-.019.22-.039.329-.061q.583-.115,1.148-.272l.134-.038.086-.024.095-.029c.188-.055.374-.116.559-.179l.148-.052c.045-.015.09-.032.135-.048l.166-.061c.077-.029.154-.058.231-.089s.133-.052.2-.079q.13-.053.259-.11l.225-.1.2-.09c.158-.074.314-.151.469-.23l.217-.114.216-.117.107-.06.12-.068.022-.013.1-.059.046-.027.02-.011.034-.02.052-.031.1-.061.078-.048.126-.08c.031-.019.062-.039.092-.059l.045-.029c.069-.044.137-.089.2-.135l.009-.006.033-.023c.055-.036.108-.073.161-.11l.03-.021h0q.112-.078.223-.159l.062-.045.055-.041.021-.016.108-.081.075-.058h0l0,0,0,0,.021-.015.021-.016.009-.008.052-.039a.051.051,0,0,0,.01-.008l.206-.163h0l0,0,0,0,0,0,.2-.164.027-.023.076-.065.108-.093.079-.07c.058-.051.116-.1.173-.154l.078-.071.052-.048.05-.047.062-.058.11-.105.042-.041.015-.014c.046-.045.092-.09.138-.136l.013-.013c.06-.06.12-.12.179-.182C549,230.051,551.171,226.15,550.332,224.97Zm-13.892,6.5h-.019l.023,0Z" transform="translate(-521.308 -200.688)" fill="url(#linear-gradient)"/>
        <path id="Path_58" data-name="Path 58" d="M788.06,359.136c.652.218,2.859-2.7,2.172-2.932C789.2,355.855,787.062,358.8,788.06,359.136Z" transform="translate(-763.728 -331.613)" fill="url(#linear-gradient-2)"/>
      </g>
    </g>
  </g>
</svg>
