<svg xmlns="http://www.w3.org/2000/svg" width="22.055" height="25.14" viewBox="0 0 22.055 25.14">
    <g id="Group_2763" data-name="Group 2763" transform="translate(398.432 -2199.113)">
        <rect id="Rectangle_23" data-name="Rectangle 23" width="5" height="3" rx="1.5"
            transform="translate(-390 2220)" fill="#fff" opacity="0" />
        <path id="Path_194" data-name="Path 194"
            d="M-699.674,2258.339l-2.458,2.651-.668,4.295-.632,3.955-1.733,4.545-.409.943h19.689l-2.571-4.589-.89-8.234-2.194-3.406-4.122-1.5-2.828.312Z"
            transform="translate(308.59 -54.265)" fill="#fff" opacity="0" />
        <g id="Group_2763-2" data-name="Group 2763" transform="translate(-398.432 2199.113)">
            <path id="Path_165" data-name="Path 165"
                d="M949.013,264.434a6.011,6.011,0,0,1,1.016.452,2.043,2.043,0,0,1,.891,1.692c.014.367,0,.736,0,1.107.324.131.65.237.953.388a7.513,7.513,0,0,1,4.436,6.887c.038,1.1-.013,2.195.055,3.287a11.072,11.072,0,0,0,2.172,5.924c.288.4.615.764.938,1.132a.756.756,0,0,1-.587,1.326q-3.136-.007-6.272,0h-.287c-.037.128-.068.253-.11.373a3.627,3.627,0,0,1-3,2.532.637.637,0,0,0-.113.041h-.784a8.4,8.4,0,0,1-1.183-.368,3.564,3.564,0,0,1-1.966-2.346c-.02-.07-.041-.139-.069-.232h-.288q-3.161,0-6.321,0a.735.735,0,0,1-.713-1.087,1.223,1.223,0,0,1,.178-.232,11.27,11.27,0,0,0,2.924-5.7,17.1,17.1,0,0,0,.226-2.363c.045-1-.039-2.019.065-3.016a7.388,7.388,0,0,1,4.012-5.966c.411-.228.86-.387,1.321-.591,0-.283,0-.6,0-.92a2.2,2.2,0,0,1,1.822-2.279.537.537,0,0,0,.089-.037Zm8.4,20.708-.209-.3a12.677,12.677,0,0,1-2.31-6.548c-.062-1.027-.027-2.061-.052-3.091a9.7,9.7,0,0,0-.1-1.294,6.121,6.121,0,0,0-12.149,1.158c0,.835.012,1.669-.005,2.5a12.947,12.947,0,0,1-2.39,7.321c-.053.076-.1.154-.168.25Zm-10.75,1.495a2.184,2.184,0,0,0,2.2,1.46,2.128,2.128,0,0,0,1.9-1.46Zm2.783-19.241a8.079,8.079,0,0,0-.006-.867.728.728,0,0,0-1.441,0,8.593,8.593,0,0,0-.006.865Z"
                transform="translate(-937.691 -264.434)" fill="#fff" />
            <path id="Path_166" data-name="Path 166"
                d="M937.7,278.284a10.965,10.965,0,0,1,3.2-7.432.736.736,0,1,1,1.031,1.047,9.541,9.541,0,0,0-2.757,6.495c0,.09,0,.18-.005.27a.734.734,0,0,1-1.467-.015C937.693,278.543,937.7,278.436,937.7,278.284Z"
                transform="translate(-937.693 -268.074)" fill="#fff" />
            <path id="Path_167" data-name="Path 167"
                d="M985,278.347a2.772,2.772,0,0,1,0,.391.738.738,0,0,1-.758.628.764.764,0,0,1-.706-.742,19.268,19.268,0,0,0-.277-2.256,9.077,9.077,0,0,0-2.339-4.32c-.062-.065-.126-.128-.185-.2a.735.735,0,1,1,1.071-1.006,10.977,10.977,0,0,1,3.2,7.5Z"
                transform="translate(-962.948 -268.074)" fill="#fff" />
        </g>
    </g>
</svg>
