<svg xmlns="http://www.w3.org/2000/svg" width="23.982" height="28.287" viewBox="0 0 23.982 28.287">
  <g id="Group_2797" data-name="Group 2797" transform="translate(-367.408 -544.253)">
    <path id="Path_200" data-name="Path 200"
        d="M374.418,574.683a2.135,2.135,0,0,1-.191-.107.51.51,0,0,1-.232-.524.5.5,0,0,1,.4-.442,1.693,1.693,0,0,1,.383-.031q8.423,0,16.847,0c.642,0,.806-.162.806-.8q0-10.578,0-21.156a1.734,1.734,0,0,1,.03-.383.541.541,0,0,1,.542-.423.552.552,0,0,1,.516.458,2.106,2.106,0,0,1,.016.358q0,10.481,0,20.962c0,1.251-.25,1.627-1.383,2.085Z"
        transform="translate(-2.146 -2.142)" fill="#fff" />
    <path id="Path_201" data-name="Path 201"
        d="M386.966,556.183v10.054a1.7,1.7,0,0,1-1.874,1.883H369.264a1.684,1.684,0,0,1-1.856-1.844q0-4.93,0-9.86a1.362,1.362,0,0,1,.039-.382.5.5,0,0,1,.521-.37.489.489,0,0,1,.5.365,1.507,1.507,0,0,1,.044.408q0,4.9,0,9.806c0,.6.173.772.773.772h15.8c.6,0,.774-.177.774-.775V546.133c0-.6-.177-.774-.776-.774h-15.8c-.6,0-.773.173-.773.773v5.247c0,.447-.21.714-.554.715s-.55-.265-.551-.714q0-2.665,0-5.33a1.669,1.669,0,0,1,1.792-1.8q7.982,0,15.965,0a1.677,1.677,0,0,1,1.8,1.82Q386.967,551.129,386.966,556.183Z"
        transform="translate(0 0)" fill="#fff" />
    <path id="Path_202" data-name="Path 202"
        d="M391.321,558.98q0,5.276,0,10.552a1.69,1.69,0,0,1-1.881,1.873H374.772c-.065,0-.129,0-.193,0a.552.552,0,1,1-.022-1.1c.092-.007.184,0,.276,0h14.584c.637,0,.8-.163.8-.8q0-10.58,0-21.159a1.652,1.652,0,0,1,.031-.383.535.535,0,0,1,1.043.007,1.732,1.732,0,0,1,.029.383Q391.322,553.663,391.321,558.98Z"
        transform="translate(-2.143 -1.073)" fill="#fff" />
    <path id="Path_203" data-name="Path 203"
        d="M372,553.552c0-.847,0-1.694,0-2.541,0-.491.2-.689.689-.689q2.514,0,5.027,0c.488,0,.69.2.691.691q0,2.514,0,5.027c0,.487-.2.689-.693.689q-2.514,0-5.027,0c-.488,0-.686-.2-.688-.691C372,555.21,372,554.381,372,553.552Zm5.284,2.06v-4.164H373.12v4.164Z"
        transform="translate(-1.498 -1.979)" fill="#fff" />
    <path id="Path_204" data-name="Path 204"
        d="M384.872,565.776c-1.021,0-2.043,0-3.064,0a.58.58,0,0,1-.665-.6.89.89,0,0,1,.338-.451c.075-.065.228-.052.346-.052q3.063,0,6.127,0c.369,0,.59.125.67.371.128.393-.143.729-.606.732-.856.006-1.711,0-2.567,0Z"
        transform="translate(-4.48 -6.66)" fill="#fff" />
    <path id="Path_205" data-name="Path 205"
        d="M384.877,572.007c-1.03,0-2.061.007-3.091-.007a.867.867,0,0,1-.5-.164.523.523,0,0,1,.19-.889.921.921,0,0,1,.3-.043q3.1,0,6.21,0c.356,0,.574.144.64.407.1.395-.163.694-.624.7C386.956,572.01,385.917,572.007,384.877,572.007Z"
        transform="translate(-4.468 -8.693)" fill="#fff" />
    <path id="Path_206" data-name="Path 206"
        d="M373.913,564.978l1.434-1.447a.514.514,0,0,1,.622-.162.745.745,0,0,1,.34.447.65.65,0,0,1-.183.483c-.571.6-1.16,1.182-1.752,1.763a.563.563,0,0,1-.895-.005q-.488-.469-.957-.956a.556.556,0,1,1,.786-.771C373.51,564.526,373.7,564.742,373.913,564.978Z"
        transform="translate(-1.6 -6.219)" fill="#fff" />
    <path id="Path_207" data-name="Path 207"
        d="M373.922,571.227c.464-.466.9-.9,1.332-1.337a1.612,1.612,0,0,1,.251-.214.522.522,0,0,1,.66.064.538.538,0,0,1,.082.68,1.273,1.273,0,0,1-.177.21q-.819.823-1.64,1.641a.6.6,0,0,1-1,.005c-.3-.3-.6-.6-.9-.9a.569.569,0,0,1-.057-.853.555.555,0,0,1,.832.073C373.51,570.791,373.7,570.994,373.922,571.227Z"
        transform="translate(-1.6 -8.264)" fill="#fff" />
    <path id="Path_208" data-name="Path 208"
        d="M386.969,550.322c.6,0,1.2,0,1.795,0,.4,0,.662.216.669.542s-.259.56-.678.561q-1.809,0-3.618,0c-.406,0-.66-.213-.666-.542s.255-.559.676-.561C385.754,550.319,386.361,550.322,386.969,550.322Z"
        transform="translate(-5.566 -1.979)" fill="#fff" />
    <path id="Path_209" data-name="Path 209"
        d="M386.942,555.362c-.617,0-1.234.006-1.851,0a.553.553,0,0,1-.59-.72.542.542,0,0,1,.552-.379q1.891-.007,3.783,0a.56.56,0,0,1,.6.558.567.567,0,0,1-.613.542C388.194,555.367,387.568,555.362,386.942,555.362Z"
        transform="translate(-5.566 -3.263)" fill="#fff" />
    <path id="Path_210" data-name="Path 210"
        d="M386.926,559.3c-.608,0-1.216,0-1.823,0a.57.57,0,0,1-.625-.466c-.061-.358.213-.635.646-.637,1.04,0,2.081,0,3.121,0,.184,0,.368,0,.553,0a.556.556,0,1,1,.006,1.1C388.178,559.3,387.552,559.3,386.926,559.3Z"
        transform="translate(-5.566 -4.547)" fill="#fff" />
    <path id="Path_211" data-name="Path 211"
        d="M367.959,559.035a.568.568,0,0,1-.545-.551.548.548,0,0,1,1.1,0A.572.572,0,0,1,367.959,559.035Z"
        transform="translate(-0.002 -4.466)" fill="#fff" />
    <path id="Path_212" data-name="Path 212"
        d="M371.794,581.867a.548.548,0,1,1-.556-.541A.566.566,0,0,1,371.794,581.867Z"
        transform="translate(-1.073 -12.093)" fill="#fff" />
  </g>
</svg>
