<svg xmlns="http://www.w3.org/2000/svg" width="22.147" height="25.158" viewBox="0 0 22.147 25.158">
    <g id="Group_2796" data-name="Group 2796" transform="translate(-327.035 -547.259)">
        <path id="Path_198" data-name="Path 198"
            d="M341.152,547.259c.5.109,1.018.176,1.505.332a6.629,6.629,0,1,1-2.779-.29,1.625,1.625,0,0,0,.19-.043Zm-.55,11.792a5.159,5.159,0,1,0-5.161-5.16A5.173,5.173,0,0,0,340.6,559.051Z"
            transform="translate(-2.501)" fill="#fff" />
        <path id="Path_199" data-name="Path 199"
            d="M338.109,580.732H327.947c-.655,0-.922-.272-.912-.928a9.679,9.679,0,0,1,8-9.343,10.574,10.574,0,0,1,1.565-.139c1.058-.021,2.116-.017,3.174,0a9.634,9.634,0,0,1,9.163,7.516,15.568,15.568,0,0,1,.245,2.042.736.736,0,0,1-.832.854Zm9.547-1.487a1.017,1.017,0,0,0,0-.109c0-.057-.006-.114-.014-.171a8.181,8.181,0,0,0-7.327-7.121c-1.147-.108-2.311-.047-3.466-.051a7.775,7.775,0,0,0-1.227.064,8.029,8.029,0,0,0-6.7,5.559,16.494,16.494,0,0,0-.439,1.829Z"
            transform="translate(0 -8.316)" fill="#fff" />
    </g>
</svg>
