<svg xmlns="http://www.w3.org/2000/svg" width="23.152" height="25.589" viewBox="0 0 23.152 25.589">
    <g id="home" transform="translate(-2.5 -1.5)">
        <path id="Path_198" data-name="Path 198"
            d="M14.076,1.5a.608.608,0,0,1,.374.128l10.967,8.53a.609.609,0,0,1,.235.481v13.4a3.05,3.05,0,0,1-3.046,3.046H5.546A3.05,3.05,0,0,1,2.5,24.043v-13.4a.609.609,0,0,1,.235-.481L13.7,1.628A.608.608,0,0,1,14.076,1.5Zm10.358,9.437L14.076,2.881,3.719,10.937V24.043a1.83,1.83,0,0,0,1.828,1.828h17.06a1.83,1.83,0,0,0,1.828-1.828Z"
            fill="#fff" />
        <path id="Path_199" data-name="Path 199"
            d="M16.421,24.9a.609.609,0,0,1-.609-.609V12.719H9.719V24.295a.609.609,0,0,1-1.219,0V12.109a.609.609,0,0,1,.609-.609h7.311a.609.609,0,0,1,.609.609V24.295A.609.609,0,0,1,16.421,24.9Z"
            transform="translate(1.311 2.185)" fill="#fff" />
    </g>
</svg>
