<svg xmlns="http://www.w3.org/2000/svg" width="15.559" height="15.559" viewBox="0 0 15.559 15.559">
    <g id="Group_2804" data-name="Group 2804" transform="translate(0 0)">
        <path id="Path_224" data-name="Path 224"
            d="M1366.192,330.1h-3.161a.538.538,0,0,1-.354-.585c.012-.4,0-.8,0-1.2q0-1.754,0-3.507a1.171,1.171,0,0,0-.019-.153.091.091,0,0,0-.043.077,1.42,1.42,0,0,1-.9,1.354c-.092.04-.079.1-.079.171,0,1.083-.006,2.166,0,3.249a.561.561,0,0,1-.342.592h-3.161a.561.561,0,0,1-.342-.592c.011-1.077,0-2.155,0-3.232a1.479,1.479,0,0,0-.016-.157.114.114,0,0,0-.045.092,1.439,1.439,0,0,1-.889,1.334c-.094.042-.093.1-.093.18,0,.6-.007,1.194,0,1.79a.544.544,0,0,1-.355.585h-3.16a.588.588,0,0,1-.336-.613c.014-.591,0-1.182.006-1.773a.159.159,0,0,0-.114-.178,1.337,1.337,0,0,1-.7-.66,3.941,3.941,0,0,1-.16-.454v-.973a.363.363,0,0,0,.025-.069,2.864,2.864,0,0,1,1.476-2.178c.03-.017.057-.037.086-.055a1.841,1.841,0,0,1-.352-1.245,1.712,1.712,0,0,1,.615-1.133,1.655,1.655,0,0,1,2.089-.006,1.683,1.683,0,0,1,.6,1.025,1.6,1.6,0,0,1-.339,1.342l.7.488a3.12,3.12,0,0,1,1.573-3.4,1.7,1.7,0,0,1,.173-2.308,1.665,1.665,0,0,1,2.111-.119,1.683,1.683,0,0,1,.647,1,1.61,1.61,0,0,1-.325,1.415l.678.469a4.477,4.477,0,0,1,.25-1.968,2.977,2.977,0,0,1,1.35-1.416c-.025-.037-.044-.066-.064-.094a1.689,1.689,0,0,1,.754-2.54c.121-.048.25-.076.375-.113h.486a.365.365,0,0,0,.067.029,1.682,1.682,0,0,1,.987,2.7c.013.018.016.028.024.033s.044.025.066.038a2.884,2.884,0,0,1,1.422,1.877c.03.121.052.244.078.366v3.92c-.011.032-.025.064-.032.1a1.391,1.391,0,0,1-.8.988.214.214,0,0,0-.144.238c0,1.553,0,3.1.006,4.657A.6.6,0,0,1,1366.192,330.1Zm-.58-.916v-.194q0-2.332,0-4.664a.462.462,0,0,1,.448-.51.522.522,0,0,0,.527-.592q0-1.6,0-3.206a3.391,3.391,0,0,0-.028-.423,1.978,1.978,0,0,0-3.891-.119,2.824,2.824,0,0,0-.051.512c0,1.084,0,2.168,0,3.252a.529.529,0,0,0,.453.572c.406.049.525.182.525.591q0,2.294,0,4.588v.193Zm-4.887,0v-3.316c0-.408.118-.543.521-.6a.5.5,0,0,0,.451-.49c0-.7.013-1.408-.008-2.112a1.773,1.773,0,0,0-.512-1.22,1.972,1.972,0,0,0-2.166-.492,1.863,1.863,0,0,0-1.266,1.744c-.021.688-.01,1.377-.006,2.066a.5.5,0,0,0,.47.5c.37.045.5.194.5.567q0,1.58,0,3.16v.184h2.013Zm-4.88-.007v-.168c0-.582,0-1.165,0-1.747a.457.457,0,0,1,.468-.518.527.527,0,0,0,.509-.554c0-.162,0-.324,0-.486a1.991,1.991,0,0,0-1.8-1.947,1.962,1.962,0,0,0-2.091,1.441,4.577,4.577,0,0,0-.08.978.515.515,0,0,0,.505.568.456.456,0,0,1,.467.518q0,.874,0,1.747v.168Zm8.749-12.208a.749.749,0,0,0,.772-.763.764.764,0,0,0-1.528-.012A.743.743,0,0,0,1364.595,316.97Zm-9.753,4.34a.765.765,0,0,0-.772.752.764.764,0,1,0,.772-.752Zm4.115-2.17a.762.762,0,1,0,1.524-.019.762.762,0,0,0-1.524.019Z"
            transform="translate(-1351.939 -314.537)" fill="#fff" />
    </g>
</svg>
