<svg id="Group_2975" data-name="Group 2975" xmlns="http://www.w3.org/2000/svg" width="30.177"
    height="31.631" viewBox="0 0 30.177 31.631">
    <path id="Path_683" data-name="Path 683"
        d="M740.582,446.426a.672.672,0,0,1,.306.658c-.017.284,0,.57,0,.884h6.11c.51,0,.645.131.645.633q0,5.9,0,11.8c0,.517-.14.655-.662.655q-2.085,0-4.169,0a1.346,1.346,0,0,1-.307-.022.428.428,0,0,1-.363-.468.42.42,0,0,1,.436-.431c.453-.011.906-.005,1.359-.005h2.761v-9.339h-5.809v13.388c0,.6-.124.719-.726.719h-.707c.114.612.249,1.2.331,1.8a10.148,10.148,0,0,1-.336,4.215q-.58,2.031-1.142,4.067a2.429,2.429,0,0,0-.082.606c-.011.618,0,1.236-.005,1.853,0,.459-.159.618-.609.618q-2.64,0-5.281,0c-.384,0-.593-.175-.584-.477s.211-.448.583-.448q2.3,0,4.6,0h.364c0-.555-.011-1.077,0-1.6a3.285,3.285,0,0,1,.1-.758c.4-1.457.816-2.909,1.216-4.366a9.244,9.244,0,0,0,.026-4.791c-.173-.687-.355-1.373-.535-2.059a.742.742,0,0,0-.8-.658c-.4.02-.622.246-.7.716-.053.309-.216.456-.49.445s-.422-.178-.434-.492c0-.113,0-.227,0-.34a.677.677,0,0,0-.386-.681.864.864,0,0,0-.962.028,1.07,1.07,0,0,0-.3.54c-.087.347-.224.509-.518.49s-.417-.187-.422-.564c0-.2.009-.392,0-.587a.835.835,0,0,0-1.659.036,3.668,3.668,0,0,1-.035.552.414.414,0,0,1-.464.364.431.431,0,0,1-.421-.418,3.136,3.136,0,0,1-.012-.37q0-2.718,0-5.436c0-.52-.222-.826-.63-.885a.719.719,0,0,0-.838.662c-.009.113-.005.226-.005.339v11.984a2.194,2.194,0,0,1-.01.339.448.448,0,0,1-.5.4.438.438,0,0,1-.418-.452c-.005-.092,0-.185,0-.278,0-1.173,0-2.347,0-3.521a.751.751,0,0,0-.562-.817.728.728,0,0,0-.913.672q-.307,2.606-.607,5.211a2.664,2.664,0,0,0,.882,2.306c.549.527,1.128,1.024,1.715,1.509a1,1,0,0,1,.419.9c-.031.511-.007,1.026-.007,1.579.305,0,.589,0,.873,0,.334,0,.545.184.548.458s-.208.463-.538.466c-.432.005-.865.007-1.3,0a.46.46,0,0,1-.511-.519c-.006-.618.009-1.236-.01-1.853a.613.613,0,0,0-.179-.384c-.384-.357-.78-.7-1.189-1.033a4.061,4.061,0,0,1-1.578-4.09c.241-1.513.367-3.043.549-4.565.028-.232.088-.461.137-.711-.411,0-.822,0-1.232,0-.436,0-.589-.155-.591-.6,0-.957,0-1.914,0-2.872v-.37h-5.861c-.548,0-.682-.131-.682-.666q0-5.884,0-11.767c0-.523.132-.653.657-.653h5.886c0-.288.014-.563,0-.835a.776.776,0,0,1,.271-.706Zm-1.409,17.523h.761V450.782h-14.98v13.171H728.1v-.348c0-2.2,0-4.406,0-6.609a1.651,1.651,0,0,1,3.152-.683.357.357,0,0,0,.392.243q1.991-.013,3.984,0A1.351,1.351,0,0,1,737,457.922c.006.278,0,.556,0,.834a1.375,1.375,0,0,1-1.439,1.436c-.772.005-1.545,0-2.316,0-.386,0-.608-.17-.614-.458s.211-.466.6-.467c.772,0,1.545,0,2.317,0,.366,0,.522-.166.529-.531,0-.216,0-.432,0-.649,0-.468-.137-.606-.6-.606q-1.884,0-3.768,0c-.089,0-.177.012-.268.018v3.448a2.042,2.042,0,0,1,1.372-.076,1.785,1.785,0,0,1,1.054.87,1.936,1.936,0,0,1,2.5.509c.033-.016.07-.031.106-.05a1.686,1.686,0,0,1,2.513,1.064C739.05,463.49,739.111,463.718,739.173,463.949Zm-15.191-3.836v-9.326h-5.564v9.326Zm.967-10.3h14.992v-2.434H724.95Zm15.947.008h5.8v-.9h-5.8Zm-22.49,0h5.578v-.9h-5.578Z"
        transform="translate(-717.463 -446.426)" fill="#20a6ed" />
    <path id="Path_684" data-name="Path 684"
        d="M752.817,455.763c.432,0,.864,0,1.3,0,.345,0,.535.171.533.459s-.2.461-.538.464q-1.3.009-2.591,0c-.339,0-.535-.186-.535-.468s.2-.451.539-.455C751.953,455.76,752.385,455.763,752.817,455.763Z"
        transform="translate(-726.63 -448.979)" fill="#20a6ed" />
    <path id="Path_685" data-name="Path 685"
        d="M752.819,459.426c-.432,0-.864,0-1.3,0-.339,0-.538-.177-.541-.458s.2-.464.532-.466q1.3-.007,2.591,0c.339,0,.538.175.541.457s-.2.464-.531.467C753.683,459.429,753.251,459.426,752.819,459.426Z"
        transform="translate(-726.63 -449.727)" fill="#20a6ed" />
    <path id="Path_686" data-name="Path 686"
        d="M732.087,453.638c.575,0,1.151,0,1.727,0,.381,0,.55.165.554.541q.01.972,0,1.943c0,.376-.176.549-.549.55q-1.743.007-3.485,0c-.378,0-.543-.166-.547-.547q-.009-.971,0-1.943c0-.389.159-.543.543-.546C730.915,453.634,731.5,453.638,732.087,453.638Zm1.335,2.1v-1.152h-2.69v1.152Z"
        transform="translate(-720.832 -448.398)" fill="#20a6ed" />
    <path id="Path_687" data-name="Path 687"
        d="M740.919,455.092c.782,0,1.565,0,2.347,0,.345,0,.548.166.559.442s-.207.482-.556.482q-2.362.005-4.724,0c-.351,0-.568-.2-.559-.48s.217-.443.557-.445C739.334,455.09,740.126,455.092,740.919,455.092Z"
        transform="translate(-723.076 -448.796)" fill="#20a6ed" />
    <path id="Path_688" data-name="Path 688"
        d="M721.886,455.763c.432,0,.864,0,1.3,0,.327,0,.512.166.52.441a.465.465,0,0,1-.521.481q-1.31.011-2.621,0a.467.467,0,0,1-.523-.48c.009-.268.2-.437.524-.441C721,455.759,721.444,455.763,721.886,455.763Z"
        transform="translate(-718.167 -448.979)" fill="#20a6ed" />
    <path id="Path_689" data-name="Path 689"
        d="M721.858,458.5c.432,0,.864,0,1.3,0,.342,0,.541.17.548.45s-.2.474-.555.475q-1.28,0-2.561,0c-.339,0-.543-.174-.55-.451s.2-.471.557-.474C721.015,458.5,721.437,458.5,721.858,458.5Z"
        transform="translate(-718.167 -449.728)" fill="#20a6ed" />
    <path id="Path_690" data-name="Path 690"
        d="M736.894,449.736c-.874,0-1.749.013-2.621-.013a.674.674,0,0,1-.458-.277.458.458,0,0,1,.052-.44.735.735,0,0,1,.484-.188c1.522-.014,3.043-.008,4.565-.008h.525c.394,0,.6.158.6.456s-.2.469-.591.469C738.6,449.737,737.747,449.736,736.894,449.736Z"
        transform="translate(-721.926 -447.078)" fill="#20a6ed" />
</svg>
