<svg xmlns="http://www.w3.org/2000/svg" width="30.966" height="31.487" viewBox="0 0 30.966 31.487">
    <g id="Group_3044" data-name="Group 3044" transform="translate(-997.827 -135.602)">
        <path id="Path_701" data-name="Path 701"
            d="M1021.8,135.6c.176.051.354.094.526.156a2.666,2.666,0,0,1,1.713,2.971h-1.014c0-.119,0-.237,0-.355a1.592,1.592,0,0,0-1.722-1.725h-17.95c-.932,0-1.865,0-2.8,0a1.575,1.575,0,0,0-1.673,1.649q-.008,8.329,0,16.659a1.6,1.6,0,0,0,1.174,1.594l-.243.963a2.493,2.493,0,0,1-1.932-2.035,4.591,4.591,0,0,1-.05-.7q0-8.146,0-16.291a2.646,2.646,0,0,1,2.212-2.853.21.21,0,0,0,.052-.032Z"
            transform="translate(0 0)" fill="#20a6ed" />
        <path id="Path_702" data-name="Path 702"
            d="M1024.763,154.144V151h1.047v.326q0,2.275,0,4.55a1.244,1.244,0,0,0,.062.419,7.156,7.156,0,0,1,.388,3.475.731.731,0,0,0,.008.114h.566v1.048h-.767c-.212.476-.421.918-.6,1.37-.029.073.052.224.124.3q1.807,1.822,3.627,3.633c.362.362.727.721,1.086,1.088a.542.542,0,0,1,0,.88q-.71.724-1.434,1.435a.542.542,0,0,1-.9-.017q-2.274-2.269-4.545-4.54c-.072-.071-.147-.14-.232-.221a7.784,7.784,0,0,1-2.365,1.09,7.321,7.321,0,0,1-8.781-4.708.367.367,0,0,0-.427-.3c-2.142.01-4.283.006-6.425.006h-.355V159.9h6.882c0-.745-.028-1.459.012-2.17a3.758,3.758,0,0,1,.255-1.1,3.1,3.1,0,0,0,.171-1.141c-.007-1.558,0-3.115,0-4.672v-.35h1.033v3.746c.346-.32.685-.623,1.007-.945.057-.057.053-.19.054-.287q0-1.6,0-3.2v-.36h1.036v3.05c.35-.159.666-.29.968-.45.06-.032.089-.171.09-.262.007-.593,0-1.185,0-1.8h1.046v1.7l1.042-.145v-3.657h1.07v3.654l1.035.149V146.8h1.064v.363c0,1.516,0,3.032-.005,4.549a.337.337,0,0,0,.254.382c.257.093.5.23.783.365V148.9h1.066v.327c0,1.219,0,2.439,0,3.658a.612.612,0,0,0,.237.554C1024.237,153.668,1024.505,153.921,1024.763,154.144Zm-12.067,4.677a6.291,6.291,0,1,0,6.31-6.278A6.287,6.287,0,0,0,1012.7,158.821Zm16.512,8.961-4.424-4.425-.73.806,4.385,4.385Z"
            transform="translate(-1.74 -2.777)" fill="#20a6ed" />
        <path id="Path_703" data-name="Path 703"
            d="M1011.447,162.174v1.036c-.114.005-.214.014-.314.014-2.122,0-4.242,0-6.363,0a2.615,2.615,0,0,1-2.675-2.045,3.538,3.538,0,0,1-.073-.793q-.007-8.191,0-16.384a2.628,2.628,0,0,1,2-2.737,3.4,3.4,0,0,1,.791-.083q10.328-.007,20.657,0a2.627,2.627,0,0,1,2.779,2.774q0,8.253,0,16.507a2.759,2.759,0,0,1-.655,1.868l-.788-.69a2.113,2.113,0,0,0,.395-1.563q-.007-8.023,0-16.046a1.606,1.606,0,0,0-1.8-1.8h-20.534a1.6,1.6,0,0,0-1.8,1.8q0,8.177,0,16.353a1.6,1.6,0,0,0,1.8,1.794q3.089,0,6.178,0Z"
            transform="translate(-1.039 -1.382)" fill="#20a6ed" />
        <path id="Path_704" data-name="Path 704" d="M1010.04,160.73h-1.014v-6.266h1.014Z"
            transform="translate(-2.776 -4.676)" fill="#20a6ed" />
        <path id="Path_705" data-name="Path 705" d="M1011.812,156.551h1.015v4.692h-1.015Z"
            transform="translate(-3.467 -5.193)" fill="#20a6ed" />
        <path id="Path_706" data-name="Path 706" d="M1006.251,158.653h1v3.109h-1Z"
            transform="translate(-2.088 -5.715)" fill="#20a6ed" />
        <path id="Path_707" data-name="Path 707" d="M1001.667,138.407v1.009h-1.02v-1.009Z"
            transform="translate(-0.699 -0.695)" fill="#20a6ed" />
        <path id="Path_708" data-name="Path 708" d="M1003.438,139.423v-1.009h1.011v1.009Z"
            transform="translate(-1.391 -0.697)" fill="#20a6ed" />
        <path id="Path_709" data-name="Path 709" d="M1006.233,139.425v-1.007h1.013v1.007Z"
            transform="translate(-2.084 -0.698)" fill="#20a6ed" />
        <path id="Path_710" data-name="Path 710" d="M1010.427,143.99h1.007v1.02h-1.007Z"
            transform="translate(-3.124 -2.079)" fill="#20a6ed" />
        <path id="Path_711" data-name="Path 711" d="M1005.859,145.015h-1.007V144h1.007Z"
            transform="translate(-1.741 -2.081)" fill="#20a6ed" />
        <path id="Path_712" data-name="Path 712" d="M1007.628,145.005V144h1.018v1.009Z"
            transform="translate(-2.43 -2.081)" fill="#20a6ed" />
        <path id="Path_713" data-name="Path 713"
            d="M1021.917,155.834a5.245,5.245,0,1,1-5.237,5.265A5.244,5.244,0,0,1,1021.917,155.834Zm.52,1.13v4.11h-1.042V156.9c-.3.074-.532.138-.771.191-.211.047-.289.153-.286.383.014,1.085.006,2.171.005,3.257,0,.108-.011.217-.017.334h-1.033v-3.214a4.032,4.032,0,0,0-1.4,4.265h8.065a4.015,4.015,0,0,0-1.418-4.248v3.195H1023.5v-3.055c0-.936-.024-.963-.954-1.072A.5.5,0,0,0,1022.436,156.964Zm3.109,6.239h-7.25a4.214,4.214,0,0,0,7.25,0Z"
            transform="translate(-4.674 -5.016)" fill="#20a6ed" />
    </g>
</svg>
