<svg id="Component_8_1" data-name="Component 8 – 1" xmlns="http://www.w3.org/2000/svg" width="231.1" height="277.346" viewBox="0 0 231.1 277.346">
  <g id="Group_8125" data-name="Group 8125" transform="translate(176.481 -0.001) rotate(77)" opacity="0.5">
    <g id="Group_7951" data-name="Group 7951" transform="translate(2.612 24.123)" opacity="0.5">
      <g id="Group_7950" data-name="Group 7950" transform="translate(0 0)">
        <g id="Group_7949" data-name="Group 7949">
          <g id="Group_7948" data-name="Group 7948">
            <path id="Path_7496" data-name="Path 7496" d="M156.021,130.989a60.548,60.548,0,0,1-29.546-14.509c-13.05-11.414-40.36-30.836-66.413-21.164-35.934,13.344-36.095,51.946-26.735,72.913s75.735,82.379,161.785,72.609c77-8.743,92.008-108.823,50.937-126.933C210.432,98.2,198.28,138.219,156.021,130.989Z" transform="translate(-28.112 -92.699)" fill="#20a6ed"/>
          </g>
        </g>
      </g>
    </g>
    <g id="Group_7955" data-name="Group 7955" transform="translate(0 0.005)">
      <g id="Group_7954" data-name="Group 7954">
        <g id="Group_7953" data-name="Group 7953">
          <g id="Group_7952" data-name="Group 7952">
            <path id="Path_7497" data-name="Path 7497" d="M258.568,108.487c0-28-19.906-58.69-44.676-60.543q-.653-.049-1.318-.085c-35.51-1.939-38.216,48.8-70.344,54.525s-56.662-23.17-95.106-4.321C12.6,114.991,3.245,210.118,104.691,213.933,185.858,216.985,258.58,192.036,258.568,108.487Z" transform="translate(-23.249 -47.805)" fill="#20a6ed"/>
          </g>
        </g>
      </g>
    </g>
    <g id="Group_7963" data-name="Group 7963" transform="translate(51.849 9.504)">
      <g id="Group_7962" data-name="Group 7962" transform="translate(0 0)">
        <g id="Group_7961" data-name="Group 7961">
          <g id="Group_7960" data-name="Group 7960">
            <circle id="Ellipse_1194" data-name="Ellipse 1194" cx="5.54" cy="5.54" r="5.54" transform="translate(0 7.301) rotate(-41.229)" fill="#20a6ed"/>
          </g>
        </g>
      </g>
    </g>
    <g id="Group_7963-2" data-name="Group 7963" transform="translate(197.73 165.49)">
      <g id="Group_7962-2" data-name="Group 7962" transform="translate(0 0)">
        <g id="Group_7961-2" data-name="Group 7961">
          <g id="Group_7960-2" data-name="Group 7960">
            <circle id="Ellipse_1194-2" data-name="Ellipse 1194" cx="5.54" cy="5.54" r="5.54" transform="translate(0 7.301) rotate(-41.229)" fill="#20a6ed"/>
          </g>
        </g>
      </g>
    </g>
    <g id="Group_7963-3" data-name="Group 7963" transform="translate(219.687 150.745)">
      <g id="Group_7962-3" data-name="Group 7962" transform="translate(0 0)">
        <g id="Group_7961-3" data-name="Group 7961">
          <g id="Group_7960-3" data-name="Group 7960">
            <circle id="Ellipse_1194-3" data-name="Ellipse 1194" cx="7.995" cy="7.995" r="7.995" transform="translate(0 10.537) rotate(-41.229)" fill="#20a6ed"/>
          </g>
        </g>
      </g>
    </g>
    <g id="Group_7963-4" data-name="Group 7963" transform="translate(77.071 9.504)">
      <g id="Group_7962-4" data-name="Group 7962" transform="translate(0 0)">
        <g id="Group_7961-4" data-name="Group 7961">
          <g id="Group_7960-4" data-name="Group 7960">
            <circle id="Ellipse_1194-4" data-name="Ellipse 1194" cx="7.995" cy="7.995" r="7.995" transform="translate(0 10.537) rotate(-41.229)" fill="#20a6ed"/>
          </g>
        </g>
      </g>
    </g>
  </g>
  <g id="Group_2924" data-name="Group 2924" transform="translate(412.661 -16.385)">
    <g id="Group_2917" data-name="Group 2917" transform="translate(-352.058 54.031)">
      <g id="Group_2903" data-name="Group 2903" transform="translate(0 6.274)">
        <g id="Group_2900" data-name="Group 2900" transform="translate(0.117 0.094)">
          <path id="Path_636" data-name="Path 636" d="M-342.4,66.537a39.289,39.289,0,0,0,1.291,43.012c5.951,8.226,14.88,13.74,21.969,21.008s12.474,17.98,8.732,27.419c-3.809,9.609-14.964,13.518-23.318,19.6a44.58,44.58,0,0,0-17.449,27.957,44.58,44.58,0,0,0,6.818,32.243h86.777s15.244-29.052-4.355-51.192-30.125-22.5-29.4-37.02,10.888-19.236,16.7-24.68,34.117-18.148,17.421-58.351Z" transform="translate(351.828 -66.537)" fill="#fafafa"/>
        </g>
        <g id="Group_2902" data-name="Group 2902">
          <g id="Group_2901" data-name="Group 2901">
            <path id="Path_637" data-name="Path 637" d="M-342.513,66.446s.5-.008,1.494-.012l4.4-.012,16.933-.024,62.358-.046h.064l.023.058a80.834,80.834,0,0,1,3.233,9.4,54.761,54.761,0,0,1,1.844,10.211,40.515,40.515,0,0,1-.55,10.779,34.616,34.616,0,0,1-3.922,10.478,38.2,38.2,0,0,1-3.268,4.743,44.221,44.221,0,0,1-4,4.277,59.08,59.08,0,0,1-4.538,3.841c-1.579,1.222-3.227,2.376-4.836,3.6-.807.608-1.542,1.29-2.311,1.973s-1.566,1.317-2.369,1.957c-1.6,1.283-3.223,2.565-4.752,3.969a25.387,25.387,0,0,0-7.127,10.222,24.854,24.854,0,0,0-1.357,6.249c-.043.537-.115,1.072-.135,1.611s-.041,1.079-.015,1.62a18.407,18.407,0,0,0,.325,3.228,14.759,14.759,0,0,0,2.6,5.945,33.031,33.031,0,0,0,4.5,4.872c3.295,3.012,6.789,5.888,10.137,8.993q5.046,4.63,9.776,9.772a58.809,58.809,0,0,1,4.513,5.366,37.7,37.7,0,0,1,3.638,6.065,39.824,39.824,0,0,1,3.737,13.761,50.41,50.41,0,0,1-.845,14.466,59.422,59.422,0,0,1-1.862,7.1,51.754,51.754,0,0,1-2.755,6.854l-.036.071h-2.316l-84.543-.006h-.068l-.037-.056a44.747,44.747,0,0,1-7.267-20.484,43.186,43.186,0,0,1,3-20.676,45.015,45.015,0,0,1,11.471-16.385,52.131,52.131,0,0,1,7.831-5.712c2.709-1.682,5.442-3.237,8.025-4.94a36.751,36.751,0,0,0,7.064-5.746,19.3,19.3,0,0,0,4.371-7.576,18.852,18.852,0,0,0,.345-8.458,27.549,27.549,0,0,0-2.682-7.775,38.032,38.032,0,0,0-4.367-6.635,52.907,52.907,0,0,0-5.286-5.515c-3.673-3.382-7.433-6.339-10.817-9.379-1.695-1.516-3.3-3.047-4.779-4.62a43.071,43.071,0,0,1-3.961-4.883,37.221,37.221,0,0,1-4.965-10.291,38.421,38.421,0,0,1-1.689-9.747c-.071-.758-.043-1.5-.042-2.227s-.012-1.434.063-2.123q.079-1.033.155-2.015c.078-.651.186-1.281.273-1.9a36.2,36.2,0,0,1,3.4-10.807,14.7,14.7,0,0,1,.785-1.513l.623-1.062c.335-.568.507-.852.507-.852l-.492.869-.611,1.064a14.843,14.843,0,0,0-.772,1.514,36.415,36.415,0,0,0-3.359,10.8c-.086.614-.191,1.242-.268,1.892q-.073.978-.15,2.01c-.073.686-.05,1.394-.058,2.118s-.026,1.465.047,2.221a38.346,38.346,0,0,0,1.7,9.716,37.109,37.109,0,0,0,4.963,10.246,42.931,42.931,0,0,0,3.954,4.861c1.476,1.567,3.081,3.092,4.775,4.6,3.383,3.031,7.145,5.985,10.83,9.369a53.068,53.068,0,0,1,5.308,5.528,38.155,38.155,0,0,1,4.4,6.663,27.727,27.727,0,0,1,2.707,7.828,19.039,19.039,0,0,1-.343,8.547,19.509,19.509,0,0,1-4.412,7.663,36.945,36.945,0,0,1-7.1,5.784c-2.59,1.709-5.323,3.267-8.027,4.948a51.917,51.917,0,0,0-7.8,5.692,44.79,44.79,0,0,0-11.4,16.305,42.948,42.948,0,0,0-2.977,20.562,44.5,44.5,0,0,0,7.232,20.366l-.1-.056,84.543-.006h2.234l-.117.071a51.584,51.584,0,0,0,2.738-6.814,59.213,59.213,0,0,0,1.854-7.066,50.138,50.138,0,0,0,.842-14.39,39.55,39.55,0,0,0-3.71-13.672,37.423,37.423,0,0,0-3.613-6.026,58.681,58.681,0,0,0-4.493-5.343q-4.712-5.132-9.759-9.759c-3.343-3.1-6.831-5.973-10.135-9a33.206,33.206,0,0,1-4.533-4.913,15,15,0,0,1-2.645-6.043,18.745,18.745,0,0,1-.329-3.271c-.025-.547.006-1.091.017-1.636s.093-1.084.136-1.624a25.07,25.07,0,0,1,1.373-6.308,25.623,25.623,0,0,1,7.195-10.315c1.538-1.411,3.164-2.7,4.766-3.977.8-.64,1.595-1.285,2.363-1.95s1.511-1.37,2.322-1.981c1.618-1.224,3.262-2.375,4.838-3.593a58.727,58.727,0,0,0,4.523-3.824,43.994,43.994,0,0,0,3.979-4.252,37.951,37.951,0,0,0,3.252-4.712,34.413,34.413,0,0,0,3.9-10.409,40.356,40.356,0,0,0,.555-10.722,54.6,54.6,0,0,0-1.83-10.175,80.756,80.756,0,0,0-3.217-9.376l.087.058-62.32-.046L-336.6,66.47l-4.41-.012C-342,66.454-342.513,66.446-342.513,66.446Z" transform="translate(352.058 -66.352)" fill="#263238"/>
          </g>
        </g>
      </g>
      <g id="Group_2904" data-name="Group 2904" transform="translate(8.17 22.393)">
        <path id="Path_638" data-name="Path 638" d="M-252.918,105.556c12.781,2.1-7.371,24.738-18.777,33.669-6.605,5.172-13.7,10.781-16.835,18.562-3.559,8.827-.921,18.749-2.646,27.629a1.234,1.234,0,0,1-2.444-.259,96.161,96.161,0,0,0-1.036-17.392c-1.37-8.138-4.5-16.19-10.2-22.154-4.656-4.868-10.761-8.1-15.728-12.655-7.251-6.645-14.7-15.216-15.426-25.025,0,0,13.922-11.214,21.65-9.8,9.031,1.654,17.923,15.59,31.917,13.995C-272.674,111.011-267.743,103.119-252.918,105.556Z" transform="translate(336.012 -98.007)" fill="#ff8b17"/>
      </g>
      <g id="Group_2905" data-name="Group 2905" transform="translate(4.698 136.073)">
        <path id="Path_639" data-name="Path 639" d="M-255.129,336.292c-.323-3.2-1.175-6.813-4.012-8.321a7.918,7.918,0,0,0-5.693-.317c-1.882.495-3.65,1.35-5.516,1.9a18.075,18.075,0,0,1-11.286-.357c-3.468-1.274-6.444-3.577-9.664-5.387s-6.989-3.16-10.574-2.267c-6.182,1.538-9.4,8.981-15.51,10.777-2.717.8-5.634.35-8.4-.275s-5.533-1.428-8.362-1.323a9.279,9.279,0,0,0-6.078,2.369l.016-.021c-.016.015-.029.033-.045.048a6.317,6.317,0,0,0-.7.821c-1.9,2.527-2.2,5.925-1.616,9.011a32.227,32.227,0,0,0,4,9.708c2.04,3.6,4.358,7.193,7.731,9.6,4.161,2.964,9.4.919,14.488,1.32,11.881.937,24.664,1.577,36.546.656,6.277-.486,12.16.193,17.14-3.657a20.254,20.254,0,0,0,6.882-11.083A37.924,37.924,0,0,0-255.129,336.292Z" transform="translate(342.83 -321.264)" fill="#ff8b17"/>
      </g>
      <g id="Group_2906" data-name="Group 2906" transform="translate(1.217 175.351)">
        <path id="Path_640" data-name="Path 640" d="M-349.666,404.6s-.239-3.983,4.955-6.2h91.274s4.76,2.408,5.345,6.117Z" transform="translate(349.667 -398.403)" fill="#263238"/>
      </g>
      <g id="Group_2907" data-name="Group 2907" transform="translate(7.529)">
        <path id="Path_641" data-name="Path 641" d="M-249.287,60.884l-.144.067-85.825-.552s-.3-.2-.761-.552a3.254,3.254,0,0,1,2.031-5.816l83.3.673A3.254,3.254,0,0,1-249.287,60.884Z" transform="translate(337.271 -54.031)" fill="#263238"/>
      </g>
      <g id="Group_2909" data-name="Group 2909" transform="translate(24.913 38.517)" opacity="0.24">
        <g id="Group_2908" data-name="Group 2908">
          <path id="Path_642" data-name="Path 642" d="M-246.267,130.749c.173.331-.471,1.047-1.7,2.139s-3.036,2.593-5.327,4.44a69.547,69.547,0,0,1-8.647,6.1,34.972,34.972,0,0,1-5.929,2.721,27.749,27.749,0,0,1-3.407.942,22.493,22.493,0,0,1-3.681.479,19.685,19.685,0,0,1-7.4-1.011,26.733,26.733,0,0,1-5.945-3.035c-1.711-1.135-3.186-2.255-4.576-3.326s-2.646-2.11-3.774-3.084c-4.508-3.906-6.879-6.778-6.422-7.333.473-.576,3.664,1.251,8.637,4.307l4.062,2.494c1.458.888,3.026,1.868,4.625,2.775a25.772,25.772,0,0,0,5.013,2.265,16,16,0,0,0,5.519.65,29.231,29.231,0,0,0,10.989-3.163c3.3-1.617,6.257-3.446,8.834-4.888a44.547,44.547,0,0,1,6.377-3.11C-247.414,130.535-246.432,130.431-246.267,130.749Z" transform="translate(303.131 -129.674)"/>
        </g>
      </g>
      <g id="Group_2910" data-name="Group 2910" transform="translate(49.726 120.371)">
        <path id="Path_643" data-name="Path 643" d="M-253.5,290.5a1.52,1.52,0,0,1,1.9,1.6,1.52,1.52,0,0,1-2.321.889,1.52,1.52,0,0,1,.347-2.462" transform="translate(254.402 -290.428)" fill="#e8505b"/>
      </g>
      <g id="Group_2912" data-name="Group 2912" transform="translate(7.855 15.003)">
        <g id="Group_2911" data-name="Group 2911">
          <path id="Path_644" data-name="Path 644" d="M-324.556,122.288a2.5,2.5,0,0,1-.3-.305l-.831-.912c-.351-.4-.814-.872-1.286-1.469l-1.621-2.017c-.554-.783-1.182-1.626-1.814-2.56l-.93-1.481c-.157-.256-.327-.51-.48-.779l-.448-.826a34.336,34.336,0,0,1-3.162-7.612,31.955,31.955,0,0,1-1.2-8.157c0-.635.033-1.254.047-1.856.014-.3.009-.6.039-.888s.061-.576.091-.857c.065-.561.109-1.1.184-1.623l.268-1.483c.146-.95.4-1.783.576-2.523.1-.368.175-.715.272-1.026s.193-.591.277-.848l.392-1.17a2.6,2.6,0,0,1,.154-.4,2.623,2.623,0,0,1-.1.419l-.344,1.183-.255.852c-.09.313-.159.66-.249,1.028-.166.741-.4,1.573-.536,2.521q-.119.707-.25,1.478c-.069.516-.109,1.057-.168,1.615l-.084.852c-.027.288-.02.584-.032.882-.01.6-.041,1.212-.036,1.842a32.391,32.391,0,0,0,1.211,8.089,34.876,34.876,0,0,0,3.121,7.567l.44.824c.15.268.318.521.473.778l.914,1.48c.621.935,1.238,1.782,1.78,2.568l1.586,2.036c.46.6.911,1.081,1.25,1.495l.793.944A2.7,2.7,0,0,1-324.556,122.288Z" transform="translate(336.631 -83.496)" fill="#263238"/>
        </g>
      </g>
      <g id="Group_2914" data-name="Group 2914" transform="translate(15.097 70.583)">
        <g id="Group_2913" data-name="Group 2913">
          <path id="Path_645" data-name="Path 645" d="M-322.408,251.507a1.018,1.018,0,0,1,.1-.168l.3-.479.5-.774.321-.493c.125-.169.272-.338.42-.522l1-1.221c.392-.422.842-.859,1.312-1.341a35.439,35.439,0,0,1,3.5-2.942c2.7-2.048,6.19-4.084,9.969-6.46a57.49,57.49,0,0,0,5.717-4.028,26.855,26.855,0,0,0,5.13-5.421A25.65,25.65,0,0,0-290,214a32.373,32.373,0,0,0-1.952-11.607,43.226,43.226,0,0,0-3.373-7.233c-.472-.818-.859-1.442-1.125-1.862l-.3-.48a1.1,1.1,0,0,1-.095-.169,1.057,1.057,0,0,1,.117.154l.322.466c.281.411.683,1.026,1.17,1.838a41.368,41.368,0,0,1,3.46,7.222A32.225,32.225,0,0,1-289.753,214a26.612,26.612,0,0,1-.281,3.435,25.113,25.113,0,0,1-.745,3.516,24,24,0,0,1-3.146,6.854,26.984,26.984,0,0,1-5.186,5.474,56.959,56.959,0,0,1-5.75,4.032c-3.794,2.369-7.282,4.383-9.988,6.4a36.042,36.042,0,0,0-3.5,2.9c-.473.474-.926.9-1.321,1.319l-1.012,1.2c-.151.181-.3.347-.428.513l-.33.484-.52.758-.325.464A1.058,1.058,0,0,1-322.408,251.507Z" transform="translate(322.409 -192.648)" fill="#263238"/>
        </g>
      </g>
      <g id="Group_2916" data-name="Group 2916" transform="translate(6.046 138.439)">
        <g id="Group_2915" data-name="Group 2915">
          <path id="Path_646" data-name="Path 646" d="M-335.868,325.911a.979.979,0,0,1-.112.236l-.363.648c-.164.277-.358.619-.555,1.033s-.454.866-.669,1.4l-.358.828c-.123.288-.224.6-.343.916-.249.629-.442,1.325-.662,2.052a30.235,30.235,0,0,0-.89,4.853,30.2,30.2,0,0,0-.009,4.935c.085.755.148,1.475.278,2.138.06.333.1.657.17.963l.2.879c.114.564.281,1.058.4,1.5s.246.814.357,1.117l.238.7a.962.962,0,0,1,.067.253.994.994,0,0,1-.116-.233l-.286-.687a10.708,10.708,0,0,1-.4-1.107c-.137-.438-.317-.932-.444-1.5l-.22-.882c-.074-.308-.122-.633-.187-.968-.141-.668-.212-1.393-.3-2.153a28.967,28.967,0,0,1-.012-4.981,28.9,28.9,0,0,1,.918-4.895c.229-.731.431-1.431.691-2.062.125-.317.231-.629.359-.918l.377-.827c.228-.533.494-.985.709-1.392a10.692,10.692,0,0,1,.6-1.016l.406-.624A.971.971,0,0,1-335.868,325.911Z" transform="translate(340.184 -325.911)" fill="#263238"/>
        </g>
      </g>
    </g>
    <g id="Group_2919" data-name="Group 2919" transform="translate(-325.924 204.707)">
      <g id="Group_2918" data-name="Group 2918">
        <path id="Path_647" data-name="Path 647" d="M-253.551,349.943a.443.443,0,0,1-.1.075l-.318.2-1.235.742-.9.531c-.334.184-.709.358-1.106.56-.8.386-1.69.878-2.739,1.275l-1.627.668c-.568.227-1.18.4-1.8.619-1.24.453-2.612.775-4.046,1.149a51.819,51.819,0,0,1-9.549,1.225,51.75,51.75,0,0,1-9.6-.725c-1.452-.3-2.839-.549-4.1-.936-.633-.183-1.254-.326-1.833-.524l-1.659-.581c-1.068-.341-1.982-.786-2.8-1.13-.407-.18-.791-.335-1.133-.5l-.923-.484-1.272-.677-.327-.182a.464.464,0,0,1-.107-.07.46.46,0,0,1,.121.046l.34.158,1.293.631.93.461c.345.159.731.307,1.139.48.823.33,1.738.761,2.806,1.089l1.658.563c.577.192,1.2.33,1.829.507,1.258.376,2.64.618,4.085.908a52.807,52.807,0,0,0,9.553.7,52.809,52.809,0,0,0,9.5-1.2c1.428-.366,2.8-.678,4.032-1.12.621-.21,1.232-.38,1.8-.6l1.626-.649c1.049-.383,1.941-.862,2.745-1.234.4-.194.777-.362,1.113-.538l.905-.51,1.258-.7.331-.176A.459.459,0,0,1-253.551,349.943Z" transform="translate(300.733 -349.943)" fill="#263238"/>
      </g>
    </g>
    <g id="Group_2921" data-name="Group 2921" transform="translate(-322.852 96.942)">
      <g id="Group_2920" data-name="Group 2920">
        <path id="Path_648" data-name="Path 648" d="M-245.28,138.3a.6.6,0,0,1-.108.1l-.334.275-1.3,1.037c-1.133.9-2.771,2.2-4.84,3.742a70.276,70.276,0,0,1-7.574,5.007,34.4,34.4,0,0,1-4.879,2.245,22.244,22.244,0,0,1-5.63,1.252,21.435,21.435,0,0,1-10.818-2.25,36.846,36.846,0,0,1-4.178-2.485c-1.243-.877-2.378-1.726-3.383-2.54-2.016-1.618-3.6-2.986-4.693-3.925l-1.258-1.087-.323-.288a.6.6,0,0,1-.1-.1.607.607,0,0,1,.122.085l.34.267,1.29,1.049c1.118.915,2.716,2.262,4.743,3.858,1.01.8,2.148,1.64,3.391,2.505a37.245,37.245,0,0,0,4.161,2.447,21.339,21.339,0,0,0,10.691,2.205,22.138,22.138,0,0,0,5.562-1.233,34.691,34.691,0,0,0,4.849-2.214,73.019,73.019,0,0,0,7.58-4.944c2.082-1.526,3.736-2.8,4.889-3.673l1.331-1,.35-.255A.637.637,0,0,1-245.28,138.3Z" transform="translate(294.701 -138.303)" fill="#263238"/>
      </g>
    </g>
    <g id="Group_2923" data-name="Group 2923" transform="translate(-319.353 207.305)" opacity="0.24">
      <g id="Group_2922" data-name="Group 2922">
        <path id="Path_649" data-name="Path 649" d="M-287.83,356.725c2.413-1.863,5.8-1.411,8.786-.784s5.988,1.647,9.007,1.224c2.275-.318,4.362-1.437,6.608-1.924s4.969-.127,6.214,1.8a48.37,48.37,0,0,1-30.615-.32" transform="translate(287.83 -355.046)"/>
      </g>
    </g>
  </g>
</svg>
