<svg id="Group_2976" data-name="Group 2976" xmlns="http://www.w3.org/2000/svg" width="31.69"
    height="31.628" viewBox="0 0 31.69 31.628">
    <path id="Path_691" data-name="Path 691"
        d="M681.668,446.426h.867a1.125,1.125,0,0,0,.171.057,3.361,3.361,0,0,1,2.8,2.872,20.686,20.686,0,0,1,.06,2.557,3.109,3.109,0,0,1-1.183,2.543,1.173,1.173,0,0,0-.5,1.165c.015.165.047.254.217.308.776.244,1.542.519,2.321.75a3.325,3.325,0,0,1,2.023,1.467c.007.012.036.01.065.017l.183-.2a3.453,3.453,0,0,1,3.711-.909,3.4,3.4,0,0,1,2.276,3.056c.033.8.032,1.606,0,2.408a3.092,3.092,0,0,1-1.237,2.422,1.043,1.043,0,0,0-.45.972.429.429,0,0,0,.372.483q1.3.4,2.581.849a2.907,2.907,0,0,1,1.937,2.152c.017.067.045.131.068.2v1.3c-.141.228-.327.387-.61.292s-.333-.333-.32-.6c.009-.195.009-.392,0-.586a1.863,1.863,0,0,0-1.143-1.764c-.959-.391-1.958-.682-2.951-1.02a1.813,1.813,0,0,1-3.383.006c-.976.326-1.939.625-2.884.973a1.808,1.808,0,0,0-1.073,1.134c.448.152.883.278,1.3.445A2.859,2.859,0,0,1,688.8,472.3c.024.241,0,.487,0,.74h5.6a8.9,8.9,0,0,1,.015-1.128.632.632,0,0,1,.318-.424.539.539,0,0,1,.456.129.658.658,0,0,1,.129.422c.018.333.006.669.006,1h1.683c.01-.267.07-.487.344-.574s.438.089.6.269v.926a.622.622,0,0,1-.64.328q-4.053-.01-8.107,0h-.381c0,.177,0,.3,0,.421s.005.247,0,.37a.468.468,0,0,1-.456.487.463.463,0,0,1-.464-.477c-.009-.113,0-.226,0-.339-.007-.711.017-1.423-.027-2.13a1.752,1.752,0,0,0-1.1-1.593c-.968-.392-1.976-.688-2.972-1.027a1.805,1.805,0,0,1-3.374.012c-.857.28-1.689.551-2.52.825a2.054,2.054,0,0,0-1.582,2.186q0,2.024,0,4.046v.329h1.7c0-.879,0-1.733,0-2.586,0-.362.174-.567.466-.565s.458.214.461.575c0,.453,0,.906,0,1.359v1.22h6.307c.006-.062.012-.1.012-.142,0-.834,0-1.668,0-2.5a.464.464,0,1,1,.924,0c.007.308,0,.618,0,.926,0,.572,0,1.146,0,1.731h1.677c.01-.06.018-.109.028-.158.059-.3.238-.464.493-.445s.413.206.429.513c.007.134,0,.268,0,.4-.006.481-.151.626-.631.627h-12.16c-.5,0-.642-.145-.642-.645,0-1.019,0-2.039,0-3.058,0-.109-.01-.219-.017-.359h-.393q-4.039,0-8.077,0a.62.62,0,0,1-.639-.328v-.926c.15-.173.3-.347.566-.278.3.078.368.32.376.58h1.68c0-.348,0-.675,0-1,.005-.379.187-.6.479-.591s.444.217.448.586c0,.335,0,.671,0,1.012h5.561c.006-.115.015-.215.016-.315a2.971,2.971,0,0,1,2.283-3.088c.318-.1.631-.214.957-.326a2,2,0,0,0-1.276-1.215c-.711-.239-1.426-.471-2.14-.705-.182-.06-.367-.115-.546-.171a1.827,1.827,0,0,1-3.4-.014c-.979.333-1.972.637-2.938,1.011a1.745,1.745,0,0,0-1.084,1.372,5.389,5.389,0,0,0-.056.982c0,.267-.04.506-.322.6s-.469-.065-.61-.292v-1.3a.255.255,0,0,0,.048-.075,2.951,2.951,0,0,1,2.161-2.346c.7-.219,1.389-.454,2.084-.681.652-.213.642-.213.656-.887a.527.527,0,0,0-.253-.5A2.9,2.9,0,0,1,669.607,463a15.651,15.651,0,0,1,.006-3.38,3.106,3.106,0,0,1,2.432-2.634,3.329,3.329,0,0,1,3.492,1,2.148,2.148,0,0,1,.182.261,3.345,3.345,0,0,1,2.188-1.606c.6-.171,1.2-.385,1.792-.581.623-.2.614-.2.626-.872a.555.555,0,0,0-.266-.529,3.087,3.087,0,0,1-1.363-2.257,22.134,22.134,0,0,1-.05-2.589,3.269,3.269,0,0,1,1.681-2.877A8.289,8.289,0,0,1,681.668,446.426Zm-3.061,16.215c.508-2.128,1.572-3.193,3.29-3.292a3.364,3.364,0,0,1,2.11.569,3.508,3.508,0,0,1,1.57,2.715h2.193c0-.105,0-.187,0-.268.011-.864-.023-1.731.047-2.591a1.828,1.828,0,0,0-1.08-1.975c-.962-.381-1.959-.676-2.948-1.011a1.8,1.8,0,0,1-3.375.007c-.95.315-1.882.607-2.8.936a1.93,1.93,0,0,0-1.272,1.765c.049.562.078,1.126.1,1.69.016.479,0,.96,0,1.456Zm6.053-11.764h-.023c0-.349.007-.7,0-1.048a2.545,2.545,0,0,0-2.318-2.467,2.465,2.465,0,0,0-2.687,2.07,14.048,14.048,0,0,0-.042,2.708,2.523,2.523,0,0,0,4.994.182A12.534,12.534,0,0,0,684.661,450.877Zm0,12.962h-.027c0-.37.009-.74,0-1.111a2.543,2.543,0,0,0-2.364-2.453,2.464,2.464,0,0,0-2.637,2.059,15.181,15.181,0,0,0-.051,2.677,2.525,2.525,0,0,0,4.994.272A12.864,12.864,0,0,0,684.664,463.839ZM670.453,461.3c0,.4-.023.8,0,1.2a2.522,2.522,0,0,0,5.028.014,21.481,21.481,0,0,0,0-2.435,2.523,2.523,0,0,0-5.028.017C670.43,460.5,670.452,460.9,670.453,461.3Zm23.348.009-.047,0c0-.391.02-.782,0-1.172a2.523,2.523,0,0,0-5.033-.03,21.944,21.944,0,0,0,0,2.374,2.517,2.517,0,0,0,4.96.422A11.219,11.219,0,0,0,693.8,461.314Zm-8.233,2.27c0,.323-.009.609,0,.894a3.508,3.508,0,0,1-1.558,3.2,1.6,1.6,0,0,0-.072,1.1.171.171,0,0,0,.056.025l.689.228a3.027,3.027,0,0,1,1.963-1.84c.7-.227,1.406-.461,2.111-.689s.713-.225.692-.974a.5.5,0,0,0-.158-.353,3.775,3.775,0,0,1-1.207-1.419.341.341,0,0,0-.245-.166C687.1,463.578,686.357,463.584,685.568,463.584Zm-6.053,5.44c.822-.232.828-.232.8-1.04a.464.464,0,0,0-.161-.32,3.483,3.483,0,0,1-1.515-2.982c0-.357,0-.713,0-1.1-.755,0-1.473.007-2.193,0-.2,0-.267.085-.369.238a4.142,4.142,0,0,1-.851,1.077,1.124,1.124,0,0,0-.488,1.112.339.339,0,0,0,.281.36c.745.235,1.479.507,2.23.721A3.172,3.172,0,0,1,679.514,469.024Zm1.762-.811a8.553,8.553,0,0,0,.009,1.056.829.829,0,0,0,1.63.009,8.563,8.563,0,0,0,.01-1.065Zm-.005-12.917a8.925,8.925,0,0,0,.008,1.034.832.832,0,0,0,1.641.015,8.594,8.594,0,0,0,.009-1.049Zm-7.463,10.426h-1.672c0,.315-.016.643,0,.969a.838.838,0,0,0,1.662.046C673.831,466.393,673.808,466.046,673.808,465.723Zm16.579,0c0,.211,0,.445,0,.679a2.633,2.633,0,0,0,.012.339.827.827,0,0,0,.811.7.8.8,0,0,0,.841-.665,9.409,9.409,0,0,0,.009-1.058Z"
        transform="translate(-666.257 -446.426)" fill="#20a6ed" />
</svg>
