<svg xmlns="http://www.w3.org/2000/svg" width="33.655" height="35.871" viewBox="0 0 33.655 35.871">
    <g id="Group_3041" data-name="Group 3041" transform="translate(1102.172 -1949.585) rotate(19)">
        <rect id="Rectangle_23" data-name="Rectangle 23" width="5.795" height="3.477" rx="1.738"
            transform="translate(-388.659 2223.321)" fill="#20a6ed" opacity="0" />
        <path id="Path_194" data-name="Path 194"
            d="M-698.736,2258.551l-2.849,3.073-.774,4.977-.732,4.584-2.008,5.268-.474,1.093h22.819l-2.98-5.319-1.032-9.543-2.543-3.947-4.777-1.736-3.277.362Z"
            transform="translate(308.821 -53.689)" fill="#20a6ed" opacity="0" />
        <g id="Group_2763" data-name="Group 2763" transform="translate(-398.432 2199.113)">
            <path id="Path_165" data-name="Path 165"
                d="M950.814,264.434a6.967,6.967,0,0,1,1.178.524,2.368,2.368,0,0,1,1.032,1.961c.016.426,0,.853,0,1.284.376.152.753.274,1.1.45a8.707,8.707,0,0,1,5.141,7.982c.044,1.269-.015,2.543.063,3.81a12.833,12.833,0,0,0,2.518,6.866c.334.458.712.885,1.087,1.312a.876.876,0,0,1-.681,1.537q-3.635-.009-7.269,0h-.332c-.043.148-.078.293-.128.433a4.2,4.2,0,0,1-3.472,2.935.739.739,0,0,0-.131.047h-.909a9.741,9.741,0,0,1-1.371-.426,4.131,4.131,0,0,1-2.278-2.719c-.023-.081-.048-.161-.079-.269h-.334q-3.663,0-7.326,0a.852.852,0,0,1-.826-1.26,1.42,1.42,0,0,1,.206-.269,13.061,13.061,0,0,0,3.388-6.608,19.812,19.812,0,0,0,.262-2.739c.053-1.164-.046-2.34.075-3.5a8.563,8.563,0,0,1,4.65-6.914c.476-.264,1-.449,1.532-.685,0-.328,0-.7,0-1.066a2.55,2.55,0,0,1,2.111-2.641.617.617,0,0,0,.1-.043Zm9.734,24-.242-.346a14.692,14.692,0,0,1-2.678-7.59c-.072-1.191-.031-2.388-.06-3.582a11.264,11.264,0,0,0-.115-1.5,7.094,7.094,0,0,0-14.08,1.342c0,.967.014,1.935-.006,2.9a15,15,0,0,1-2.77,8.485c-.062.088-.12.178-.194.29Zm-12.46,1.732a2.531,2.531,0,0,0,2.553,1.692,2.467,2.467,0,0,0,2.2-1.692Zm3.226-22.3a9.361,9.361,0,0,0-.007-1,.844.844,0,0,0-1.67,0,9.953,9.953,0,0,0-.007,1Z"
                transform="translate(-937.691 -264.434)" fill="#20a6ed" />
            <path id="Path_166" data-name="Path 166"
                d="M937.7,279.5a12.708,12.708,0,0,1,3.707-8.614.853.853,0,1,1,1.2,1.214,11.058,11.058,0,0,0-3.2,7.527c0,.1,0,.209-.006.313a.85.85,0,0,1-1.7-.018C937.692,279.8,937.7,279.681,937.7,279.5Z"
                transform="translate(-937.693 -267.672)" fill="#20a6ed" />
            <path id="Path_167" data-name="Path 167"
                d="M985.707,279.577a3.213,3.213,0,0,1,0,.454.855.855,0,0,1-.879.728.886.886,0,0,1-.818-.86,22.332,22.332,0,0,0-.321-2.615,10.52,10.52,0,0,0-2.711-5.006c-.071-.076-.146-.148-.214-.227A.852.852,0,1,1,982,270.884a12.724,12.724,0,0,1,3.705,8.693Z"
                transform="translate(-960.154 -267.672)" fill="#20a6ed" />
        </g>
    </g>
</svg>
