<svg xmlns="http://www.w3.org/2000/svg" width="32" height="32" viewBox="0 0 32 32">
  <g id="telegram" transform="translate(-0.401 0.04)">
    <rect id="Rectangle_7" data-name="Rectangle 7" width="32" height="32" rx="16" transform="translate(0.401 -0.04)" fill="#28a7e8"/>
    <path id="Path_78" data-name="Path 78" d="M10.189,20.3q6.962-3.1,9.284-4.083c4.421-1.878,5.34-2.2,5.939-2.215a1.033,1.033,0,0,1,.617.189.69.69,0,0,1,.227.44,2.925,2.925,0,0,1,.027.64c-.24,2.57-1.276,8.808-1.8,11.687-.223,1.218-.663,1.627-1.088,1.667-.925.087-1.627-.624-2.522-1.223-1.4-.938-2.193-1.522-3.553-2.437-1.572-1.058-.553-1.639.343-2.589.234-.249,4.308-4.032,4.387-4.375a.337.337,0,0,0-.074-.287.36.36,0,0,0-.33-.033q-.211.049-6.715,4.532a2.984,2.984,0,0,1-1.727.651,11.164,11.164,0,0,1-2.475-.6c-1-.331-1.789-.506-1.72-1.068Q9.058,20.757,10.189,20.3Z" transform="translate(-3.015 -4.69)" fill="#fff"/>
  </g>
</svg>
