<svg id="whatsapp" xmlns="http://www.w3.org/2000/svg" width="32" height="32" viewBox="0 0 32 32">
  <path id="Path_70" data-name="Path 70" d="M16,0H16A15.99,15.99,0,0,0,3.046,25.378L1.052,31.322,7.2,29.356A16,16,0,1,0,16,0Z" transform="translate(0)" fill="#4caf50"/>
  <path id="Path_71" data-name="Path 71" d="M21.962,18.935a4.515,4.515,0,0,1-3.14,2.258c-.836.178-1.928.32-5.6-1.2-4.7-1.948-7.73-6.726-7.966-7.036a9.138,9.138,0,0,1-1.9-4.826A5.108,5.108,0,0,1,4.988,4.233a2.325,2.325,0,0,1,1.636-.574c.2,0,.376.01.536.018.47.02.706.048,1.016.79C8.562,5.4,9.5,7.693,9.614,7.929a.952.952,0,0,1,.068.866,2.765,2.765,0,0,1-.518.734c-.236.272-.46.48-.7.772-.216.254-.46.526-.188,1a14.2,14.2,0,0,0,2.6,3.226,11.763,11.763,0,0,0,3.752,2.314,1.012,1.012,0,0,0,1.128-.178A19.358,19.358,0,0,0,17.006,15a.893.893,0,0,1,1.148-.348c.432.15,2.718,1.28,3.188,1.514s.78.348.894.546A3.985,3.985,0,0,1,21.962,18.935Z" transform="translate(3.352 3.659)" fill="#fafafa"/>
</svg>
