<svg id="youtube" xmlns="http://www.w3.org/2000/svg" width="32" height="32" viewBox="0 0 32 32">
  <path id="Path_79" data-name="Path 79" d="M13.83,19.259,19.262,16,13.83,12.741Z" transform="translate(0 0)" fill="#ce1312"/>
  <path id="Path_80" data-name="Path 80" d="M16,0A16,16,0,1,0,32,16,16,16,0,0,0,16,0Zm8.688,16.7a29.837,29.837,0,0,1-.174,3,4.176,4.176,0,0,1-.69,1.839,2.409,2.409,0,0,1-1.741.786c-2.432.186-6.083.192-6.083.192s-4.518-.044-5.908-.186a2.844,2.844,0,0,1-1.916-.792,4.167,4.167,0,0,1-.69-1.839,29.811,29.811,0,0,1-.174-3V15.295a29.8,29.8,0,0,1,.174-3,4.189,4.189,0,0,1,.69-1.841A2.394,2.394,0,0,1,9.917,9.67C12.348,9.482,16,9.482,16,9.482H16s3.648,0,6.079.188a2.4,2.4,0,0,1,1.741.784,4.176,4.176,0,0,1,.69,1.841,29.837,29.837,0,0,1,.174,3V16.7Z" fill="#ce1312"/>
</svg>
